<?xml version="1.0" encoding="utf-8"?>
<!-- Generator: Adobe Illustrator 25.2.1, SVG Export Plug-In . SVG Version: 6.00 Build 0)  -->
<svg version="1.1" id="Capa_1" xmlns="http://www.w3.org/2000/svg" xmlns:xlink="http://www.w3.org/1999/xlink" x="0px" y="0px"
	 viewBox="0 0 2531 3247.3" style="enable-background:new 0 0 2531 3247.3;" xml:space="preserve">
<style type="text/css">
	.st0{fill:#FFB200;}
	.st1{fill:#D66B09;}
	.st2{fill:#371A45;}
	.st3{fill:#FFC536;}
	.st4{fill:#FF9100;}
	.st5{fill:#FFEC90;}
	.st6{opacity:0.41;}
	.st7{fill:#FFFFFF;}
	.st8{opacity:0.3;}
	.st9{fill:#6B184E;}
	.st10{opacity:0.35;}
	.st11{fill:#22A7F0;}
	.st12{opacity:0.7;}
	.st13{opacity:0.5;}
	.st14{fill:#111A28;}
</style>
<g id="Capa_2_1_">
	<g id="Layer_1">
		<path class="st0" d="M2015.1,2094.9c12.1,32.9,22.1,66.5,30.1,100.7c-144.7,100.6-425.9,235.6-759,357.9s-634.9,201.4-810.2,218.3
			c-16.1-31.2-30.2-63.3-42.2-96.2c-0.6-1.6-1.1-3.1-1.7-4.7c-5.3-14.7-10.2-29.5-14.6-44.3c-10.3-34.2-18.4-69.1-24.3-104.4
			c-0.2-1.4-0.5-2.8-0.7-4.2c-23.7-147.5-7.5-298.7,46.8-437.9c84.6-217.4,258.6-398.8,494.8-485.5c234.3-86,482.2-61.4,686.4,47.3
			c84.5,44.9,160.8,104,225.5,174.6c35.2,38.4,66.8,80.1,94.2,124.5c2.3,3.6,4.5,7.2,6.7,10.9c18.3,30.7,34.7,62.5,49,95.3
			c5.4,12.3,10.5,24.8,15.3,37.5C2012.5,2087.9,2013.8,2091.4,2015.1,2094.9z"/>
		<path class="st0" d="M2055.6,2522.5c-13.6,81.6-39.1,160.7-75.6,234.9c-92.2,187.3-253.8,340.9-465.3,418.5
			c-211.9,77.8-435,65.1-626.8-18.5c-75.4-32.9-145.6-76.6-208.4-129.7c209.8-36.8,454.1-103,708.7-196.5
			S1871.8,2630.2,2055.6,2522.5z"/>
		<path class="st1" d="M1388.2,2831.3c254.6-93.5,483.6-201.1,667.4-308.8c-5.6,33.9-13.3,67.5-23.1,100.5
			c-141.8,88-365.8,193.1-624.6,288.1c-247.9,91-477.4,154.3-641.4,181.2c-30.4-19.6-59.4-41.2-87-64.5
			C889.3,2991,1133.6,2924.7,1388.2,2831.3z"/>
		<path class="st1" d="M2011.2,2084.5c1.3,3.4,2.6,6.9,3.9,10.4c12.1,32.9,22.1,66.5,30.1,100.7c-144.7,100.6-425.9,235.6-759,357.9
			s-634.9,201.4-810.2,218.3c-16.1-31.2-30.2-63.3-42.2-96.2c-0.6-1.6-1.1-3.1-1.7-4.7c165.6-6.2,472.4-81.6,812-206.2
			C1596.9,2335,1888.5,2187.7,2011.2,2084.5z"/>
		<path class="st1" d="M378.6,2391.1l7-56.3c114.1,14.3,420.5-59,745.2-178.2c387.4-142.2,641.4-287.2,692.2-356.8l45.9,33.4
			c-67.2,92.2-355.9,243.6-718.5,376.7C812.8,2333.8,502.6,2406.6,378.6,2391.1z"/>
		<path class="st1" d="M441.4,2108.4l-4.2-56.6c130.2-9.7,359-70.1,597.3-157.6c249.7-91.7,467.6-197,568.7-274.8l34.6,45
			c-105.3,81.1-329,189.6-583.7,283.1C811.2,2036.6,576.4,2098.2,441.4,2108.4z"/>
		<path class="st1" d="M390.2,2546.2l4.4-56.6c131.4,10.2,448.1-66.8,788.2-191.6c356.7-131,659.3-285.4,735.8-375.5l43.3,36.7
			c-83.5,98.4-388.7,255.9-759.5,392.1C849.9,2480.7,531.1,2557.2,390.2,2546.2z"/>
		<path class="st1" d="M887.9,3171.6v-14.1l-5.7-13l2.7-1.2h3c114.2,0.1,336-54.1,564.9-138.2c230.2-84.5,428.7-183.6,518.1-258.5
			l18.2,21.8c-91.7,76.9-293.5,177.8-526.5,263.4C1227.2,3118.1,1007,3171.7,887.9,3171.6z"/>
		<path class="st2" d="M1225.1,3247.3c-201.4,0-400.3-70.4-558.6-204.3l-32.5-27.6l42-7.4c216.2-37.9,460.1-105.5,705.3-195.5
			s474.9-196.3,664.2-307.3l36.8-21.6l-7,42.1c-50.8,305.9-262.9,562.2-553.7,668.9C1426.6,3229.5,1326.3,3247.3,1225.1,3247.3z
			 M726.1,3039.5c222.4,169,518,214.4,781.7,117.6s459.7-322.7,519.8-595.5c-183.7,104.2-401.4,203.5-632.6,288.4
			S933.6,3000.1,726.1,3039.5L726.1,3039.5z"/>
		<path class="st3" d="M2504.9,2042.2c42.5,115.8-138.9,298.3-449.3,480.3c-183.8,107.7-412.8,215.3-667.4,308.8
			S889.3,2991,679.5,3027.7c-354.4,62.1-610.8,40.4-653.3-75.4c-38.6-105.2,107.4-265.3,366.9-430.1c5.9,35.3,14,70.2,24.3,104.4
			c-72.1,50.7-108.9,92.4-99.1,119c9.9,27.1,66.9,34.9,157.6,26.2c175.4-17,477.2-96.1,810.2-218.3s614.3-257.3,759-357.9
			c74.8-52,113.2-94.9,103.2-121.9c-9.8-26.6-64.8-34.6-152.5-26.6c-14.3-32.8-30.7-64.6-49-95.3
			C2251.3,1909.4,2466.2,1937,2504.9,2042.2z"/>
		<path class="st4" d="M394.1,2570.1l6.5,9.5c-64.6,42.6-115,81.3-153.2,115.7C276.7,2658.3,325.5,2616.7,394.1,2570.1z"/>
		<path class="st4" d="M407,2589l-6.5-9.4c1.1-0.8,2.4-1.6,3.6-2.4L407,2589z"/>
		<path class="st5" d="M2258.2,2047c-10.7-29-39.6-48.2-87.6-57.8c-46.4-9.2-110.8-9.3-193.6-0.4l1.2,11.4l3.7,34.4
			c158.1-16.9,224,3.5,233.2,28.3c15.2,41.5-95.1,152.6-373.4,298.5c-155.5,81.5-342.2,163-539.6,235.5
			c-116.2,42.6-231.5,80.5-341.6,112.2c-77.1,22.3-151.6,41.6-222.1,57.4c-306.5,68.9-462.6,55.5-477.8,13.9
			c-8.9-24.3,26.7-81,152.7-168c2.2-1.5,4.4-3,6.7-4.6L407,2589l-6.5-9.4l-6.5-9.5c-68.6,46.7-117.4,88.2-146.8,125.2
			c-30.8,38.5-40.5,71.9-29.9,101.1c10.4,28.3,38.7,45.9,79.1,55.6c105.2,25.1,291.8-4.5,451.9-40.5
			c72.5-16.3,149.2-36.2,228.5-59.1c110.1-31.8,225.2-69.7,341.1-112.2c199.3-73.2,387.8-155.5,545.2-237.9
			C2064.1,2296.8,2295.9,2149.6,2258.2,2047z"/>
		<path class="st5" d="M2398.3,2036c-39.5-107.4-260.4-102.7-438.8-79.8l5.8,45.6c4.3-0.5,8.7-1.1,12.9-1.6
			c77.1-9.4,140.7-12.5,192.4-11c117.4,3.6,172.9,31.1,184.6,62.6c20.9,57-73.7,189.9-409.3,376.9
			c-173.5,96.7-382.7,191-605.3,272.7c-101.8,37.3-203.2,70.9-301.8,100c-117.2,34.6-230.5,62.9-336.2,83.9
			c-376.9,74.6-535,34.5-556-22.5c-11.6-31.6,13.1-88.7,100.7-167.5c38.3-34.5,88.6-73.1,153.3-115.7c1.1-0.8,2.4-1.6,3.6-2.4
			c2.4-1.6,4.8-3.1,7.2-4.8l-12.5-19.2l-12.6-19.4c-150.8,98-322.4,237.3-282.8,344.7c15.3,41.6,57.1,66.6,113.9,80.2
			c133.8,31.8,350.1,0.1,494-28.4c126.3-25,263.3-60.4,404.5-104.3c79.2-24.6,159.6-51.8,240.4-81.5
			c224.8-82.5,436.4-177.9,611.9-275.7C2150.9,2367.2,2449.6,2175.6,2398.3,2036z"/>
		<path class="st2" d="M338.8,3081.9c-185.2,0-301.6-41.7-331.4-122.7c-41.4-112.8,91.7-274,375-453.9l25.5-16.2l5,29.8
			c5.7,34.4,13.7,68.5,23.7,101.9l4.1,13.8l-11.8,8.3c-99.8,70.1-91.9,95.5-91.8,95.7s10.8,25.3,136.9,13.1
			c179-17.3,487.6-100.6,805.3-217.2s606.8-252.9,754.5-355.5c104-72.3,95.9-98.4,95.9-98.6s-10.5-24.7-131.9-13.6l-14.4,1.3
			l-5.8-13.2c-14-32-30-63-47.9-93l-15.5-25.9l29.9-4.2c332.3-46.2,538.2-9.4,579.6,103.4l0,0c45.3,123.4-121.6,307.2-458,504.4
			c-191.3,112.1-423.2,219.4-670.6,310.2s-493.6,159.1-712.1,197.4C551.1,3070.5,435.6,3081.9,338.8,3081.9z M378.9,2555.1
			C137.2,2712.8,12.8,2857.8,45,2945.4c36.8,100.4,278.6,124.4,631,62.6c216.2-37.9,460.1-105.5,705.3-195.5
			s474.9-196.3,664.2-307.3c308.6-180.9,477.5-355.7,440.6-456.1c-32.2-87.6-220.9-117.6-507.1-81.5c10.5,19.1,20.3,38.5,29.3,58.3
			c95.4-7.2,146,5.9,158.8,40.8c13.6,37.2-21.5,83.3-110.6,145.2c-152.6,106-438,240.7-763.6,360.2s-630.3,201.6-815.2,219.5
			c-108,10.4-164.7-2-178.3-39.2c-12.8-34.9,17.3-77.6,94.7-133.9C388.3,2597.7,383.2,2576.4,378.9,2555.1z"/>
		<g class="st6">
			<path class="st7" d="M2045.2,2198.4c-16.9,11.7-35.5,23.8-55.9,36.4c-6.2-22.7-13.5-45.3-21.7-67.7c-1.3-3.5-2.6-6.9-3.9-10.4
				c-4.8-12.7-9.9-25.2-15.3-37.5c-14.3-32.8-30.7-64.6-49-95.3c-2.2-3.6-4.4-7.2-6.7-10.8c-27.4-44.4-59-86-94.2-124.5
				c-64.7-70.6-140.9-129.6-225.4-174.5c-204.2-108.7-452.1-133.4-686.4-47.3C730.1,1724.2,601,1823.1,507,1946.6
				c98.9-161.2,249.4-284.3,427.1-349.2c234.3-86,482.2-61.4,686.4,47.3c84.6,44.9,160.8,104,225.5,174.6
				c35.2,38.4,66.8,80.1,94.2,124.4c2.3,3.6,4.5,7.3,6.7,10.9c18.3,30.7,34.7,62.5,49,95.3c5.4,12.3,10.5,24.8,15.3,37.5
				c1.4,3.5,2.7,6.9,3.9,10.4C2027.2,2130.7,2037.2,2164.3,2045.2,2198.4z"/>
		</g>
		<path class="st2" d="M464.3,2793l-6.2-12c-16.4-31.9-30.9-64.8-43.2-98.5c-6.1-16.6-11.7-33.4-16.7-50.1
			c-10.5-35.1-18.8-70.7-24.8-106.9c-67.6-407.7,165.3-807.1,553.8-949.7s824.5,11.2,1036.8,365.7c18.8,31.4,35.6,64,50.2,97.5
			c7,15.9,13.6,32.4,19.7,49l0,0c12.4,33.7,22.6,68.1,30.8,103.1l3.1,13.2l-11.1,7.7c-152.6,106-438,240.7-763.5,360.2
			s-630.3,201.6-815.2,219.5L464.3,2793z M1224.2,1562.9c-96.6,0-192.5,17.1-283.2,50.4c-370.5,136-592.6,516.9-528.1,905.6
			c5.7,34.4,13.7,68.5,23.7,101.9c4.8,15.9,10.1,32,15.9,47.8c10.2,27.9,21.9,55.2,35.1,81.8c180.8-20.1,481.9-102,791.7-215.8
			s592.4-246.1,743.2-347.8c-7.2-28.8-15.9-57.2-26.2-85.1l0,0c-5.8-15.8-12.1-31.5-18.8-46.7c-14-32-30-63.1-47.9-93.1
			C1778,1708.7,1506.6,1562.8,1224.2,1562.9L1224.2,1562.9z"/>
		<g class="st8">
			<path class="st2" d="M1009,2647.7L1009,2647.7c-218.9,68.3-408.1,112-533.1,124.1c-90.8,8.8-147.7,0.9-157.6-26.2
				c-9.8-26.6,27-68.3,99.1-119c-6-19.9-11.1-39.9-15.5-59.9l0,0C167.7,2722.2,38.6,2871,75.2,2970.6c10.6,28.9,34.5,51.9,69.8,69.2
				c-3.3-1-6.6-2-9.8-3c114.7,36.4,307.6,32.4,544.3-9.1c209.8-36.8,454.1-103,708.7-196.5c19.7-7.2,39.3-14.6,58.7-22
				C732.2,2962.9,1009,2647.7,1009,2647.7z"/>
		</g>
		<g class="st8">
			<path class="st2" d="M1029,2531.6c252.6-3.4,780.1-224.6,998.3-323.9c6.1-4.1,12.1-8.1,17.8-12.1c-5.4-23.1,12.1-4.6,4.7-27.5
				c-137.6,67-782.1,353.6-1069.9,357.4c-12.6,0.2-25.2-0.2-37.7-1.1C970.9,2529.6,999.9,2532,1029,2531.6z"/>
		</g>
		<g class="st8">
			<path class="st2" d="M2049.9,2168c-137.6,67-782.1,353.6-1069.9,357.4c-151,2-301.7-70.4-333.3-218c-0.6-2.7-1-5-1.3-6.9
				c-0.2-1.4-0.5-2.8-0.7-4.3c-8.2-51.2-11.7-103.1-10.3-155c4.1-146.8,46.3-289.9,122.6-415.4
				c-243.2,188.4-364.1,494.5-315.5,798.2c0.2,1.4,0.4,2.8,0.6,4.2c5.9,35.3,14,70.2,24.3,104.4c4.4,14.8,9.2,29.6,14.6,44.3
				c0.6,1.6,1.1,3.1,1.7,4.7c10.7,28.9,22.9,57.3,36.7,84.9c-7.2,1-14.1,1.9-21,2.7c178-21.2,468.5-98.7,787.8-215.9
				c333.1-122.3,614.3-257.3,759-357.9C2039.8,2172.5,2057.3,2190.9,2049.9,2168z"/>
		</g>
		<g class="st8">
			<path class="st2" d="M760.4,3037.1c38.6,25,79.2,46.8,121.4,65.2c191.8,83.6,414.9,96.3,626.8,18.5
				c211.5-77.6,373.1-231.2,465.3-418.5c21.3-43.2,38.9-88.2,52.5-134.4c4.4-14.9,8.3-29.9,11.9-45
				c-181.9,105.6-406.7,210.7-656.2,302.3c-234.3,86-459.8,148.9-657.9,187.1C736,3020.8,748.1,3029.1,760.4,3037.1z"/>
		</g>
		<path class="st7" d="M1463.3,1572.7H974.4c-85.9,0-155.5-69.6-155.5-155.5V978.7c0-85.9,69.6-155.5,155.5-155.5h488.9
			c85.9,0,155.5,69.6,155.5,155.5v438.5C1618.8,1503.1,1549.2,1572.7,1463.3,1572.7z"/>
		<path class="st7" d="M1618.8,976.1v443.6c0,84.1-71.2,153-158.2,153H977c-87,0-158.2-68.8-158.2-153V976.1
			c0-23.5,5.6-46.7,16.4-67.7c7.8-15.1,18-28.9,30.3-40.7c28-26.8,64.7-42.6,103.4-44.5c2.7-0.1,5.3-0.2,8-0.2h483.7
			c63.7,0,118.8,36.9,143.8,89.6c2.8,5.9,5.2,12,7.2,18.3C1616.5,945.6,1618.8,960.8,1618.8,976.1z"/>
		<path class="st2" d="M1463.3,823.2c85.6,0,155.5,70,155.5,155.5v438.5c0,85.6-70,155.5-155.5,155.5H974.4
			c-85.5,0-155.5-70-155.5-155.5V978.7c0-85.5,70-155.5,155.5-155.5L1463.3,823.2 M1463.3,791.2H974.4
			c-103.4,0-187.6,84.2-187.6,187.6v438.5c0,103.4,84.2,187.6,187.6,187.6h488.9c103.4,0,187.6-84.1,187.6-187.6V978.7
			C1650.9,875.3,1566.7,791.1,1463.3,791.2L1463.3,791.2z"/>
		<g class="st8">
			<path class="st9" d="M1601.6,998.7l-2.1,1.1c0-1,0-2,0-3c0.1-1.3,0.2-2.7,0.5-4c0-0.3,0.1-0.7,0.2-1c0-0.1,0.1-0.3,0.1-0.4
				c0.1-0.4,0.2-0.8,0.3-1.2s0.2-0.7,0.3-1c0-0.2,0.1-0.3,0.2-0.5c0.1-0.4,0.2-0.7,0.4-1.1s0.3-0.9,0.5-1.3
				c-0.1,0.5-0.2,0.9-0.3,1.4c-0.2,1-0.3,2-0.4,3C1601,993.3,1601.1,996,1601.6,998.7z"/>
		</g>
		<g id="leftArm">
			<path class="st7" d="M999.4,850.8l-13.1,34.3l-11.1,29.1l-9.7,25.4l-56.9,149.3c-9.2,2.6-18.6,4.9-28.3,6.8
				c-121.5,25-282-1.4-501-247c-34.3-38.4-116.9-61.7-80.9-149c36.9-89.3,88.7-78.2,88.7-78.2s-13.6-44.3,15.7-66.7
				c41.4-31.7,90.4,15.2,138,48.7c6.8,4.8,3.7-59.4,48.5-57.5C653.4,548.9,650,695,650,695s86.3,94.8,220.3,136.5
				c35.9,11.3,73.1,17.7,110.6,19.1C987,850.8,993.2,850.9,999.4,850.8z"/>
			<g class="st10">
				<path class="st2" d="M908.7,1088.9L908.7,1088.9c-124.6,34.6-292.8,25-529.3-240.2c-34.2-38.4-116.9-61.7-80.9-149
					c22.1-53.7,49.7-71,68.1-76.4c-6.3,9.5-10.7,21.9-18.2,35.1c-42.2,74.3,73.3,146.4,105.1,133.2c19.5-8.1,26.4-15.9,37.7-53.2
					c12-39.7,30.6-58.5,32.8-56.1c10,11.2,10.2,149.4,33.2,198c58.5,124,216.2,184.9,330.6,179.6c11.8-0.6,21.8,8.5,22.3,20.3
					C910.2,1083.2,909.7,1086.2,908.7,1088.9z"/>
			</g>
			<path class="st2" d="M808.7,1119.1c-108.9,0-254.8-51-441.1-259.9c-7.5-8.5-18.5-16.6-30-25.2c-36-26.8-85.3-63.6-53.7-140.3
				c26.7-64.7,62.2-82.6,84.8-87c-1.5-18.6,1-46.2,24.7-64.4c44.8-34.2,93.3,1.7,136.1,33.4l4,3c6-19.9,19.9-50,56.6-48.4
				c70.7,3,75.7,125.2,75.7,158.3c24.7,24.8,156.7,148.7,333.4,146.3h0.2c8.7-0.1,15.8,7,15.9,15.6c0.1,8.7-7,15.8-15.7,15.9l0,0
				c-209.8,2.6-355.2-154.3-361.2-161c-2.7-3-4.2-6.9-4.1-11c1-42.6-8.9-131.2-45.5-132.8c-15.7-0.7-21.8,11.8-27.6,35.2
				c-2.4,9.7-4.5,18.1-13.7,21.5c-5.2,1.9-11,1.1-15.6-2.1c-7-4.9-14.1-10.2-21.2-15.4c-45-33.3-74-52.2-98.2-33.7
				c-20.1,15.4-10.3,49.3-10.2,49.6c2.5,8.3-2.2,17.1-10.5,19.7c-2.6,0.8-5.3,0.9-7.9,0.3c-1.3-0.2-40.1-5.8-70.8,68.8
				c-22.3,54,8.1,76.7,43.4,103c12.3,9.2,25,18.7,34.7,29.5c242.3,271.6,409,264.5,513.3,235.5c8.4-2.3,17.1,2.6,19.4,11
				c2.3,8.4-2.6,17.1-11,19.4C882.9,1112.4,848.3,1119.1,808.7,1119.1z"/>
			<path class="st2" d="M560.1,600.1l-3.5,50c-0.2,3-1.2,5.8-2.8,8.2l-0.4,0.6l0,0c-1.2,1.3-2.3,2.7-3.3,4.1c-1.2,1.6-2.3,3.2-3.3,5
				c-2.2,3.4-4.1,7-5.8,10.7c-3.4,7.3-5.6,15.1-6.6,23.1c-0.7,4-0.4,8-0.5,12c0.6,3.9,0.7,8,2,12c1.7,8,5.7,15.5,10,22.9l0.4,0.7
				c2.2,3.8,0.9,8.6-2.9,10.7c-3.4,1.9-7.6,1.1-10.1-1.9c-6.3-7.9-12.5-16.3-16.2-26.2c-2.3-4.8-3.3-10-4.8-15.2
				c-0.8-5.3-1.7-10.6-1.7-15.9c-0.2-10.7,1.3-21.4,4.3-31.7c1.5-5.1,3.3-10.1,5.5-14.9c1.1-2.4,2.2-4.8,3.5-7.2
				c1.4-2.6,2.8-5.1,4.5-7.5l0,0l-3.3,8.9l3.6-51.4c0.6-8.7,8.1-15.2,16.8-14.6c8.7,0.6,15.2,8.1,14.6,16.8L560.1,600.1z"/>
			<path class="st2" d="M665.8,1085.9c-6.9,0-12.5-5.6-12.5-12.5c0-3.4,1.4-6.7,3.8-9c84.7-81.3,97.6-277.4,97.8-279.4
				c0.4-6.9,6.4-12.2,13.3-11.7s12.2,6.4,11.7,13.3l0,0c-0.5,8.5-13.7,207.9-105.4,295.9C672.1,1084.7,669,1085.9,665.8,1085.9z"/>
		</g>
		<path class="st7" d="M1759.4,1496.6c-6.7,148.9-52.3,209.3-108.5,228.3c-12.1,4.1-24.8,6.1-37.6,5.9
			c-39.8-1.4-68.7-18.2-68.7-18.2s-14.7,6.2-28.1,4.8c-103.9-10.1-80.2-71.8-59.1-170.6c6.1-28.4,11.9-59.9,14.4-94.2
			c12-161.7-33.2-314.5-33.2-314.5l17.4-145l19.4-161.7c0,0,10.2,9.2,26.7,26.8c14.4,15.3,33.8,36.9,55.3,64.3
			C1645.4,1034.1,1771,1240.1,1759.4,1496.6z"/>
		<path class="st2" d="M1616.1,1746.6c-1.1,0-2.2,0-3.3-0.1c-24-1-47.5-6.7-69.3-16.8c-6.9,2.1-17.7,4.5-28.4,3.4
			c-39.2-3.8-64.1-14.7-78.4-34.4c-22.3-30.8-12.5-74.9,0-130.8c7.6-34.3,16.3-73.2,19.5-116.4c11.7-156.7-32.1-307.4-32.6-308.9
			c-2.3-8.4,2.7-17.1,11.1-19.3c8.1-2.2,16.6,2.4,19.1,10.4c1.9,6.4,45.9,157.5,33.8,320.1c-3.4,45.5-12.3,85.6-20.2,120.9
			c-10.7,48.1-19.2,86.1-5.2,105.4c8.5,11.7,26.8,18.7,55.9,21.6c7.7,0.8,17.4-2.4,20.6-3.7l7.2-2.9l6.8,3.9
			c0.2,0.1,26.3,14.8,61.2,16c10.9,0.2,21.7-1.5,32-5c59.4-20.2,92.3-92.2,97.8-214.1c9-197.7-67-364.3-132.4-469.4
			c-71.2-114.4-145.6-182.7-146.3-183.3c-6.4-5.9-6.9-15.8-1.1-22.3c5.9-6.4,15.8-6.9,22.3-1.1l0,0c3.2,2.8,77.9,71.3,151.3,189.1
			c67.9,109,147,282.1,137.6,488.3c-6.3,138.1-45.2,217.5-119.2,242.5C1643.2,1744.2,1629.7,1746.5,1616.1,1746.6z"/>
		<path class="st2" d="M1469,1314.7c-6.9,0-12.5-5.6-12.5-12.5c0-5.2,3.3-9.9,8.2-11.7c8.6-3.1,210.2-75.2,283.5-9.3
			c5.1,4.6,5.6,12.5,0.9,17.7c-4.6,5.1-12.5,5.6-17.7,0.9l0,0c-51.6-46.4-204-5.5-258.3,14.2
			C1471.9,1314.5,1470.5,1314.7,1469,1314.7z"/>
		<path class="st7" d="M1583.3,1547H850.5c-1.9-59.4-1.5-116.7,0.8-171.3c2.1-50.7,5.8-99.1,10.6-145.2c4.4-42.1,9.7-82.2,15.7-120
			c0.8-5,1.7-9.9,2.8-14.7c14.8-67.1,54.7-113.7,82.2-158.6c4.7-7.6,8.9-15.2,12.7-22.8c4.3-8.6,7.8-17.6,10.5-26.8
			c0.2-0.8,0.4-1.6,0.6-2.4c1.9-9.8-0.9-21.9-5.4-34.5c-9.8-27.8-28-58.3-22.9-73.4c8.4-24.8,15.8-44.4,21.2-58.2
			c6.2-15.8,9.9-24,9.9-24h455.5c0,0,3.8,8.1,10.1,23.8c6.6,16.2,15.9,40.4,26.5,72.2c6.6,19.6,13.7,42.1,20.9,67.3
			c5.3,18.4,10.8,38.3,16.2,59.6c2.6,10.1,5.1,20.6,7.6,31.3c11.9,50.2,23.3,107,32.8,170.1c5.4,35.4,10.2,72.6,14.1,111.8
			c4.7,46.2,8.2,95,10.1,146.2C1585,1431.2,1585.2,1487.9,1583.3,1547z"/>
		<path class="st2" d="M911.2,983.4c0.6,12.4-0.1,24.3-0.7,36.2c-0.6,11.9-1.8,23.6-2.8,35.4s-2.8,23.3-4.4,34.9
			c-1.8,11.6-4.2,23.1-6.3,34.6l-3.1,17.3c-0.9,5.8-1.7,11.6-2.5,17.4c-1.6,11.6-3.1,23.3-4.4,35c-1.4,11.7-2.7,23.4-3.8,35.1
			c-1.2,11.7-2.3,23.4-3.3,35.2c-4.3,46.9-5.5,94.1-7.3,141.2c-1.1,23.6-2.1,47.1-3.8,70.7c-1.3,23.6-2.7,47.2-15.8,70.6
			c-0.7,1.3-2.4,1.8-3.7,1c-0.5-0.3-0.9-0.7-1.1-1.1c-12.1-23.9-12.4-47.7-12.3-71.5c-0.3-23.8,0.4-47.5,1.5-71.3
			c2.6-47.5,7.1-94.9,11.1-142.4c1-11.9,2.1-23.7,3.4-35.6c1.2-11.9,2.5-23.7,3.9-35.6c1.3-11.8,2.8-23.7,4.5-35.5l4.5-35.6
			c1.3-11.9,3-23.7,5.3-35.5s5.3-23.4,8.7-34.9c6.9-23,15.7-45.6,27.9-67c0.7-1.2,2.2-1.6,3.4-0.9c0,0,0,0,0,0
			c0.7,0.4,1.2,1.2,1.2,2L911.2,983.4z"/>
		<path class="st2" d="M1580.8,1547c-13-21.2-14.3-42.5-15.4-63.8c-1.5-21.3-2.4-42.6-3.2-63.8c-1.3-42.5-2.3-84.9-6.8-127.1
			c-2.1-21.1-4.7-42.1-7.6-63.1s-5.9-42-10.4-62.8c-2.1-10.4-4.4-20.8-6.2-31.2c-1.6-10.5-2.9-21.1-4-31.7s-1.5-21.4-1.8-32.2
			c-0.4-11,0-22,1-33v-0.1c0.1-1.4,1.4-2.4,2.8-2.2c0,0,0,0,0,0c0.8,0.1,1.5,0.6,1.9,1.3c11,19.5,18.9,39.8,25.3,60.4
			c6.4,20.6,10.8,41.8,13.3,63.2c2.8,21.4,6.4,42.6,9.3,64s5.6,42.8,7.7,64.2c4.2,42.9,8.6,85.9,10.7,128.9
			c0.9,21.5,1.3,43,0.8,64.4c-0.1,21.4-0.5,42.9-12.7,64.5c-0.8,1.3-2.5,1.8-3.8,1.1C1581.4,1547.7,1581.1,1547.4,1580.8,1547z"/>
		<g class="st10">
			<path class="st2" d="M1582.9,1411.7c-45,4.4-101.1,6-144.6-5.4v24.2c-0.1,33.6-27.3,60.8-60.9,60.8h-332.1
				c-33.5-0.1-60.7-27.3-60.8-60.8v-19.3c-43.4,6.6-94,3.8-133.2-0.7c2.1-40.3,5.7-79,10.6-115.7c36,1.5,82.5,2.2,122.6-1.3v-43.3
				c0.1-33.6,27.2-60.7,60.8-60.8h332.1c19,0,36.9,8.9,48.4,24.1c8.1,10.5,12.5,23.4,12.4,36.7v40.6c40.4,5.9,92.7,5.9,134.5,4.5
				C1577.5,1332.1,1581,1371,1582.9,1411.7z"/>
		</g>
		<path class="st7" d="M1048.8,1348c-45.7,18.5-116.3,14.6-164.5,8.8c-28.4-3.4-48.6-29.2-45.1-57.6c0.1-0.5,0.1-0.9,0.2-1.4l0,0
			c3.9-26.3,27-45.4,53.5-44.1c45.1,2.1,112.7,3.1,155.5-6.4"/>
		<g class="st10">
			<path class="st2" d="M1048.8,1348c-45.7,18.5-116.3,14.6-164.5,8.8c-28.4-3.5-48.6-29.4-45.1-57.8c0.8-6.2,2.6-12.1,5.5-17.6
				c7.9,15.1,22.7,25.3,39.6,27.4c48.1,5.8,118.7,9.7,164.3-8.7L1048.8,1348z"/>
		</g>
		<path class="st2" d="M957.9,1377.4c-25.3-0.1-50.5-1.8-75.5-4.9c-37-4.6-63.3-38.3-58.7-75.3c4.3-34.9,34.8-60.6,69.9-59.1
			c66.1,3.1,119.8,1,151.3-6c5.7-1.3,25.3-2.8,35.9,31.1c9.9,31.9,8.5,85.6-26.1,99.6l0,0C1027.4,1373.7,992.5,1377.4,957.9,1377.4z
			 M1048.8,1348L1048.8,1348z M890.4,1269.4c-19.9-0.1-36.1,16-36.1,35.9c-0.1,18.3,13.6,33.8,31.9,35.9c68.3,8.3,124,5.5,156.7-7.8
			c7-2.8,9.7-14.5,10.6-19.4c3.5-19.8-1.6-42.6-6.3-50.4c-43.8,8.7-108.1,8-155,5.8C891.5,1269.4,891,1269.4,890.4,1269.4z"/>
		<path class="st7" d="M1398.1,1348c45.7,18.5,116.3,14.6,164.5,8.8c28.4-3.4,48.6-29.2,45.1-57.6c-0.1-0.5-0.1-1-0.2-1.4l0,0
			c-3.9-26.3-27-45.4-53.5-44.1c-45.1,2.1-112.7,3.1-155.5-6.4"/>
		<g class="st10">
			<path class="st2" d="M1562.6,1356.8c-48.2,5.8-118.8,9.7-164.5-8.8l0.2-48.3c45.7,18.4,116.2,14.5,164.3,8.7
				c16.8-2,31.6-12.2,39.5-27.2c2.8,5.2,4.6,10.8,5.5,16.7c4.2,28.3-15.4,54.6-43.7,58.8C1563.4,1356.7,1563,1356.8,1562.6,1356.8z"
				/>
		</g>
		<path class="st2" d="M1488.9,1377.4c-34.6,0-69.5-3.7-96.8-14.8l0,0c-34.6-14-36-67.7-26.1-99.6c10.5-33.9,30.1-32.4,35.9-31.1
			c31.5,7,85.2,9.1,151.3,6c37.3-1.7,68.8,27.2,70.5,64.4c1.6,35.2-24.2,65.8-59.2,70.1C1539.4,1375.6,1514.2,1377.2,1488.9,1377.4z
			 M1404,1333.4c32.8,13.3,88.4,16,156.7,7.8c19.8-2.2,34-20,31.7-39.8c-2.1-19-18.7-33-37.7-31.9c-47,2.2-111.3,2.9-155-5.8
			c-4.7,7.8-9.8,30.6-6.3,50.4C1394.3,1318.9,1397,1330.6,1404,1333.4L1404,1333.4z"/>
		<path class="st7" d="M1415.7,1214.1v161.4c-0.1,30-24.4,54.4-54.5,54.4H1064c-30-0.1-54.3-24.4-54.4-54.4v-161.4
			c0.1-30,24.4-54.3,54.4-54.4h297.2C1391.3,1159.7,1415.6,1184,1415.7,1214.1L1415.7,1214.1z"/>
		<g class="st10">
			<path class="st2" d="M1415.7,1214.1v161.4c-0.1,30-24.4,54.4-54.4,54.4H1064c-30-0.1-54.4-24.4-54.4-54.4v-60.4
				c44.6,45.5,132.4,74.1,212.9,74.5c25.9,0.1,46.7-20.3,48.6-46.1c0-0.3,0-0.5,0.1-0.8c2.3-25.8,25.2-44.9,51-42.5
				c22.4,2,40.2,19.6,42.5,41.9c39-48.1,27.6-131.7,39.9-160.8C1411.8,1190.6,1415.7,1202.2,1415.7,1214.1z"/>
		</g>
		<path class="st2" d="M1361.3,1445.6H1064c-38.7,0-70.1-31.4-70.2-70.2V1214c0-38.7,31.4-70.1,70.2-70.2h297.2
			c38.7,0,70.1,31.4,70.2,70.2v161.4C1431.4,1414.2,1400,1445.6,1361.3,1445.6z M1064,1175.4c-21.3,0-38.7,17.3-38.7,38.7v161.4
			c0,21.3,17.3,38.6,38.7,38.7h297.2c21.3,0,38.6-17.3,38.7-38.7V1214c0-21.3-17.3-38.6-38.7-38.7L1064,1175.4z"/>
		<circle class="st11" cx="1317.9" cy="1294.8" r="46.9"/>
		<g class="st12">
			<path class="st7" d="M1364.9,1294.8c0,3.1-0.3,6.3-0.9,9.4c-5.3-25.4-30.2-41.7-55.6-36.4c-18.3,3.8-32.5,18.1-36.4,36.4
				c-0.6-3.1-0.9-6.2-0.9-9.4c0.4-25.9,21.7-46.6,47.6-46.3C1344.1,1248.9,1364.6,1269.4,1364.9,1294.8L1364.9,1294.8z"/>
		</g>
		<g class="st10">
			<path class="st2" d="M1364.9,1294.7c0.4,25.9-20.3,47.2-46.2,47.6c-25.9,0.4-47.2-20.3-47.6-46.2c0-0.5,0-0.9,0-1.4
				c0-5.8,1.1-11.6,3.2-17c9.4,24.1,36.6,36.1,60.7,26.7c12.3-4.8,22-14.5,26.7-26.7C1363.8,1283.1,1364.9,1288.9,1364.9,1294.7z"/>
		</g>
		<path class="st2" d="M1318,1353.5c-32.4,0-58.8-26.3-58.8-58.8s26.3-58.8,58.8-58.8s58.8,26.3,58.8,58.8l0,0
			C1376.7,1327.2,1350.4,1353.5,1318,1353.5z M1318,1259.6c-19.4,0-35.1,15.7-35.1,35.1s15.7,35.1,35.1,35.1s35.1-15.7,35.1-35.1
			l0,0C1353.1,1275.4,1337.4,1259.7,1318,1259.6z"/>
		<path class="st2" d="M1184.9,1441.7c-6.5,0-11.8-5.3-11.8-11.8c0,0,0,0,0,0v-85.7c0-14.8-7-28.7-18.7-37.6l-12.6-9.4
			c-17.7-13.4-28.1-34.3-28.2-56.4v-81.1c0.2-6.5,5.6-11.7,12.2-11.5c6.3,0.2,11.3,5.2,11.5,11.5v81.1c0,14.8,7,28.6,18.7,37.6
			l12.6,9.5c17.7,13.4,28.1,34.3,28.2,56.4v85.7C1196.8,1436.4,1191.5,1441.7,1184.9,1441.7
			C1184.9,1441.7,1184.9,1441.7,1184.9,1441.7z"/>
		<g class="st10">
			<path class="st2" d="M1572.9,938.1c-10.8,10-22.1,19.5-33.7,28.3c-23.4,17.9-48.3,33.7-74.5,47.1
				c-170.6,86.7-376.2,64.2-524.1-57.2c-1.1-0.8-2.2-1.8-3.2-2.7c-38.5-32.3-71.7-70.3-98.5-112.8c38.3,12.1,78,18.9,118.1,20.4
				c-10.5-29.7-29.9-62.3-24.4-78.4c9-26.5,16.8-47.4,22.6-62.1c6.6-16.8,10.6-25.6,10.6-25.6h486.6c0,0,4,8.7,10.8,25.4
				c7,17.3,17,43.2,28.3,77.1c7,21,14.6,45,22.3,71.9C1529.2,885.8,1549.9,908.9,1572.9,938.1z"/>
		</g>
		<path class="st7" d="M1706.2,723.7L1706.2,723.7c-5.4-0.8-9.2-5.8-8.5-11.2c0,0,0,0,0,0l40-284c0.8-5.5,5.8-9.2,11.3-8.5l0,0
			c57.1,8.1,96.9,60.9,88.9,118l-13.6,96.8C1816.2,692,1763.4,731.8,1706.2,723.7C1706.2,723.7,1706.2,723.7,1706.2,723.7z"/>
		<path class="st2" d="M1720.8,727.8c-5,0-10.1-0.4-15.1-1c-7.1-1-12.1-7.6-11.1-14.7c0,0,0,0,0-0.1l40-284
			c1-7.1,7.6-12.1,14.7-11.1c0,0,0,0,0,0c58.8,8.3,99.8,62.6,91.5,121.5c0,0,0,0,0,0l-13.6,96.8
			C1819.7,688.3,1774.3,727.7,1720.8,727.8z M1747.5,423c-3.4,0-6.3,2.5-6.8,5.9l-40,284c-0.5,3.8,2.1,7.2,5.8,7.8c0,0,0,0,0,0
			c55.4,7.7,106.7-30.8,114.5-86.3l13.6-96.8c7.8-55.4-30.8-106.7-86.2-114.6C1748.2,423,1747.9,423,1747.5,423z"/>
		<g class="st10">
			<path class="st2" d="M1830.6,589.4l-6.4,45.4c-8.1,57.1-60.9,96.9-118,88.9c-5.4-0.8-9.2-5.8-8.5-11.3l10.6-75.5
				c1.1,3.8,4.3,6.5,8.1,7.1l6.7,0.9C1767.2,651.2,1810.2,628.9,1830.6,589.4z"/>
		</g>
		<path class="st2" d="M1720.8,741.8c-5.7,0-11.4-0.4-17-1.2c-14.8-2.1-25.1-15.7-23-30.5c0,0,0-0.1,0-0.1l40-284
			c2.1-14.8,15.7-25.1,30.5-23c0,0,0,0,0.1,0c66.5,9.4,112.8,70.8,103.4,137.3c0,0,0,0,0,0l-13.6,96.8
			C1832.6,697.9,1780.4,741.8,1720.8,741.8z M1715.7,707.5c45.4,2.6,85.2-30,91.6-75l13.6-96.8c6.3-45-23-87.4-67.3-97.4
			L1715.7,707.5z"/>
		<path class="st7" d="M811.5,288L811.5,288c5.4,0.8,9.2,5.8,8.5,11.2l-40,284c-0.8,5.4-5.8,9.2-11.2,8.5l0,0
			c-57.1-8-96.9-60.9-88.9-118l13.6-96.8C701.5,319.8,754.4,280,811.5,288C811.5,288,811.5,288,811.5,288z"/>
		<path class="st2" d="M770.2,594.9c-0.6,0-1.2,0-1.8-0.1c-58.8-8.3-99.8-62.7-91.5-121.5c0,0,0,0,0,0l13.6-96.9
			c8.3-58.8,62.7-99.7,121.5-91.5c0,0,0,0,0,0l0,0c7.1,1,12,7.6,11,14.7l-40,284C782.1,590.1,776.6,594.9,770.2,594.9z M796.8,290
			c-50.5,0.1-93.2,37.3-100.2,87.3l-13.6,96.9c-7.8,55.4,30.8,106.7,86.2,114.5c0,0,0,0,0,0c3.8,0.5,7.2-2.1,7.8-5.8c0,0,0,0,0,0
			l40-284c0.6-3.8-2.1-7.3-5.8-7.8c0,0,0,0,0,0l0,0C806.3,290.3,801.6,290,796.8,290z"/>
		<g class="st10">
			<path class="st2" d="M791.1,504.5L780,583.3c-0.8,5.4-5.8,9.2-11.3,8.5c-57.1-8-96.9-60.9-88.9-118c0,0,0,0,0,0l5.8-40.8
				c11.6,39.3,45.1,68.3,85.7,74l10.4,1.5C785.3,508.9,788.9,507.4,791.1,504.5z"/>
		</g>
		<path class="st2" d="M770.2,608.9c-1.3,0-2.5-0.1-3.8-0.3c-66.5-9.4-112.7-70.8-103.4-137.3l13.6-96.8
			c9.4-66.5,70.8-112.8,137.3-103.4c0,0,0,0,0,0l0,0c14.8,2.1,25.1,15.7,23,30.5c0,0,0,0,0,0.1l-40,284
			C795,599,783.6,608.9,770.2,608.9z M796.8,304c-43.5,0.1-80.3,32.2-86.3,75.2l-13.6,96.8c-6.3,45,22.9,87.4,67.3,97.4L802,304.2
			C800.3,304.1,798.5,304,796.8,304L796.8,304z"/>
		<circle class="st7" cx="1258.9" cy="505.9" r="488.7"/>
		<path class="st2" d="M1259,997.7c-34.6,0-69.1-3.7-103-11C890.8,930,721.2,668.1,778,402.9S1096.7-31.8,1361.9,25
			s434.7,318.7,378,583.9l0,0C1690.4,839.4,1485.9,997.7,1259,997.7z M1258.8,20.1c-224.1,0-426,156.3-474.8,384.1
			c-56,261.9,111.4,520.5,373.2,576.6s520.5-111.4,576.6-373.2S1622.4,87,1360.6,31C1327.1,23.8,1293,20.2,1258.8,20.1L1258.8,20.1z
			"/>
		<g class="st10">
			<path class="st2" d="M1746.4,541c-1.6,22.6-4.8,45-9.6,67.1c-56.5,263.9-316.3,432.1-580.2,375.6S724.5,667.5,781,403.6
				c1.6-7.6,3.4-15.1,5.4-22.5c-17.6,239.5,143.7,461.4,385.2,513.1C1427.9,949,1680.3,791.9,1746.4,541z"/>
		</g>
		<path class="st2" d="M1259,1011.8c-35.6,0-71.2-3.8-106-11.3C880.3,942.1,705.9,672.7,764.3,400s327.8-447.1,600.5-388.7
			s447.1,327.7,388.7,600.5l0,0C1702.8,848.9,1492.4,1011.8,1259,1011.8z M1258.8,34.2c-217.6,0-413.8,151.8-461.1,373
			c-54.4,254.3,108.2,505.5,362.5,559.9s505.5-108.2,559.9-362.5S1612,99.1,1357.6,44.7C1325.2,37.7,1292,34.2,1258.8,34.2
			L1258.8,34.2z M1736.8,608.2L1736.8,608.2z"/>
		<path class="st2" d="M1732.7,620.1c-18.6,93.8-66.3,174.9-132.7,236.6c-49.8,46.3-229,109-427.6,71.5
			c-184.1-34.8-331.9-165.9-360.2-227.7c-37.8-82.4-51-175.5-32.4-269.3c49.2-248.2,282.9-308.9,546.1-256.7
			S1781.9,371.9,1732.7,620.1z"/>
		<g class="st13">
			
				<ellipse transform="matrix(0.3663 -0.9305 0.9305 0.3663 486.9724 1826.5476)" class="st7" cx="1584.6" cy="555.7" rx="86.5" ry="62.7"/>
		</g>
		<g class="st13">
			
				<ellipse transform="matrix(0.4914 -0.871 0.871 0.4914 133.338 1645.9644)" class="st7" cx="1475.9" cy="708.8" rx="39.7" ry="34.1"/>
		</g>
		<g class="st10">
			<path class="st14" d="M1685.9,370.1c47.2,67.1,66.5,150.3,46.7,250c-18.6,93.8-66.3,174.8-132.7,236.6
				c-49.8,46.3-229,109-427.6,71.5c-70.1-13.2-134.9-40.5-189.9-72.5c245,40.9,463.6-36.4,525.3-93.8
				c84.2-78.3,144.8-181.2,168.4-300.3C1682.3,431.5,1685.5,400.9,1685.9,370.1z"/>
		</g>
		<path class="st2" d="M1734.9,409.5c-4.5,0-8.8-2-11.7-5.5l-1.3-1.5l-0.9-2C1663,272,1520.6,176.7,1330.2,139
			c-191.5-38-359.8-2.1-461.7,98.4l-1.2,1c-6.4,5.5-15.9,4.8-21.4-1.6s-4.8-15.9,1.6-21.4C956.7,108,1134.7,69.2,1336.1,109.2
			c199.8,39.6,350,141,412.2,278.1c3.9,7.4,1,16.6-6.4,20.5C1739.8,408.9,1737.3,409.5,1734.9,409.5L1734.9,409.5z"/>
		<g class="st13">
			<path class="st7" d="M857.5,600.1c0,0-28.3-260.1,123-331.6s341.2-33.4,334.3-22.1c0,0-220.3,9.2-335.5,159.1
				C890.5,521.1,857.5,600.1,857.5,600.1z"/>
		</g>
		<circle class="st2" cx="1614.4" cy="2090.2" r="12.1"/>
		<g class="st8">
			<path class="st2" d="M1348,1536.3c0,0,168.2-58.6,307.3,82.8c127.8,129.9-21.6,258.1-21.6,258.1s46,177.1-73.5,199.8
				c-101.5,19.3-193.2-78.8-181.4-200.1c9.6-99.8,31.6-90.5,23.5-145.2c-9.1-62-141.2-75.9-141.2-75.9h-49.7
				c0,0-132.1,14-141.2,75.9c-8.1,54.7,13.8,45.4,23.5,145.2c11.7,121.3-80,219.4-181.4,200.1c-119.6-22.7-73.5-199.8-73.5-199.8
				S689.1,1749,817,1619.1c139.1-141.4,307.3-82.8,307.3-82.8H1348z"/>
		</g>
		<path class="st7" d="M1371.7,1485.1c0,0,203.7-118.8,372.3,52.6c154.9,157.4-26.2,312.8-26.2,312.8s55.8,214.5-89.1,242.1
			c-123,23.4-234.1-95.5-219.9-242.5c11.7-120.9,38.2-109.6,28.4-176c-11.1-75.1-171.1-92-171.1-92H1206c0,0-160,16.9-171.1,92
			c-9.8,66.3,16.8,55,28.4,176c14.2,147-96.9,265.9-219.9,242.5c-144.9-27.5-89.1-242.1-89.1-242.1s-181.1-155.3-26.2-312.8
			c168.6-171.3,372.3-52.6,372.3-52.6"/>
		<g class="st10">
			<path class="st2" d="M1707,2044.7c-14.9,22.4-39.4,40.4-78.2,47.8c-123,23.4-234.1-95.5-219.9-242.5
				c11.7-120.9,38.2-109.7,28.4-175.9c-11.1-75.1-171.1-92-171.1-92H1206c0,0-160,16.9-171.1,92c-9.8,66.3,16.8,55,28.4,175.9
				c14.2,147-96.9,265.9-219.9,242.5c-38.8-7.4-63.3-25.4-78.2-47.8c1.1,0.2,2.1,0.4,3.2,0.6c146.5,25.3,278.8-100.1,261.9-259.4
				c-14-130.9-45.6-118.7-33.9-190.6c13.2-81.3,203.8-99.6,203.8-99.6h71.7c0,0,190.6,18.3,203.8,99.6c11.6,71.8-20,59.6-33.9,190.6
				c-16.9,159.2,115.4,284.7,261.9,259.4C1704.8,2045.1,1705.9,2044.9,1707,2044.7z"/>
		</g>
		<path class="st2" d="M1369,1480.6c27.2-18.7,57.4-31.3,89.2-40c16-4.3,32.2-7.4,48.7-9.2c16.6-1.6,33.3-1.9,49.9-1
			c16.7,0.9,33.3,3.8,49.7,7.5s32.2,9.6,47.8,16c30.7,13.8,58.8,32.7,83.7,54.8c24.6,21.9,46.9,48.2,62.9,78.5
			c7.9,15.4,13.8,31.7,17.7,48.6c3.5,17,4.7,34.5,3.4,51.8c-2.5,34.6-14.4,67.5-31.1,96.5c-8.3,14.5-17.8,28.3-28.2,41.3
			c-5.2,6.5-10.6,12.8-16.3,18.9c-2.8,3.1-5.7,6.1-8.7,9s-5.9,5.7-9.5,8.9l5-15.9c2.9,11.8,4.8,22.6,6.6,34s2.9,22.6,3.7,34
			c1.7,23.1,0.9,46.3-2.4,69.2c-1.8,11.7-4.6,23.3-8.3,34.6c-3.9,11.6-9.2,22.7-15.5,33.2c-6.8,10.6-15.1,20.2-24.6,28.4
			c-9.7,8-20.6,14.6-32.2,19.6c-11.4,4.5-23.3,7.7-35.4,9.5c-5.9,1.1-11.9,1.4-17.9,1.9c-6,0.1-12.1,0.4-18.1-0.1
			c-12-0.5-24-2.3-35.6-5.4c-11.6-2.9-23-7-33.8-12.2c-43.4-20.6-77.5-56.7-99-98.3c-21.5-41.8-30.8-89.3-28-135.7
			c0.7-11.8,2.1-22.7,3.4-33.9l2.4-16.8l3-16.8c2.3-11.2,4.8-22.4,8.1-33.4c3.1-11,7.1-21.8,10-31.5c2.9-9,4.4-18.4,4.3-27.9
			c0-2.4,0-4.9-0.3-7.3c-0.2-2.5-0.3-4.9-0.7-7.5l-0.9-7.6c-0.5-2-0.7-3.9-1.3-5.8c-4.5-15.1-19-28.4-36.3-38.1
			c-17.4-9.9-37.2-17-57.5-22.7c-20.3-5.6-41.1-9.7-62-12.3l1.7,0.1H1206l1.7-0.1c-21,2.6-41.7,6.7-62.1,12.3
			c-20.3,5.6-40.1,12.8-57.5,22.7c-17.4,9.7-31.8,23-36.3,38.1c-0.6,1.9-0.8,3.8-1.3,5.8l-0.9,7.6c-0.4,2.6-0.5,5-0.6,7.5
			c-0.2,2.4-0.3,4.9-0.3,7.3c-0.1,9.5,1.4,18.9,4.3,27.9c2.9,9.7,6.9,20.5,10,31.5c3.3,11,5.8,22.2,8.1,33.4l3,16.8l2.4,16.8
			c1.3,11.2,2.7,22.1,3.4,33.9c2.8,46.4-6.5,93.9-28,135.7c-21.5,41.6-55.6,77.7-99,98.3c-10.8,5.2-22.1,9.4-33.8,12.3
			c-11.7,3.1-23.6,4.9-35.6,5.4c-6,0.5-12,0.1-18.1,0.1c-6-0.6-12-0.8-17.9-1.9c-12.1-1.8-24-5-35.4-9.5
			c-11.6-4.9-22.5-11.5-32.2-19.6c-9.5-8.3-17.8-17.8-24.6-28.4c-6.4-10.5-11.6-21.6-15.5-33.2c-3.7-11.3-6.5-22.9-8.3-34.6
			c-3.3-22.9-4.1-46.1-2.4-69.2c0.8-11.4,2-22.7,3.7-34c1.7-11.4,3.7-22.2,6.5-34l5,15.9c-3.6-3.2-6.4-5.9-9.5-8.9s-5.9-6-8.7-9
			c-5.7-6.1-11.1-12.4-16.3-18.9c-10.5-13-19.9-26.8-28.2-41.3c-16.6-29-28.6-61.9-31-96.5c-1.2-17.3,0-34.8,3.5-51.8
			c3.9-16.8,9.9-33.1,17.8-48.5c16.2-30.2,38.5-56.2,63.3-77.9c24.8-22,52.6-41.2,83.2-54.9c30.5-14,63.5-23,97-25.4
			c16.7-1.1,33.5-0.9,50.1,0.6c16.5,1.7,32.9,4.7,48.9,8.9c15.9,4.3,31.4,10,46.4,16.8c14.9,7,29.2,14.8,42.4,25
			c2.3,1.8,2.8,5.1,1,7.4c-1.4,1.9-3.8,2.6-6,1.8l-0.3-0.1c-29.2-10.1-59.2-17.8-89.6-22.8c-15-2.5-30.2-3.9-45.2-4.8
			c-7.5-0.1-15.1-0.5-22.6-0.2c-3.8,0.1-7.5,0.1-11.2,0.3l-11.2,0.8c-29.8,2.4-59.1,9.6-86.6,21.4c-13.8,5.9-27,13.1-39.6,21.3
			c-12.7,8.2-24.7,17.4-35.9,27.5c-23,20.1-42.4,43.2-56.3,69c-6.6,12.9-11.7,26.5-15,40.6c-3,14.1-3.9,28.5-2.9,42.9
			c2,28.8,12.1,57.2,26.9,83.1c7.5,13,16,25.5,25.4,37.2c4.8,5.9,9.6,11.6,14.8,17.1c2.6,2.8,5.2,5.5,7.8,8.1s5.5,5.3,7.8,7.4
			l7.3,6.4l-2.3,9.5c-2.3,9.6-4.3,20.4-5.9,30.7s-2.7,21-3.4,31.5c-1.6,20.8-0.9,41.7,2.1,62.3c1.6,10,3.9,19.8,7,29.4
			c3.2,9.2,7.3,18.1,12.3,26.4c5.1,7.9,11.3,15,18.3,21.2c7.3,5.9,15.3,10.8,23.9,14.5c9,3.6,18.5,6.1,28.1,7.5
			c4.9,0.9,9.9,1.1,14.8,1.6c5,0,9.9,0.4,14.9-0.1c9.9-0.4,19.8-1.9,29.4-4.5c9.7-2.4,19.1-5.8,28.1-10.2
			c36.2-17.2,65.8-48.1,84.6-84.4c18.7-36.4,27-78.2,24.5-119.4c-0.5-10.1-2-21.1-3.2-31.7l-2.3-15.8l-2.8-15.7
			c-2.2-10.3-4.4-20.6-7.4-30.6s-6.5-20-10-31.3c-3.8-12-5.7-24.4-5.6-37c-0.1-3.2,0.1-6.2,0.3-9.2s0.4-6.1,0.8-8.9l1.1-8.8
			c0.7-3.3,1.3-6.9,2.3-10.3c4.1-13.6,12.1-25.2,21.2-34.3s19.3-16.2,29.7-22.2c20.9-11.8,42.8-19.5,64.8-25.7
			c22-6.1,44.5-10.5,67.1-13.3l0.7-0.1h62.1l0.7,0.1c22.7,2.8,45.1,7.2,67.1,13.3c22,6.1,43.8,13.9,64.8,25.7
			c10.4,6,20.6,13,29.7,22.2s17,20.7,21.2,34.3c1,3.3,1.6,6.9,2.3,10.3l1.1,8.8c0.4,2.9,0.6,5.9,0.8,8.9s0.4,6,0.3,9.2
			c0.1,12.6-1.8,25-5.6,37c-3.5,11.3-7.1,21.2-10,31.3s-5.3,20.3-7.4,30.6l-2.8,15.7l-2.3,15.8c-1.2,10.6-2.6,21.6-3.2,31.7
			c-2.5,41.2,5.8,83,24.5,119.4c18.7,36.3,48.3,67.2,84.6,84.4c9,4.3,18.4,7.8,28.1,10.2c9.6,2.5,19.5,4,29.4,4.4
			c4.9,0.4,9.9,0.1,14.9,0.1c5-0.5,9.9-0.7,14.8-1.6c9.6-1.4,19-3.9,28-7.5c8.6-3.7,16.7-8.6,23.9-14.5c7.1-6.2,13.2-13.4,18.3-21.2
			c5-8.3,9.2-17.2,12.3-26.4c3.1-9.6,5.5-19.4,7-29.4c2.9-20.6,3.6-41.5,2.1-62.3c-0.7-10.5-1.8-21-3.4-31.5s-3.5-21.1-5.9-30.7
			l-2.3-9.5l7.3-6.4c2.3-2,5.2-4.8,7.8-7.4s5.3-5.3,7.8-8.1c5.2-5.5,10-11.3,14.8-17.1c9.4-11.7,17.9-24.2,25.4-37.2
			c14.8-25.9,25-54.3,26.9-83.1c1-14.3-0.1-28.7-3.1-42.8c-3.4-14.1-8.4-27.6-15.1-40.4c-14-25.6-33.7-48.4-56.6-68.4
			c-22.4-20-47.7-36.5-75-49.1c-27.3-12.3-56.5-20-86.3-23c-29.9-3.1-60.4-1.7-90.7,3.2c-30.5,5-60.5,13.2-89.2,24.6l-0.4,0.1
			c-2.7,1.1-5.8-0.2-6.8-2.9C1366.1,1484.6,1366.9,1482,1369,1480.6L1369,1480.6z"/>
		<path class="st2" d="M1723.8,1865.1l-10.8,3.4c-4,1.1-8,2.2-12.1,2.9c-8,1.6-16.1,2.5-24.3,2.8c-15.8,0.4-31.5-1.2-46.9-4.6
			c-14.9-3.5-29.4-8.2-43.5-14.2c-7-2.8-13.7-6.3-20.5-9.4c-6.7-3.5-13.2-7.1-19.8-10.7c7.1,2.3,14.1,4.8,21.2,7
			c7.2,1.8,14.2,4.1,21.5,5.6c14.2,3.2,28.7,5.3,43.2,6.1c14.1,0.6,28.2-0.5,42.1-3.3c6.6-1.4,13.2-3.3,19.5-5.8
			c3.1-1.2,6.1-2.6,9.1-4l9.8-5.1c7.9-3.7,17.4-0.3,21.1,7.6c3.5,7.4,0.7,16.3-6.3,20.4c-0.8,0.4-1.6,0.8-2.5,1.1L1723.8,1865.1z"/>
		<path class="st2" d="M761.6,1835.8l9.8,5.1c3,1.4,6,2.8,9.1,4c6.3,2.5,12.8,4.4,19.5,5.8c13.8,2.8,28,3.9,42,3.3
			c14.6-0.8,29-2.9,43.2-6.1c7.2-1.4,14.3-3.7,21.5-5.6c7.1-2.2,14.1-4.7,21.2-7c-6.5,3.5-13.1,7.2-19.8,10.7
			c-6.8,3.1-13.5,6.7-20.5,9.4c-14.1,5.9-28.7,10.7-43.5,14.2c-15.4,3.4-31.2,5-46.9,4.6c-8.1-0.2-16.3-1.2-24.3-2.8
			c-4.1-0.8-8.1-1.8-12.1-2.9l-10.8-3.4l-0.6-0.2c-8.3-2.7-12.9-11.6-10.2-20c2.7-8.3,11.5-12.8,19.8-10.2
			C759.9,1835,760.8,1835.4,761.6,1835.8z"/>
		<path class="st2" d="M1799.6,1735.7c-6.5,0-11.8-5.3-11.8-11.9c0-0.8,0.1-1.6,0.3-2.4c5.4-25.4,1.5-43.4-12.1-55.1
			c-56.4-48.4-259,13.4-332.3,41.3c-6.1,2.3-12.9-0.7-15.2-6.8s0.7-12.9,6.8-15.2l0,0c28.3-10.8,278.9-103.4,356.1-37.2
			c20.5,17.6,27.2,43.8,19.8,78C1810,1731.8,1805.1,1735.7,1799.6,1735.7z"/>
		<path class="st2" d="M677.4,1735.7c-5.6,0-10.4-3.9-11.5-9.3c-7.3-34.2-0.6-60.4,19.8-78c77.2-66.2,327.8,26.4,356.1,37.2
			c6.1,2.3,9.2,9.1,6.8,15.2s-9.1,9.2-15.2,6.8l0,0c-73.3-27.9-276-89.7-332.3-41.3c-13.6,11.7-17.6,29.7-12.1,55.1
			c1.3,6.4-2.8,12.7-9.2,14C679.1,1735.6,678.2,1735.7,677.4,1735.7L677.4,1735.7z"/>
	</g>
</g>
</svg>
