<svg xmlns="http://www.w3.org/2000/svg" xmlns:xlink="http://www.w3.org/1999/xlink" viewBox="0 0 2576.56 2897.86"><defs><style>.cls-1{fill:none;}.cls-2{fill:#371a45;}.cls-3{fill:#fff;}.cls-4{opacity:0.35;}.cls-5{clip-path:url(#clip-path);}.cls-6{fill:#ec1c24;}.cls-7{fill:#ec1d24;}.cls-8{fill:#ec1e24;}.cls-9{fill:#ec1f24;}.cls-10{fill:#ec2024;}.cls-11{fill:#ed2124;}.cls-12{fill:#ed2224;}.cls-13{fill:#ed2324;}.cls-14{fill:#ed2424;}.cls-15{fill:#ed2524;}.cls-16{fill:#ed2624;}.cls-17{fill:#ed2724;}.cls-18{fill:#ed2824;}.cls-19{fill:#ed2924;}.cls-20{fill:#ed2a24;}.cls-21{fill:#ee2a24;}.cls-22{fill:#ee2b24;}.cls-23{fill:#ee2c24;}.cls-24{fill:#ee2d24;}.cls-25{fill:#ee2e24;}.cls-26{fill:#ee2f24;}.cls-27{fill:#ee3024;}.cls-28{fill:#ee3124;}.cls-29{fill:#ee3224;}.cls-30{fill:#ee3225;}.cls-31{fill:#ef3325;}.cls-32{fill:#ef3425;}.cls-33{fill:#ef3525;}.cls-34{fill:#ef3625;}.cls-35{fill:#ef3725;}.cls-36{fill:#ef3825;}.cls-37{fill:#ef3925;}.cls-38{fill:#ef3a25;}.cls-39{fill:#ef3b25;}.cls-40{fill:#ef3c25;}.cls-41{fill:#f03d25;}.cls-42{fill:#f03e25;}.cls-43{fill:#f03f25;}.cls-44{fill:#f04025;}.cls-45{fill:#f04125;}.cls-46{fill:#f04225;}.cls-47{fill:#f04325;}.cls-48{fill:#f04425;}.cls-49{fill:#f04525;}.cls-50{fill:#f14625;}.cls-51{fill:#f14725;}.cls-52{fill:#f14825;}.cls-53{fill:#f14925;}.cls-54{fill:#f14a25;}.cls-55{fill:#f14b25;}.cls-56{fill:#f14c25;}.cls-57{fill:#f14d25;}.cls-58{fill:#f14e25;}.cls-59{fill:#f24f25;}.cls-60{fill:#f25025;}.cls-61{fill:#f25125;}.cls-62{fill:#f25225;}.cls-63{fill:#f25325;}.cls-64{fill:#f25425;}.cls-65{fill:#f25525;}.cls-66{fill:#f25625;}.cls-67{fill:#f25725;}.cls-68{fill:#f35825;}.cls-69{fill:#f35925;}.cls-70{fill:#f35a25;}.cls-71{fill:#f35c25;}.cls-72{fill:#f35d25;}.cls-73{fill:#f35e26;}.cls-74{fill:#f35f26;}.cls-75{fill:#f36026;}.cls-76{fill:#f46126;}.cls-77{fill:#f46226;}.cls-78{fill:#f46426;}.cls-79{fill:#f46526;}.cls-80{fill:#f46626;}.cls-81{fill:#f46726;}.cls-82{fill:#f46826;}.cls-83{fill:#f46a26;}.cls-84{fill:#f56b26;}.cls-85{fill:#f56c26;}.cls-86{fill:#f56d26;}.cls-87{fill:#f56f26;}.cls-88{fill:#f57026;}.cls-89{fill:#f57126;}.cls-90{fill:#f57226;}.cls-91{fill:#f67426;}.cls-92{fill:#f67526;}.cls-93{fill:#f67626;}.cls-94{fill:#f67726;}.cls-95{fill:#f67926;}.cls-96{fill:#f67a26;}.cls-97{fill:#f67b26;}.cls-98{fill:#f77d26;}.cls-99{fill:#f77e26;}.cls-100{fill:#f77f26;}.cls-101{fill:#f78126;}.cls-102{fill:#f78226;}.cls-103{fill:#f78426;}.cls-104{fill:#f78526;}.cls-105{fill:#f88626;}.cls-106{fill:#f88826;}.cls-107{fill:#f88927;}.cls-108{fill:#f88a27;}.cls-109{fill:#f88c27;}.cls-110{fill:#f88d27;}.cls-111{fill:#f98f27;}.cls-112{fill:#f99027;}.cls-113{fill:#f99227;}.cls-114{fill:#f99327;}.cls-115{fill:#f99427;}.cls-116{fill:#f99627;}.cls-117{fill:#f99727;}.cls-118{fill:#fa9927;}.cls-119{fill:#fa9a27;}.cls-120{fill:#fa9c27;}.cls-121{fill:#fa9d27;}.cls-122{fill:#fa9f27;}.cls-123{fill:#faa027;}.cls-124{fill:#fba227;}.cls-125{fill:#fba327;}.cls-126{fill:#fba527;}.cls-127{fill:#fba627;}.cls-128{fill:#fba827;}.cls-129{fill:#fbaa27;}.cls-130{fill:#fcab27;}.cls-131{fill:#fcad27;}.cls-132{fill:#fcae27;}.cls-133{fill:#fcb027;}.cls-134{fill:#fcb127;}.cls-135{fill:#fcb327;}.cls-136{fill:#fdb528;}.cls-137{fill:#fdb628;}.cls-138{fill:#fdb828;}.cls-139{fill:#fdb928;}.cls-140{fill:#fdbb28;}.cls-141{fill:#febd28;}.cls-142{fill:#febe28;}.cls-143{fill:#fec028;}.cls-144{fill:#fec228;}.cls-145{fill:#fec328;}.cls-146{fill:#fec528;}.cls-147{fill:#ffc728;}.cls-148{fill:#ffc828;}.cls-149{fill:#ffca28;}.cls-150{opacity:0.5;}.cls-151{opacity:0.3;}.cls-152{fill:#ffd553;}.cls-153{opacity:0.25;}.cls-154{fill:#0af;}.cls-155{opacity:0.6;}.cls-156{fill:#d25658;}.cls-157{fill:#6bd6f0;}.cls-158{opacity:0.2;}.cls-159{opacity:0.7;}.cls-160{fill:#111a28;}.cls-161{fill:#22a7f0;}</style><clipPath id="clip-path"><path class="cls-1" d="M25.27,2710c304.24-132,401.76,78.57,594.7-5.16s143.35-307.35,143.35-307.35-129.47-189-322.4-105.22S329.51,2578,25.27,2710Z"/></clipPath></defs><g id="Capa_2" data-name="Capa 2"><g id="Layer_1" data-name="Layer 1"><g id="rightArm"><path class="cls-2" d="M2105.78,727.38c.9,29.66,6.82,56.91,11.52,86.55C2086,798,2073,758.48,2075.86,725.18,2078.5,706.72,2105.49,709.12,2105.78,727.38Z"/><path class="cls-3" d="M2281.66,885.68c-30.72,104.8-264,298.87-598.73,308.57a901.4,901.4,0,0,1-99.87-2.55l-29.87-127.57L1529.29,962s52-9.47,123-28.35c56.14-14.86,124.16-35.6,187.92-62.1,60.11-25,116.48-55.15,155.39-90.41,0,0,2.13-105,31.91-115.69,36.35-13.06,63.28,60.78,63.28,60.78C2216.14,583.13,2340.82,653.84,2281.66,885.68Z"/><g class="cls-4"><path class="cls-2" d="M2296.72,800a377.44,377.44,0,0,1-15.06,85.67c-33.7,114.93-311,337.26-698.6,306L1529.29,962s16.14-2.93,42.69-8.8L1634.82,1075C1955,1171.41,2244.13,918.25,2296.72,800Z"/></g><path class="cls-2" d="M1967.4,1154.9c-94.21-34.39-97.54-278.34-99-303.12-.26-21.76,32.94-22.49,33.42-.55,1.09,64.84,16.46,240.17,73.81,272.38C1990.57,1131.3,1983.93,1155.56,1967.4,1154.9Z"/><path class="cls-2" d="M1656.58,1213.61q-36.82,0-75-3a18.93,18.93,0,1,1,3-37.74c382.25,30.79,649.13-191.07,678.9-292.51,22.16-84.65,28.42-190.11-45-212.23-34.82-4.61-102.91,57.57-135.17,93L2073,732.77c-8.33-22.67-27.46-53-38.8-49.57-9.39,6.7-18.75,53.34-19.69,98.34l-.17,8.16-6,5.48c-134.86,122.14-461.77,183-475.62,185.48a18.93,18.93,0,0,1-6.8-37.25c3.24-.59,320.19-59.55,451-171,1.49-38.83,9-112,44.2-124.69,35.71-12.87,61.7,20.71,75.77,46.5,162.89-160.08,259.9,15.18,203,196.82C2265.48,1008.07,2012.23,1213.59,1656.58,1213.61Z"/></g><g class="cls-5"><polygon class="cls-6" points="25.27 2710.04 67.04 2788.61 25.27 2788.61 25.27 2710.04"/><polygon class="cls-6" points="25.27 2700.27 72.24 2788.61 67.04 2788.61 25.27 2710.04 25.27 2700.27"/><polygon class="cls-6" points="25.27 2690.5 77.44 2788.61 72.24 2788.61 25.27 2700.27 25.27 2690.5"/><polygon class="cls-6" points="25.27 2680.73 82.63 2788.61 77.44 2788.61 25.27 2690.5 25.27 2680.73"/><polygon class="cls-6" points="25.27 2670.95 87.83 2788.61 82.63 2788.61 25.27 2680.73 25.27 2670.95"/><polygon class="cls-6" points="25.27 2661.18 93.03 2788.61 87.83 2788.61 25.27 2670.95 25.27 2661.18"/><polygon class="cls-6" points="25.27 2651.41 98.22 2788.61 93.03 2788.61 25.27 2661.18 25.27 2651.41"/><polygon class="cls-7" points="25.27 2641.64 103.42 2788.61 98.22 2788.61 25.27 2651.41 25.27 2641.64"/><polygon class="cls-7" points="25.27 2631.86 108.62 2788.61 103.42 2788.61 25.27 2641.64 25.27 2631.86"/><polygon class="cls-7" points="25.27 2622.09 113.81 2788.61 108.62 2788.61 25.27 2631.86 25.27 2622.09"/><polygon class="cls-7" points="25.27 2612.32 119.01 2788.61 113.81 2788.61 25.27 2622.09 25.27 2612.32"/><polygon class="cls-7" points="25.27 2602.54 124.21 2788.61 119.01 2788.61 25.27 2612.32 25.27 2602.54"/><polygon class="cls-8" points="25.27 2592.77 129.4 2788.61 124.21 2788.61 25.27 2602.54 25.27 2592.77"/><polygon class="cls-8" points="25.27 2583 134.6 2788.61 129.4 2788.61 25.27 2592.77 25.27 2583"/><polygon class="cls-8" points="25.27 2573.23 139.8 2788.61 134.6 2788.61 25.27 2583 25.27 2573.23"/><polygon class="cls-9" points="25.27 2563.45 144.99 2788.61 139.8 2788.61 25.27 2573.23 25.27 2563.45"/><polygon class="cls-9" points="25.27 2553.68 150.19 2788.61 144.99 2788.61 25.27 2563.45 25.27 2553.68"/><polygon class="cls-9" points="25.27 2543.91 155.39 2788.61 150.19 2788.61 25.27 2553.68 25.27 2543.91"/><polygon class="cls-10" points="25.27 2534.14 160.58 2788.61 155.39 2788.61 25.27 2543.91 25.27 2534.14"/><polygon class="cls-10" points="25.27 2524.36 165.78 2788.61 160.58 2788.61 25.27 2534.14 25.27 2524.36"/><polygon class="cls-10" points="25.27 2514.59 170.98 2788.61 165.78 2788.61 25.27 2524.36 25.27 2514.59"/><polygon class="cls-11" points="25.27 2504.82 176.17 2788.61 170.98 2788.61 25.27 2514.59 25.27 2504.82"/><polygon class="cls-11" points="25.27 2495.04 181.37 2788.61 176.17 2788.61 25.27 2504.82 25.27 2495.04"/><polygon class="cls-11" points="25.27 2485.27 186.57 2788.61 181.37 2788.61 25.27 2495.04 25.27 2485.27"/><polygon class="cls-12" points="25.27 2483.14 28.43 2481.46 191.76 2788.61 186.57 2788.61 25.27 2485.27 25.27 2483.14"/><polygon class="cls-12" points="28.43 2481.46 32.49 2479.3 196.96 2788.61 191.76 2788.61 28.43 2481.46"/><polygon class="cls-13" points="32.49 2479.3 36.54 2477.15 202.16 2788.61 196.96 2788.61 32.49 2479.3"/><polygon class="cls-13" points="36.54 2477.15 40.59 2475 207.35 2788.61 202.16 2788.61 36.54 2477.15"/><polygon class="cls-14" points="40.59 2475 44.64 2472.84 212.55 2788.61 207.35 2788.61 40.59 2475"/><polygon class="cls-14" points="44.64 2472.84 48.69 2470.69 217.75 2788.61 212.55 2788.61 44.64 2472.84"/><polygon class="cls-15" points="48.69 2470.69 52.74 2468.53 222.94 2788.61 217.75 2788.61 48.69 2470.69"/><polygon class="cls-15" points="52.74 2468.53 56.79 2466.38 228.14 2788.61 222.94 2788.61 52.74 2468.53"/><polygon class="cls-16" points="56.79 2466.38 60.84 2464.22 233.34 2788.61 228.14 2788.61 56.79 2466.38"/><polygon class="cls-16" points="60.84 2464.22 64.9 2462.07 238.53 2788.61 233.34 2788.61 60.84 2464.22"/><polygon class="cls-17" points="64.9 2462.07 68.95 2459.92 243.73 2788.61 238.53 2788.61 64.9 2462.07"/><polygon class="cls-17" points="68.95 2459.92 73 2457.76 248.93 2788.61 243.73 2788.61 68.95 2459.92"/><polygon class="cls-18" points="73 2457.76 77.05 2455.61 254.13 2788.61 248.93 2788.61 73 2457.76"/><polygon class="cls-18" points="77.05 2455.61 81.1 2453.45 259.32 2788.61 254.13 2788.61 77.05 2455.61"/><polygon class="cls-19" points="81.1 2453.45 85.15 2451.3 264.52 2788.61 259.32 2788.61 81.1 2453.45"/><polygon class="cls-20" points="85.15 2451.3 89.2 2449.14 269.71 2788.61 264.52 2788.61 85.15 2451.3"/><polygon class="cls-21" points="89.2 2449.14 93.25 2446.99 274.91 2788.61 269.71 2788.61 89.2 2449.14"/><polygon class="cls-22" points="93.25 2446.99 97.31 2444.84 280.11 2788.61 274.91 2788.61 93.25 2446.99"/><polygon class="cls-22" points="97.31 2444.84 101.36 2442.68 285.31 2788.61 280.11 2788.61 97.31 2444.84"/><polygon class="cls-23" points="101.36 2442.68 105.41 2440.53 290.5 2788.61 285.31 2788.61 101.36 2442.68"/><polygon class="cls-24" points="105.41 2440.53 109.46 2438.37 295.7 2788.61 290.5 2788.61 105.41 2440.53"/><polygon class="cls-24" points="109.46 2438.37 113.51 2436.22 300.89 2788.61 295.7 2788.61 109.46 2438.37"/><polygon class="cls-25" points="113.51 2436.22 117.56 2434.07 306.09 2788.61 300.89 2788.61 113.51 2436.22"/><polygon class="cls-26" points="117.56 2434.07 121.61 2431.91 311.29 2788.61 306.09 2788.61 117.56 2434.07"/><polygon class="cls-26" points="121.61 2431.91 125.66 2429.76 316.49 2788.61 311.29 2788.61 121.61 2431.91"/><polygon class="cls-27" points="125.66 2429.76 129.72 2427.6 321.68 2788.61 316.49 2788.61 125.66 2429.76"/><polygon class="cls-28" points="129.72 2427.6 133.77 2425.45 326.88 2788.61 321.68 2788.61 129.72 2427.6"/><polygon class="cls-29" points="133.77 2425.45 137.82 2423.29 332.08 2788.61 326.88 2788.61 133.77 2425.45"/><polygon class="cls-30" points="137.82 2423.29 141.87 2421.14 337.27 2788.61 332.08 2788.61 137.82 2423.29"/><polygon class="cls-31" points="141.87 2421.14 145.92 2418.99 342.47 2788.61 337.27 2788.61 141.87 2421.14"/><polygon class="cls-32" points="145.92 2418.99 149.97 2416.83 347.67 2788.61 342.47 2788.61 145.92 2418.99"/><polygon class="cls-33" points="149.97 2416.83 154.02 2414.68 352.86 2788.61 347.67 2788.61 149.97 2416.83"/><polygon class="cls-33" points="154.02 2414.68 158.07 2412.52 358.06 2788.61 352.86 2788.61 154.02 2414.68"/><polygon class="cls-34" points="158.07 2412.52 162.13 2410.37 363.26 2788.61 358.06 2788.61 158.07 2412.52"/><polygon class="cls-35" points="162.13 2410.37 166.18 2408.21 368.45 2788.61 363.26 2788.61 162.13 2410.37"/><polygon class="cls-36" points="166.18 2408.21 170.23 2406.06 373.65 2788.61 368.45 2788.61 166.18 2408.21"/><polygon class="cls-37" points="170.23 2406.06 174.28 2403.91 378.85 2788.61 373.65 2788.61 170.23 2406.06"/><polygon class="cls-37" points="174.28 2403.91 178.33 2401.75 384.04 2788.61 378.85 2788.61 174.28 2403.91"/><polygon class="cls-38" points="178.33 2401.75 182.38 2399.6 389.24 2788.61 384.04 2788.61 178.33 2401.75"/><polygon class="cls-39" points="182.38 2399.6 186.43 2397.44 394.44 2788.61 389.24 2788.61 182.38 2399.6"/><polygon class="cls-40" points="186.43 2397.44 190.48 2395.29 399.63 2788.61 394.44 2788.61 186.43 2397.44"/><polygon class="cls-41" points="190.48 2395.29 194.53 2393.13 404.83 2788.61 399.63 2788.61 190.48 2395.29"/><polygon class="cls-42" points="194.53 2393.13 198.59 2390.98 410.03 2788.61 404.83 2788.61 194.53 2393.13"/><polygon class="cls-42" points="198.59 2390.98 202.64 2388.83 415.22 2788.61 410.03 2788.61 198.59 2390.98"/><polygon class="cls-43" points="202.64 2388.83 206.69 2386.67 420.42 2788.61 415.22 2788.61 202.64 2388.83"/><polygon class="cls-44" points="206.69 2386.67 210.74 2384.52 425.62 2788.61 420.42 2788.61 206.69 2386.67"/><polygon class="cls-45" points="210.74 2384.52 214.79 2382.36 430.81 2788.61 425.62 2788.61 210.74 2384.52"/><polygon class="cls-46" points="214.79 2382.36 218.84 2380.21 436.01 2788.61 430.81 2788.61 214.79 2382.36"/><polygon class="cls-47" points="218.84 2380.21 222.89 2378.05 441.21 2788.61 436.01 2788.61 218.84 2380.21"/><polygon class="cls-48" points="222.89 2378.05 226.94 2375.9 446.4 2788.61 441.21 2788.61 222.89 2378.05"/><polygon class="cls-49" points="226.94 2375.9 231 2373.75 451.6 2788.61 446.4 2788.61 226.94 2375.9"/><polygon class="cls-50" points="231 2373.75 235.05 2371.59 456.8 2788.61 451.6 2788.61 231 2373.75"/><polygon class="cls-51" points="235.05 2371.59 239.1 2369.44 462 2788.61 456.8 2788.61 235.05 2371.59"/><polygon class="cls-52" points="239.1 2369.44 243.15 2367.28 467.19 2788.61 462 2788.61 239.1 2369.44"/><polygon class="cls-53" points="243.15 2367.28 247.2 2365.13 472.39 2788.61 467.19 2788.61 243.15 2367.28"/><polygon class="cls-54" points="247.2 2365.13 251.25 2362.97 477.58 2788.61 472.39 2788.61 247.2 2365.13"/><polygon class="cls-55" points="251.25 2362.97 255.3 2360.82 482.78 2788.61 477.58 2788.61 251.25 2362.97"/><polygon class="cls-56" points="255.3 2360.82 259.35 2358.67 487.98 2788.61 482.78 2788.61 255.3 2360.82"/><polygon class="cls-57" points="259.35 2358.67 263.4 2356.51 493.18 2788.61 487.98 2788.61 259.35 2358.67"/><polygon class="cls-58" points="263.4 2356.51 267.46 2354.36 498.37 2788.61 493.18 2788.61 263.4 2356.51"/><polygon class="cls-59" points="267.46 2354.36 271.51 2352.2 503.57 2788.61 498.37 2788.61 267.46 2354.36"/><polygon class="cls-60" points="271.51 2352.2 275.56 2350.05 508.76 2788.61 503.57 2788.61 271.51 2352.2"/><polygon class="cls-61" points="275.56 2350.05 279.61 2347.89 513.96 2788.61 508.76 2788.61 275.56 2350.05"/><polygon class="cls-62" points="279.61 2347.89 283.66 2345.74 519.16 2788.61 513.96 2788.61 279.61 2347.89"/><polygon class="cls-63" points="283.66 2345.74 287.71 2343.59 523.24 2786.5 519.28 2788.61 519.16 2788.61 283.66 2345.74"/><rect class="cls-64" x="405.21" y="2313.15" width="4.59" height="501.64" transform="translate(-1156.07 491.47) rotate(-28)"/><rect class="cls-65" x="409.26" y="2310.99" width="4.59" height="501.64" transform="translate(-1154.62 493.15) rotate(-28)"/><rect class="cls-66" x="413.31" y="2308.84" width="4.59" height="501.64" transform="translate(-1153.09 494.77) rotate(-28)"/><rect class="cls-67" x="417.36" y="2306.68" width="4.59" height="501.64" transform="translate(-1151.64 496.45) rotate(-28)"/><rect class="cls-68" x="421.41" y="2304.53" width="4.59" height="501.64" transform="translate(-1150.17 498.1) rotate(-28)"/><rect class="cls-69" x="425.46" y="2302.37" width="4.59" height="501.64" transform="translate(-1148.66 499.74) rotate(-28)"/><rect class="cls-70" x="429.51" y="2300.22" width="4.59" height="501.64" transform="translate(-1147.19 501.4) rotate(-28)"/><rect class="cls-71" x="433.56" y="2298.07" width="4.59" height="501.64" transform="translate(-1145.67 503.02) rotate(-28)"/><rect class="cls-72" x="437.62" y="2295.91" width="4.59" height="501.64" transform="translate(-1144.22 504.7) rotate(-28)"/><rect class="cls-73" x="441.67" y="2293.76" width="4.59" height="501.64" transform="translate(-1142.73 506.35) rotate(-28)"/><rect class="cls-74" x="445.72" y="2291.6" width="4.59" height="501.64" transform="translate(-1141.21 507.97) rotate(-28)"/><rect class="cls-75" x="449.77" y="2289.45" width="4.59" height="501.64" transform="translate(-1139.76 509.65) rotate(-28)"/><rect class="cls-76" x="453.82" y="2287.29" width="4.59" height="501.64" transform="translate(-1138.23 511.26) rotate(-28)"/><rect class="cls-77" x="457.87" y="2285.14" width="4.59" height="501.64" transform="translate(-1136.79 512.95) rotate(-28)"/><rect class="cls-78" x="461.92" y="2282.99" width="4.59" height="501.64" transform="translate(-1135.31 514.6) rotate(-28)"/><rect class="cls-79" x="465.97" y="2280.83" width="4.59" height="501.64" transform="translate(-1133.78 516.22) rotate(-28)"/><rect class="cls-80" x="470.02" y="2278.68" width="4.59" height="501.64" transform="translate(-1132.33 517.9) rotate(-28)"/><rect class="cls-81" x="474.08" y="2276.52" width="4.59" height="501.64" transform="translate(-1130.81 519.52) rotate(-28)"/><rect class="cls-82" x="478.13" y="2274.37" width="4.59" height="501.64" transform="translate(-1129.36 521.2) rotate(-28)"/><rect class="cls-83" x="482.18" y="2272.21" width="4.59" height="501.64" transform="translate(-1127.88 522.85) rotate(-28)"/><rect class="cls-84" x="486.23" y="2270.06" width="4.59" height="501.64" transform="translate(-1126.35 524.47) rotate(-28)"/><rect class="cls-85" x="490.28" y="2267.91" width="4.59" height="501.64" transform="translate(-1124.91 526.15) rotate(-28)"/><rect class="cls-86" x="494.33" y="2265.75" width="4.59" height="501.64" transform="translate(-1123.38 527.77) rotate(-28)"/><rect class="cls-87" x="498.38" y="2263.6" width="4.59" height="501.64" transform="translate(-1121.93 529.45) rotate(-28)"/><rect class="cls-88" x="502.43" y="2261.44" width="4.59" height="501.64" transform="translate(-1120.45 531.1) rotate(-28)"/><rect class="cls-89" x="506.49" y="2259.29" width="4.59" height="501.64" transform="translate(-1118.92 532.72) rotate(-28)"/><rect class="cls-90" x="510.54" y="2257.13" width="4.59" height="501.64" transform="translate(-1117.48 534.4) rotate(-28)"/><rect class="cls-91" x="514.59" y="2254.98" width="4.59" height="501.64" transform="translate(-1115.95 536.02) rotate(-28)"/><rect class="cls-92" x="518.64" y="2252.83" width="4.59" height="501.64" transform="translate(-1114.51 537.7) rotate(-28)"/><rect class="cls-93" x="522.69" y="2250.67" width="4.59" height="501.64" transform="translate(-1113.02 539.35) rotate(-28)"/><rect class="cls-94" x="526.74" y="2248.52" width="4.59" height="501.64" transform="translate(-1111.5 540.96) rotate(-28)"/><rect class="cls-95" x="530.79" y="2246.36" width="4.59" height="501.64" transform="translate(-1110.05 542.65) rotate(-28)"/><rect class="cls-96" x="534.84" y="2244.21" width="4.59" height="501.64" transform="translate(-1108.52 544.26) rotate(-28)"/><rect class="cls-97" x="538.9" y="2242.05" width="4.59" height="501.64" transform="translate(-1107.08 545.95) rotate(-28)"/><rect class="cls-98" x="542.95" y="2239.9" width="4.59" height="501.64" transform="translate(-1105.59 547.6) rotate(-28)"/><rect class="cls-99" x="547" y="2237.75" width="4.59" height="501.64" transform="translate(-1104.07 549.21) rotate(-28)"/><rect class="cls-100" x="551.05" y="2235.59" width="4.59" height="501.64" transform="translate(-1102.62 550.9) rotate(-28)"/><rect class="cls-101" x="555.1" y="2233.44" width="4.59" height="501.64" transform="translate(-1101.1 552.51) rotate(-28)"/><rect class="cls-102" x="559.15" y="2231.28" width="4.59" height="501.64" transform="translate(-1099.65 554.2) rotate(-28)"/><rect class="cls-103" x="563.2" y="2229.13" width="4.59" height="501.64" transform="translate(-1098.16 555.85) rotate(-28)"/><rect class="cls-104" x="567.25" y="2226.98" width="4.59" height="501.64" transform="translate(-1096.64 557.46) rotate(-28)"/><rect class="cls-105" x="571.3" y="2224.82" width="4.59" height="501.64" transform="translate(-1095.19 559.15) rotate(-28)"/><rect class="cls-106" x="575.36" y="2222.67" width="4.59" height="501.64" transform="translate(-1093.67 560.76) rotate(-28)"/><rect class="cls-107" x="579.41" y="2220.51" width="4.59" height="501.64" transform="translate(-1092.22 562.44) rotate(-28)"/><rect class="cls-108" x="583.46" y="2218.36" width="4.59" height="501.64" transform="translate(-1090.73 564.09) rotate(-28)"/><rect class="cls-109" x="587.51" y="2216.2" width="4.59" height="501.64" transform="translate(-1089.21 565.71) rotate(-28)"/><rect class="cls-110" x="591.56" y="2214.05" width="4.59" height="501.64" transform="translate(-1087.76 567.39) rotate(-28)"/><rect class="cls-111" x="595.61" y="2211.9" width="4.59" height="501.64" transform="translate(-1086.24 569.01) rotate(-28)"/><rect class="cls-112" x="599.66" y="2209.74" width="4.59" height="501.64" transform="translate(-1084.79 570.69) rotate(-28)"/><rect class="cls-113" x="603.71" y="2207.59" width="4.59" height="501.64" transform="translate(-1083.3 572.34) rotate(-28)"/><rect class="cls-114" x="607.77" y="2205.43" width="4.59" height="501.64" transform="translate(-1081.78 573.96) rotate(-28)"/><rect class="cls-115" x="611.82" y="2203.28" width="4.59" height="501.64" transform="translate(-1080.33 575.64) rotate(-28)"/><rect class="cls-116" x="615.87" y="2201.12" width="4.59" height="501.64" transform="translate(-1078.81 577.26) rotate(-28)"/><rect class="cls-117" x="619.92" y="2198.97" width="4.59" height="501.64" transform="translate(-1077.36 578.94) rotate(-28)"/><rect class="cls-118" x="623.97" y="2196.82" width="4.59" height="501.64" transform="translate(-1075.84 580.56) rotate(-28)"/><rect class="cls-119" x="628.02" y="2194.66" width="4.59" height="501.64" transform="translate(-1074.39 582.24) rotate(-28)"/><rect class="cls-120" x="632.07" y="2192.51" width="4.59" height="501.64" transform="translate(-1072.9 583.89) rotate(-28)"/><rect class="cls-121" x="636.12" y="2190.35" width="4.59" height="501.64" transform="translate(-1071.38 585.51) rotate(-28)"/><rect class="cls-122" x="640.18" y="2188.2" width="4.59" height="501.64" transform="translate(-1069.93 587.19) rotate(-28)"/><rect class="cls-123" x="644.23" y="2186.04" width="4.59" height="501.64" transform="translate(-1068.41 588.81) rotate(-28)"/><rect class="cls-124" x="648.28" y="2183.89" width="4.59" height="501.64" transform="translate(-1066.96 590.49) rotate(-28)"/><rect class="cls-125" x="652.33" y="2181.74" width="4.59" height="501.64" transform="translate(-1065.48 592.14) rotate(-28)"/><polygon class="cls-126" points="538.89 2210.02 541.61 2208.58 543.31 2208.58 778.46 2650.78 774.41 2652.94 538.89 2210.02"/><polygon class="cls-127" points="548.51 2208.58 782.51 2648.63 778.46 2650.78 543.31 2208.58 548.51 2208.58"/><polygon class="cls-128" points="553.71 2208.58 786.56 2646.47 782.51 2648.63 548.51 2208.58 553.71 2208.58"/><polygon class="cls-129" points="558.9 2208.58 790.62 2644.32 786.56 2646.47 553.71 2208.58 558.9 2208.58"/><polygon class="cls-130" points="564.1 2208.58 794.67 2642.17 790.62 2644.32 558.9 2208.58 564.1 2208.58"/><polygon class="cls-131" points="569.3 2208.58 798.72 2640.01 794.67 2642.17 564.1 2208.58 569.3 2208.58"/><polygon class="cls-132" points="574.5 2208.58 802.77 2637.86 798.72 2640.01 569.3 2208.58 574.5 2208.58"/><polygon class="cls-133" points="579.69 2208.58 806.82 2635.7 802.77 2637.86 574.5 2208.58 579.69 2208.58"/><polygon class="cls-134" points="584.89 2208.58 810.87 2633.55 806.82 2635.7 579.69 2208.58 584.89 2208.58"/><polygon class="cls-135" points="590.09 2208.58 812.9 2627.6 812.9 2632.47 810.87 2633.55 584.89 2208.58 590.09 2208.58"/><polygon class="cls-136" points="595.28 2208.58 812.9 2617.82 812.9 2627.6 590.09 2208.58 595.28 2208.58"/><polygon class="cls-137" points="600.48 2208.58 812.9 2608.05 812.9 2617.82 595.28 2208.58 600.48 2208.58"/><polygon class="cls-138" points="605.67 2208.58 812.9 2598.28 812.9 2608.05 600.48 2208.58 605.67 2208.58"/><polygon class="cls-139" points="610.87 2208.58 812.9 2588.51 812.9 2598.28 605.67 2208.58 610.87 2208.58"/><polygon class="cls-140" points="616.07 2208.58 812.9 2578.73 812.9 2588.51 610.87 2208.58 616.07 2208.58"/><polygon class="cls-141" points="621.26 2208.58 812.9 2568.96 812.9 2578.73 616.07 2208.58 621.26 2208.58"/><polygon class="cls-142" points="626.46 2208.58 812.9 2559.19 812.9 2568.96 621.26 2208.58 626.46 2208.58"/><polygon class="cls-143" points="631.66 2208.58 812.9 2549.41 812.9 2559.19 626.46 2208.58 631.66 2208.58"/><polygon class="cls-144" points="636.86 2208.58 812.9 2539.64 812.9 2549.41 631.66 2208.58 636.86 2208.58"/><polygon class="cls-145" points="642.05 2208.58 812.9 2529.87 812.9 2539.64 636.86 2208.58 642.05 2208.58"/><polygon class="cls-146" points="647.25 2208.58 812.9 2520.1 812.9 2529.87 642.05 2208.58 647.25 2208.58"/><polygon class="cls-147" points="652.45 2208.58 812.9 2510.32 812.9 2520.1 647.25 2208.58 652.45 2208.58"/><polygon class="cls-148" points="657.64 2208.58 812.9 2500.55 812.9 2510.32 652.45 2208.58 657.64 2208.58"/><polygon class="cls-149" points="662.84 2208.58 812.9 2490.78 812.9 2500.55 657.64 2208.58 662.84 2208.58"/><polygon class="cls-149" points="812.9 2490.78 662.84 2208.58 812.9 2208.58 812.9 2490.78"/></g><g class="cls-150"><path class="cls-3" d="M165.89,2669c140.53-121.89,119.48-264.29,273.64-331.2,192.94-83.73,322.4,105.22,322.4,105.22s4.51,20.4,5.52,51.15c5.2-54.53-4.13-96.67-4.13-96.67s-129.47-189-322.4-105.22S329.51,2578,25.27,2710C77.78,2687.25,124.14,2674.68,165.89,2669Z"/></g><g class="cls-151"><path class="cls-2" d="M759.74,2539.85c-22.49,35.73-56.83,68.42-108.78,91-159.57,69.25-253.88-62.83-453.86-35.87-38.65,40.92-91.92,80.42-171.83,115.1,304.24-132,401.76,78.57,594.7-5.17C706.85,2667.17,744.54,2601.09,759.74,2539.85Z"/></g><path class="cls-152" d="M266.17,2610.12c177.12-76.87,297,45.68,409.3-3.07s71.73-205.94,71.73-205.94-87.09-137-199.42-88.27S443.29,2533.25,266.17,2610.12Z"/><path class="cls-2" d="M522.9,2742c-47.52,0-91.91-12.83-137.82-26.1-92.89-26.85-198.17-57.26-362.12,13.89a16.42,16.42,0,1,1-13.07-30.12c164.18-71.26,215.42-165.47,260.64-248.6,37.61-69.15,73.14-134.47,163.85-173.84,84.18-36.54,170.31-28.76,249,22.51,58.55,38.12,92,86.45,93.44,88.49a16.4,16.4,0,0,1,2.48,5.72c.54,2.42,13,59.89.82,128.69-16.34,92.52-69.47,160.74-153.66,197.27C589.52,2736,555.47,2742,522.9,2742ZM216.15,2652.7c68.41,0,125.12,16.39,178,31.68,74.65,21.57,139.13,40.2,219.24,5.44,166.57-72.29,139.22-259.36,134.45-285.66-16.58-22.71-132.37-169.74-300.43-96.79-80.34,34.86-111.73,92.58-148.08,159.41-33.77,62.08-70.72,130-151.22,191.29A437.33,437.33,0,0,1,216.15,2652.7Z"/><path class="cls-3" d="M1757.26,1412.18s213.27,89.62,249.42,145-96.39,56.76-96.39,56.76"/><path class="cls-2" d="M1910.29,1632.9a18.93,18.93,0,0,1-15.09-7.5l-153-201.78a18.94,18.94,0,0,1,22.42-28.9c22.38,9.41,219.72,93.56,257.94,152.14,13.42,20.56,10,36.6,4.72,46.42-19.18,35.85-94.23,39.39-116.77,39.62Zm-93.15-173.09,102.34,134.94c35.44-1.67,69.55-10.3,74.38-19.33.46-.86-.45-3.91-3-7.87C1972.73,1539.83,1890.82,1494.79,1817.14,1459.81Z"/><path class="cls-3" d="M862,942.29c-82.84,62.09-158.76,357.73-139.57,534s330.71,189.43,508.87,183.72,177.54-408.54,175.21-516.45C1402.84,975,984.74,850.28,862,942.29Z"/><g class="cls-153"><path class="cls-2" d="M1231.29,1660c-178.16,5.72-489.67-7.5-508.9-183.73a581.5,581.5,0,0,1-2.81-74.57c49.2,38.68,117.75,4.25,126-43,51-292,159.77-404,212.36-442.37,160.28,22.47,346.12,115.16,348.51,227.27C1408.83,1251.44,1409.44,1654.26,1231.29,1660Z"/></g><path class="cls-2" d="M1169.18,1679.93c-215.28,0-447.83-38.47-465.59-201.62-18.57-170.5,52.07-480,147-551.18,84.2-63.1,278.44-33,410.12,31.11,104.71,51,163.19,116.63,164.67,184.88,4.27,197.64-15.19,530.06-193.53,535.78C1211.3,1679.56,1190.32,1679.93,1169.18,1679.93ZM988.39,929.79c-49,0-90.11,9-115,27.65h0c-76.5,57.33-150.58,347.11-132.11,516.77,17.23,158.28,314,172.47,489.44,166.85,155.44-5,159.38-381.76,156.89-497.12-1.14-52.58-53.4-107.85-143.38-151.65C1160.6,951.6,1064.86,929.79,988.39,929.79ZM862,942.29h0Z"/><path class="cls-3" d="M879.48,1238l-79.07-31.52a32,32,0,0,0-42.81,21.62C741,1292.15,715.41,1425,779.88,1452.15c78.14,32.94,105.84-57.19,119.57-181A32,32,0,0,0,879.48,1238Z"/><g class="cls-153"><path class="cls-2" d="M899.29,1270.92c-13.44,123.87-40.94,214.09-119.15,181.3-32.12-13.42-42-53.13-41.73-97.49,6.51,12.69,15.86,22.53,28.93,28,70,29.32,99.43-39.92,114.4-143.71A31.65,31.65,0,0,1,899.29,1270.92Z"/></g><path class="cls-2" d="M810.28,1476.53q-17.37,0-36.89-8.16c-71.47-29.95-57.38-149.49-33-244.51a49.48,49.48,0,0,1,66.15-33.63l79.14,31.34a49.55,49.55,0,0,1,31,51.25c-12.36,113.8-33.84,171.91-71.81,194.31A67,67,0,0,1,810.28,1476.53Zm-22-254.8a14.51,14.51,0,0,0-6.58,1.6,14.27,14.27,0,0,0-7.41,9.24c-22.22,86.52-30.58,185.42,12.6,203.52,16.42,6.87,29.57,7.17,40.21.9,39-23,50.9-132.11,54.79-168a14.46,14.46,0,0,0-9.09-14.93l-79.14-31.34A14.7,14.7,0,0,0,788.3,1221.73Z"/><path class="cls-2" d="M850.4,942.68l93.16,43c31,14.57,61.91,29,92.7,44.62a9.48,9.48,0,0,1-7.75,17.27l-.16-.07c-31.38-12.46-63.59-24-95.62-35.57l-96.44-34.14-.17-.06A19,19,0,0,1,848.77,942C849.32,942.21,849.88,942.44,850.4,942.68Z"/><path class="cls-3" d="M1934.18,1645.44s-468.65,181.24-633.09,168.27-341.47-39-351.17-350.88c-6-193.88,89.89-384.64,163.35-501.18,44.73-71,81.13-114.5,81.13-114.5l452.51,23.1s1.75,23.86,5.4,63.43c2.27,24.71,5.3,55.52,9.13,90.45,5.5,50.18,12.6,108.83,21.49,170.12,13.64,93.91,31.48,194,54,279.08C1746.6,1510.16,1901.1,1520.24,1934.18,1645.44Z"/><path class="cls-2" d="M1672.75,1068c16.93,55.2,26.63,111,36.43,166.75,10,55.71,18.83,111.53,30.35,166.7,2.92,13.79,6,27.5,9.27,41.19l5,20.46,1.28,5.1.08.31,0-.06v-.13a.48.48,0,0,0-.07-.23.52.52,0,0,0-.17-.16.37.37,0,0,1,.14.08c.1.07,0,.13.14.29a7.93,7.93,0,0,1,.71.71c.23.47,1.42,1.23,2.07,1.89,3.55,2.87,9.16,6,14.93,9s12.11,5.86,18.52,8.77c12.81,5.82,26.13,11.76,39.31,18.44,26.33,13.28,52.71,29.51,74.79,52a185.87,185.87,0,0,1,28.8,37.61,182.79,182.79,0,0,1,18.11,43.95l4.41,16.46-15.89,6c-74.52,28.38-149.31,54.68-225,79.4s-151.91,47.49-229.83,65.9c-39,9-78.35,17.23-119,21.8-20.3,2.31-40.88,3.85-62.45,2.62-5.54-.15-10.27-.67-15.29-1l-14.94-1.3c-10-.91-20-1.88-30-3.08-40-4.7-80.76-11.8-120.14-26.3a294.5,294.5,0,0,1-56.84-27.9,252.55,252.55,0,0,1-49.24-41,264.63,264.63,0,0,1-37.17-51.8,319.84,319.84,0,0,1-25-57.67l-2.5-7.4-2.1-7.48-4.13-15-3.39-15.09-1.67-7.54-1.33-7.58-2.65-15.16c-.78-5.06-1.35-10.13-2-15.19-1.47-10.13-2.32-20.26-3.17-30.4a646.9,646.9,0,0,1,1.06-122.09A759.07,759.07,0,0,1,957,1260.32c21.15-78.22,53.12-152.68,90.73-223.61,18.82-35.46,37.62-71.09,60.45-104.18s48.11-64.59,81.38-89.41a6.49,6.49,0,0,1,9.79,7.87l-.11.23c-16.63,36.68-36.93,70-57.54,103.16-20.27,33.33-42.15,65.73-60.48,100.2-36.69,68.79-67.43,140.89-87.68,215.65A721.16,721.16,0,0,0,972,1383.8a607.6,607.6,0,0,0-1,115.08c.81,9.59,1.6,19.18,3,28.65.64,4.75,1.16,9.52,1.9,14.24l2.46,14.1,1.23,7,1.55,6.95,3.12,13.89L988,1597.4l1.9,6.81,2.26,6.67a282.26,282.26,0,0,0,22.12,51.13,227,227,0,0,0,31.86,44.49c24.71,26.73,56.43,46.28,91.44,59.08s72.9,19.71,111.38,24.2c9.63,1.15,19.33,2.09,29.07,3l14.64,1.27c4.85.37,10,.91,14.33,1,4.57.08,9,.58,13.68.36l14-.33c9.45-.72,18.87-1.23,28.42-2.47,38.09-4.27,76.46-12.19,114.54-21,76.23-18,151.78-40.67,226.74-65s149.54-50.74,223-78.71l-11.47,22.5a143.73,143.73,0,0,0-37.25-64.65c-17.91-18.26-40.55-32.5-64.9-44.76-12.19-6.17-24.86-11.84-38-17.77-6.53-3-13.19-6-20-9.52s-13.84-7.19-21.43-13.18a55.31,55.31,0,0,1-5.8-5.31l-2.89-3.22c-1-1.26-1.93-2.73-2.83-4.13-1.8-2.37-3.42-7.1-4.31-9.89l-1.36-5.23-5.44-20.9q-5.24-20.94-10-41.94c-6.39-28-12.52-56-17.89-84.16s-9.92-56.4-13.92-84.72c-7.82-56.66-13.2-113.66-9.67-171.44a6.42,6.42,0,0,1,12.54-1.48Z"/><path class="cls-154" d="M995.35,2598.32l-81.11,12.62a100.92,100.92,0,0,1-96-38.79h0A605.87,605.87,0,0,1,698.63,2269.3h0a101,101,0,0,1,43.55-93.91L810,2129.17"/><g class="cls-155"><path class="cls-3" d="M824.43,2175.67l-67.17,45.78a111.52,111.52,0,0,0-48.13,103.83q2.46,23.64,6.6,47a603.4,603.4,0,0,1-17.11-93,101,101,0,0,1,43.55-93.91L810,2139.17Z"/></g><g class="cls-4"><path class="cls-2" d="M749.72,2438.05h0a606.42,606.42,0,0,0,58.53,94.11,100.88,100.88,0,0,0,96,38.77l75.63-11.77L810,2129.17,795.53,2139,921.47,2457.8l-81.13,12.63A100.86,100.86,0,0,1,749.72,2438.05ZM906,2418.65,795.53,2139l4.57-3.12L911.47,2417.8Z"/></g><path class="cls-6" d="M1009.68,2004.57C967.52,1922,823.05,1812.66,538.87,1993a4.87,4.87,0,0,0,1.74,8.89c47.29,8.43,269.75,46.33,310.48,162"/><g class="cls-155"><path class="cls-3" d="M586.72,2005.76c-20.39-4.37-36.72-7.21-46.1-8.88a4.86,4.86,0,0,1-1.75-8.89c284.19-180.33,428.65-71,470.82,11.58l-17.18,17.25C938,1946.45,809.88,1882.25,586.72,2005.76Z"/></g><path class="cls-2" d="M851.09,2182.84a18.93,18.93,0,0,1-17.86-12.65c-13.61-38.67-69.87-109.49-293.7-149.27l-2.24-.4a23.8,23.8,0,0,1-8.56-43.52c138.15-87.66,258.6-118.34,358-91.17,87.7,24,127,85,139.83,110.13a18.94,18.94,0,0,1-33.73,17.22c-10.54-20.65-43-70.85-116.08-90.83-80.26-21.93-182.32,1.51-296.7,67.79C784,2032.31,850,2103.75,869,2157.62a18.94,18.94,0,0,1-17.86,25.22Z"/><path class="cls-156" d="M1222.71,2543.8c25.67,89.12-3.19,272.45-333.89,335a4.87,4.87,0,0,1-4.8-7.69c28.76-38.47,163.23-223.28,113.9-335.57"/><path class="cls-6" d="M888.83,2878.85a4.88,4.88,0,0,1-4.8-7.7c14.72-19.71,57.19-77.81,88.47-144.91,29.59-63.39,49.16-134.84,25.91-189.45-.15-.4-.35-.81-.51-1.21l1.36,0,223.43,8.17c7.2,25,10.12,57.46,3.23,92.57C1208.41,2726.33,1126.72,2833.8,888.83,2878.85Z"/><g class="cls-4"><path class="cls-2" d="M972.5,2726.24c29.59-63.39,49.16-134.84,25.91-189.45.29-.38.56-.79.85-1.17l223.43,8.17c7.2,25,10.12,57.46,3.23,92.57C1172.62,2681.6,1091.8,2717.13,972.5,2726.24Z"/></g><path class="cls-2" d="M887.84,2897.86a23.8,23.8,0,0,1-19-38c37.06-49.58,154.64-219,111.72-316.63a18.93,18.93,0,0,1,34.67-15.23c43.67,99.39-39,244.33-94.74,324.87,127.07-29.51,216.76-82.16,260.53-153.3,42.24-68.64,28.64-132.54,23.47-150.49a18.93,18.93,0,0,1,36.39-10.48c8,27.84,21.39,101.19-27.61,180.82-54.21,88.11-162.2,148-320.95,178.06A23.79,23.79,0,0,1,887.84,2897.86Zm-2.53-37.63h0Z"/><path class="cls-3" d="M2558.66,1707.4s-74.31,472.73-686.58,764.73c-521.62,248.74-882.26,126.19-882.26,126.19a726.3,726.3,0,0,1-185.31-469.17s80.09-150,297.54-301.61c7.48-5.21,15.15-10.46,23-15.67,84.91-56.71,189.29-113,316.14-161q44.88-17,93.58-32.51c1.28-.43,2.56-.81,3.83-1.19,131-41.32,250.92-62,358.8-69,3.45-.24,6.86-.43,10.27-.62C2324,1524.31,2558.66,1707.4,2558.66,1707.4Z"/><path class="cls-6" d="M2246.47,2226.33a1751.42,1751.42,0,0,0-268.9-680.69c376-2.51,586.57,161.76,586.57,161.76S2522.68,1971.18,2246.47,2226.33Z"/><g class="cls-155"><path class="cls-3" d="M2556.34,1736.73c5.85-22,7.8-34.33,7.8-34.33s-210.56-164.27-586.57-161.76q13.23,19.9,25.88,40.12C2322.18,1585.13,2516.23,1708.62,2556.34,1736.73Z"/></g><path class="cls-2" d="M2233.58,2264l-5.78-34.56c-40.51-242.23-130-468.77-266-673.32L1942.4,1527l35-.24c298-2.06,494.89,99.86,565.72,143.74a70,70,0,0,1,30.91,78.27c-21.72,80.43-95.87,289.32-314.75,491.52Zm-220.93-699.18A1756.84,1756.84,0,0,1,2259,2188.34c192.08-187.69,258.55-375.4,278.56-449.49a32.41,32.41,0,0,0-14.3-36.21C2458,1662.22,2281.13,1570.59,2012.65,1564.83Z"/><path class="cls-2" d="M1237.44,2647.45c-154.61,0-244.44-29.93-248.21-31.21l-4.7-1.6-3.31-3.69a744.91,744.91,0,0,1-190.16-481.37l-.11-5,2.34-4.37c1.9-3.54,47.69-88,162.4-194.75,105.18-97.89,291-233.76,578.81-325.16,150.92-47.92,299.94-72.7,442.94-73.63l10.23-.06,5.66,8.51c138.64,208.53,230,439.43,271.52,686.29l3.76,10.2-9.27,8.63c-105,97-230.76,180.82-373.67,249-272.59,130-501.09,157.78-644.78,158.19ZM1006,2581.78c20,5.92,105,28.54,236.85,27.79,139.4-.65,361.26-28,626.56-154.5,136.05-64.88,256-144.15,356.72-235.68-40.71-235.08-127.68-455.23-258.63-654.7-136.08,2-277.82,26.11-421.5,71.74C1041.58,1796.59,851.79,2095.37,829.05,2134A707,707,0,0,0,1006,2581.78Z"/><path class="cls-2" d="M898.65,2631.08a119.67,119.67,0,0,1-95.47-47.5A624.81,624.81,0,0,1,679.8,2271.27a119.73,119.73,0,0,1,51.72-111.53l67.83-46.21a18.93,18.93,0,1,1,21.32,31.29L752.84,2191a81.9,81.9,0,0,0-35.38,76.29,587,587,0,0,0,115.9,293.39,81.91,81.91,0,0,0,78,31.51l81.11-12.62a18.93,18.93,0,0,1,5.82,37.42l-81.11,12.62A120.56,120.56,0,0,1,898.65,2631.08Z"/><g class="cls-4"><circle class="cls-2" cx="1796.38" cy="2040.6" r="260.44" transform="translate(-916.78 1867.91) rotate(-45)"/></g><circle class="cls-6" cx="1802.14" cy="2008.42" r="234.2"/><g class="cls-155"><path class="cls-3" d="M2032.49,1970.9c-1.59-5.08-3.37-10.1-5.35-15.11-47.5-120.29-183.57-179.27-303.86-131.77-106,41.88-164.45,152.56-144.25,260.61-37.31-116.46,21.7-243.46,137-289,120.33-47.52,256.36,11.47,303.91,131.79A236.87,236.87,0,0,1,2032.49,1970.9Z"/></g><g class="cls-4"><path class="cls-2" d="M1888.17,2226.23c-120.27,47.5-256.33-11.43-303.86-131.75a233.11,233.11,0,0,1-14.59-115,236.1,236.1,0,0,0,13.78,51c47.52,120.31,183.56,179.31,303.88,131.79a234.08,234.08,0,0,0,146.34-189C2049.86,2078.83,1991.72,2185.31,1888.17,2226.23Z"/></g><path class="cls-2" d="M1802.08,2261.69a253.73,253.73,0,1,1,93.07-17.84h0A253,253,0,0,1,1802.08,2261.69Zm.11-468.66a215.33,215.33,0,1,0,79,415.6h0a215.38,215.38,0,0,0-79-415.6Z"/><circle class="cls-157" cx="1803.71" cy="2004.8" r="149" transform="translate(-889.31 1862.61) rotate(-45)"/><g class="cls-151"><path class="cls-3" d="M1858.45,2143.4a149,149,0,0,1-193.31-83.86,147.37,147.37,0,0,1-10.38-50.48c.54,1.56,1.13,3.11,1.74,4.69a149,149,0,0,0,287.55-59A149,149,0,0,1,1858.45,2143.4Z"/></g><g class="cls-4"><path class="cls-2" d="M1954.32,2012.49c-.85-2.41-1.69-4.82-2.65-7.23a149,149,0,0,0-287.56,51.83,149,149,0,1,1,290.21-44.6Z"/></g><path class="cls-2" d="M1803.67,2172.82a168.3,168.3,0,0,1-156.15-106.32c-34-86.12,8.37-183.86,94.49-217.88s183.86,8.36,217.89,94.48S1951.53,2127,1865.41,2161A167.75,167.75,0,0,1,1803.67,2172.82Zm-.12-298.09a129.35,129.35,0,0,0-47.63,9.11c-66.7,26.35-99.53,102.05-73.18,168.75a130.06,130.06,0,0,0,168.76,73.17h0c66.7-26.35,99.52-102.05,73.18-168.75A130.3,130.3,0,0,0,1803.55,1874.73Z"/><g class="cls-158"><path class="cls-3" d="M2290,1685.35c-1.13-35.57-75-63.45-116.84-63.12-43.31.34-69.36,7.8-69.55,28.76-.26,29.27,33.47,39.59,73.56,41.11C2205.49,1693.18,2291.35,1729.25,2290,1685.35Z"/></g><g class="cls-158"><path class="cls-3" d="M2398.49,1730.28c-2.32-30.83-39.59-59.55-59.88-61.88-21-2.41-33.29,2.42-32.34,20.53,1.34,25.3,18.23,36.33,37.77,40.15C2357.86,1731.78,2401.36,1768.33,2398.49,1730.28Z"/></g><g class="cls-4"><path class="cls-2" d="M985.33,2563.31s360.63,122.55,882.22-126.16c529.71-252.61,656.74-640.43,681.37-740.48,2.51,1.67,4.71,3.18,6.6,4.5-7.68-5.35-20.43-13.8-38.15-24.09-71.92,163.44-243.11,426.41-637.43,614.46-246.3,117.45-456.69,152.11-610.17,156-196,4.95-372.28-120.85-427.81-308.92-.3-1-.61-2.07-.91-3.11-2.16-7.46-4.18-15-6.11-22.53-1-3.12-2-6.2-3-9.36-.3-1-.61-2.07-.91-3.11s-.6-2.24-.92-3.35l.7-1h0c-14.31,20.87-20.82,33-20.82,33a724.77,724.77,0,0,0,22.84,165.61A725.57,725.57,0,0,0,985.33,2563.31Z"/></g><path class="cls-6" d="M959.75,2434.76c-107.38,42.39-246.68-.84-246.68-.84s.27-.49.8-1.34c8.09-13.74,77.86-128,178.67-167.88,96.75-38.24,202.13,1,220.9,8.66,1.92.79,2.93,1.24,2.93,1.24S1066.42,2392.68,959.75,2434.76Z"/><g class="cls-155"><path class="cls-3" d="M1121.39,2279.59s-3.05,7.19-9.22,18.62c-35.9-12.43-124.77-36.27-207.39-3.6-81.07,32-142.06,112.23-167.07,149.5-12.42-3-19.66-5.18-19.66-5.18s.3-.49.81-1.36c8.11-13.72,77.88-128,178.69-167.86,96.75-38.25,202.1,1,220.87,8.65C1120.38,2279.16,1121.39,2279.59,1121.39,2279.59Z"/></g><g class="cls-4"><path class="cls-2" d="M959.75,2434.76c-107.38,42.39-246.68-.84-246.68-.84s.27-.49.8-1.34l399.57-159.22c1.92.79,2.93,1.24,2.93,1.24S1066.42,2392.68,959.75,2434.76Z"/></g><path class="cls-2" d="M849.19,2472.4c-74.75,0-137.81-19.17-141.74-20.39L685,2445l11.65-20.47c3.08-5.41,76.73-133.07,189-177.45,112.74-44.58,233.37,7.93,238.45,10.19l17,7.55L1133.8,2282c-2.17,5.12-54.33,125.89-167.11,170.41C928.7,2467.38,887.41,2472.4,849.19,2472.4Zm-106.11-50.35c43.24,9.67,135.66,24.35,209.71-4.89S1072.12,2318,1090.05,2285c-35.69-11.79-116.7-31.9-190.53-2.71C825.31,2311.66,768,2385.45,743.08,2422.05Zm-30,11.87h0Z"/><g class="cls-153"><path class="cls-2" d="M1493.31,2048.49c14.91,21.4,117.91,195.16,35,264.22-72.56,60.49-206.47,50.55-277-44.54-46.62-62.91-56.09-135.42-53.44-190.9,3.13-64.8,14.73-126.62-17.6-175.14-17.23-25.93-45.63-49-78.2-74.59,7.48-5.21,15.15-10.46,23-15.67,84.91-56.71,189.29-113,316.14-161,24.76,11.93,48.47,27.27,68.4,47,78.57,78,80.75,234.45,27.41,297.87C1515.94,2020.71,1493.31,2048.49,1493.31,2048.49Z"/></g><path class="cls-3" d="M1540.65,2001.16c14.91,21.39,117.91,195.16,35,264.22-72.56,60.49-206.47,50.55-277-44.54-46.63-62.91-56.09-135.43-53.44-190.9,3.12-64.8,14.72-126.62-17.61-175.14-36.78-55.29-180.3-75.92-251.68-157.76-42.08-48.19-64.61-135.71-60.77-242.92a755.34,755.34,0,0,1,11-102.67c26.5-151.56,100.63-325.9,237.14-480.25,0,0,54.25,217,111.09,409.77,39.62,134.38,80.52,257,105.09,286,3.26,3.88,6.24,6.06,8.89,6.44a338.21,338.21,0,0,1,94.1,27.26c26.89,12.31,52.88,28.5,74.41,49.8,78.58,78,80.76,234.44,27.41,297.87C1563.27,1973.37,1540.65,2001.16,1540.65,2001.16Z"/><g class="cls-153"><path class="cls-2" d="M1602.13,2225.76a83.47,83.47,0,0,1-26.46,39.62c-72.56,60.49-206.47,50.55-277-44.54-46.63-62.86-56.09-135.43-53.44-190.9,3.12-64.8,14.67-126.62-17.61-175.09-36.78-55.29-180.3-76-251.72-157.77-42-48.18-64.57-135.8-60.73-243,0-.48,0-1,0-1.47.15-3.6.34-7.2.53-10.84.18-3.31.37-6.67.61-10.08.1-1.52.19-3.08.33-4.64.62-8,1.33-16.09,2.23-24.28.42-3.88.9-7.81,1.37-11.79.33-2.75.71-5.54,1.09-8.33.28-2.32.61-4.64.94-7,.53-3.64,1.09-7.29,1.66-11,.66-4.17,1.37-8.38,2.08-12.59l.15-.71a97.84,97.84,0,0,1,7.19-7.38s14.3,6.48,44.83,14.38c48.51,12.6,138,28.88,276.29,28.69l-2.18-71.71a36.23,36.23,0,0,1,22.1-34.46,35,35,0,0,1,10.27-2.65l85.92-9.18,124.2,300.71-115.3-2.84-86.72-2.13a36.27,36.27,0,0,1-33.94-35.08l-1.09-36c-75.87,17-201.45,21.45-282.72-5.35,6,74.89,26.93,135.38,59.3,172.49,71.38,81.84,178.41,37.91,250.83,122.36,45.25,52.82,21.58,145.74,18.46,210.54-2.65,55.48-24.1,136.84,22.48,199.7C1387.71,2276.64,1521,2269.26,1602.13,2225.76Z"/></g><g class="cls-153"><path class="cls-2" d="M1840.23,871.58a503.7,503.7,0,0,1-178.79,152.55,502.51,502.51,0,0,1-439.55,6.89c-63.36-29.75-139.13-1.38-168,62.39-41.52,91.76-65.89,182.63-75.71,265-30.53-7.9-44.83-14.38-44.83-14.38a97.84,97.84,0,0,0-7.19,7.38c26.5-151.56,100.63-325.9,237.14-480.25l1.42,14.53c18.13-24.76,29.68-38.58,29.68-38.58l452.51,23.1s1.75,23.86,5.4,63.43C1708.45,918.82,1776.47,898.08,1840.23,871.58Z"/></g><path class="cls-2" d="M1397.45,1568.44c24.58-.33,49.27,3.66,73.1,10.88s47,17.45,68.32,31.67a240.41,240.41,0,0,1,30.39,24,203.09,203.09,0,0,1,25.78,29.93c15.1,21.49,25.61,45.43,32.89,69.89a308.69,308.69,0,0,1,11.8,75.07,287.86,287.86,0,0,1-6.64,75.84c-5.8,25-14.91,50.17-32.29,72.3l-45.49,55.12.85-22.8c3.81,5.59,6.75,10.48,9.84,15.66s5.91,10.24,8.7,15.42q8.43,15.51,15.86,31.5a458.89,458.89,0,0,1,25.22,66.47c6.47,23.09,11.22,47.26,10.62,72.87-.35,12.75-1.9,25.9-6.12,38.84a105.48,105.48,0,0,1-19.86,36.16l-3.4,4c-1.18,1.28-2.49,2.42-3.74,3.63-2.53,2.27-5.08,5-7.66,6.71-5.18,3.74-10.21,7.79-15.6,11.19-5.54,3.14-11,6.41-16.65,9.34l-17.44,7.49a210.38,210.38,0,0,1-73.53,12.4,231.79,231.79,0,0,1-73-12.41c-23.56-7.82-45.47-20.35-65-35.63-4.89-3.85-9.86-7.6-14.15-12.12s-9.08-8.52-13.15-13.2l-11.88-14.35c-3.9-4.81-7.11-9.94-10.68-14.9a293.7,293.7,0,0,1-31.81-65.55,324.88,324.88,0,0,1-15-70.7,345.47,345.47,0,0,1-1.81-35.92c-.05-6,.18-12,.39-18l1-17.34c1.47-23,3.48-45.34,3.52-66.89s-2-42.23-9-60.17a50,50,0,0,0-2.81-6.63c-1.1-2.11-1.94-4.38-3.22-6.39l-3.66-6.11a58.21,58.21,0,0,0-3.76-5c-5.56-6.47-13.26-12.62-21.87-18.18-17.4-11.15-37.66-20.48-58.13-29.79-41-18.62-84.35-36.93-123.82-65-19.61-14.16-38.22-30.62-53.22-51.39-14.78-20.47-25.08-43-32.86-65.75a419.91,419.91,0,0,1-16.67-69.54,601.24,601.24,0,0,1-5.78-70.34c-.87-46.87,3.33-93.48,11-139.33,15.92-91.66,46.18-180.25,87.35-263.17,20.95-41.24,42.4-82.48,68.87-120.58,26.65-37.83,56.86-73.6,95.39-100.67a6.49,6.49,0,0,1,9.48,8.31l0,0c-21.53,41.19-47.12,77.43-71.35,114.93-24.41,37.23-48.93,74.64-68.45,114.81-39.66,79.85-68.73,165.13-83.93,252.7C937,1401.59,933,1445.92,933.83,1490a561.76,561.76,0,0,0,5.37,65.5,383,383,0,0,0,15,62.89c6.85,20.17,15.84,39.45,27.74,55.87,11.63,16.2,27.39,30.42,44.58,42.79,34.8,24.83,75.78,42.51,117.39,61.29,20.84,9.54,42.1,19.12,63.06,32.48,10.42,6.79,20.88,14.7,30.18,25.48a94.61,94.61,0,0,1,6.51,8.63l5.11,8.49c1.74,2.82,3,5.88,4.46,8.83a77,77,0,0,1,3.84,9,158.74,158.74,0,0,1,9.32,37.2,262.63,262.63,0,0,1,2.25,36.6c-.07,23.93-2.19,46.89-3.6,69.28l-1,16.7c-.18,5.37-.39,10.75-.34,16.13a307.3,307.3,0,0,0,1.62,32.14,286.45,286.45,0,0,0,13.23,62.41c13.77,39.87,36.64,77.5,69.22,102.48,16.18,12.63,34.3,23.12,54,29.59a194.06,194.06,0,0,0,60.79,10.33,173.1,173.1,0,0,0,60.23-10.06l13.89-6c4.43-2.34,8.69-4.93,13.07-7.34,4.21-2.65,8-5.82,12.08-8.66,2.2-1.42,3.43-3,5.15-4.5.79-.77,1.66-1.46,2.4-2.27l2.09-2.53c11.39-13.21,16.75-31.53,17-51.5.53-19.93-3.36-40.94-9.18-61.53a422.16,422.16,0,0,0-23.13-60.89q-6.95-14.91-14.8-29.39c-2.6-4.83-5.31-9.57-8-14.27s-5.68-9.41-8.28-13.22l-8.13-11.91,9-10.88,45.25-54.81c12.13-15.34,20.22-35.79,24.83-57,9.19-42.7,6.16-89.09-6.85-131-6.63-20.9-15.61-40.93-27.58-58.55a175.2,175.2,0,0,0-20-24.55,201,201,0,0,0-24.55-21.31,370.1,370.1,0,0,0-57.48-34.64c-20.44-10-41.86-18.54-64.18-26.52h0a6.41,6.41,0,0,1,2.07-12.44Z"/><path class="cls-2" d="M1246.9,1919.79a14.21,14.21,0,0,1-14.06-12.3c-22.09-163.4,74.68-240.65,117.31-266.27,70.67-42.49,155.83-46.46,207.1-9.65a14.2,14.2,0,1,1-16.56,23.07c-41.66-29.91-115.64-25.31-175.91,10.92C1327,1688.29,1241.16,1757,1261,1903.69a14.2,14.2,0,0,1-12.17,16A14,14,0,0,1,1246.9,1919.79Z"/><path class="cls-2" d="M1566.7,1998.78c-2,1.9-3.35,3-5,4.44s-3.21,2.58-4.82,3.82c-3.22,2.49-6.58,4.73-10,6.92a174.48,174.48,0,0,1-21.27,11.53,158,158,0,0,1-47,13.19c-16.33,1.79-33.34,1.09-48.93-4.3-15.56-5.21-29.46-14.42-39.18-26.72,15.52,2.7,29.39,4.78,43,4.12a144.4,144.4,0,0,0,19.76-1.73,117,117,0,0,0,19.09-4.2,189.83,189.83,0,0,0,36.3-15.22c5.9-3,11.58-6.51,17.28-9.94l8.35-5.37,7.67-5.17,1.17-.79a18.93,18.93,0,0,1,23.62,29.42Z"/><path class="cls-3" d="M1929.09,646.21h0a10.21,10.21,0,0,1-10.84-9.54l-18.77-293.56a10.21,10.21,0,0,1,9.54-10.84h0a107.14,107.14,0,0,1,113.76,100.08l6.39,100.1A107.14,107.14,0,0,1,1929.09,646.21Z"/><path class="cls-2" d="M1928.44,648.26a12.27,12.27,0,0,1-12.22-11.46l-18.76-293.56a12.26,12.26,0,0,1,11.43-13,109.3,109.3,0,0,1,115.91,102l6.4,100.1a109.15,109.15,0,0,1-102,115.91h0Zm.65-2h0ZM1916,334.07c-2.28,0-4.56.07-6.86.22a8.18,8.18,0,0,0-7.64,8.69l18.76,293.56a8.17,8.17,0,0,0,8.69,7.64,105.1,105.1,0,0,0,98.19-111.6l-6.4-100.1A105.11,105.11,0,0,0,1916,334.07Z"/><g class="cls-4"><path class="cls-2" d="M2026.17,485.51l3,47a107.18,107.18,0,0,1-100.09,113.77,10.25,10.25,0,0,1-10.85-9.56l-5-78a10.2,10.2,0,0,0,9.66,5.45l7-.46A107,107,0,0,0,2026.17,485.51Z"/></g><path class="cls-2" d="M1928.42,665.16a29.2,29.2,0,0,1-29.07-27.28l-18.76-293.56a29.18,29.18,0,0,1,27.22-30.95,126.07,126.07,0,0,1,133.86,117.77l6.4,100.11A126.07,126.07,0,0,1,1930.3,665.1h0C1929.67,665.14,1929,665.16,1928.42,665.16Zm.67-18.95h0ZM1919,351l17.6,275.3a88.33,88.33,0,0,0,73.72-92.67l-6.4-100.1A88.21,88.21,0,0,0,1919,351Z"/><path class="cls-3" d="M940.05,394.21h0a10.22,10.22,0,0,1,10.85,9.54l18.76,293.56a10.21,10.21,0,0,1-9.54,10.84h0A107.14,107.14,0,0,1,846.37,608.06L840,508A107.14,107.14,0,0,1,940.05,394.21Z"/><path class="cls-2" d="M953.14,710.4a109.18,109.18,0,0,1-108.8-102.21l-6.4-100.1a109.17,109.17,0,0,1,102-115.91h0a12.27,12.27,0,0,1,13,11.44l18.77,293.56a12.25,12.25,0,0,1-11.44,13C957.87,710.33,955.5,710.4,953.14,710.4Zm-13-314.17A105.12,105.12,0,0,0,842,507.83l6.4,100.11A105.1,105.1,0,0,0,960,706.12a8.18,8.18,0,0,0,7.64-8.69L948.87,403.88a8.18,8.18,0,0,0-8.69-7.65Z"/><g class="cls-4"><path class="cls-2" d="M964.48,615.86l5.2,81.44a10.25,10.25,0,0,1-9.56,10.85A107.08,107.08,0,0,1,846.38,608.08l-2.7-42.18A107.18,107.18,0,0,0,945.1,622.47l10.71-.68A10.34,10.34,0,0,0,964.48,615.86Z"/></g><path class="cls-2" d="M953.2,727.3a126.23,126.23,0,0,1-125.72-118l-6.4-100.1A126.07,126.07,0,0,1,938.85,375.31h0a29.15,29.15,0,0,1,30.94,27.22L988.56,696.1A29.15,29.15,0,0,1,961.33,727C958.61,727.22,955.9,727.3,953.2,727.3ZM932.59,414.09a88.32,88.32,0,0,0-73.73,92.66l6.4,100.11a88.23,88.23,0,0,0,84.93,82.53Z"/><circle class="cls-3" cx="1434.63" cy="520.2" r="501.27" transform="translate(52.36 1166.8) rotate(-45)"/><path class="cls-2" d="M1434.69,1023.5H1431c-277.52-2-501.67-229.37-499.69-506.89,2-276.27,227.4-499.7,503.23-499.7l3.65,0c134.43,1,260.45,54.21,354.82,150s145.83,222.5,144.87,356.93C1935.94,800.08,1710.52,1023.5,1434.69,1023.5ZM1434.53,21c-132,0-256.28,50.94-350.38,143.7-95,93.62-147.79,218.61-148.74,352s50.08,259.09,143.69,354,218.61,147.79,352,148.75,259.09-50.08,354-143.7,147.8-218.61,148.75-352-50.08-259.08-143.7-354S1571.55,21.93,1438.2,21Z"/><g class="cls-4"><path class="cls-2" d="M1931.58,454.37a498.53,498.53,0,0,1,4.32,69.42c-2,276.83-228,499.64-504.86,497.69s-499.63-228-497.68-504.86c0-8,.29-15.93.73-23.77,32,244.25,240.07,433.61,493.37,435.43C1696.32,930.18,1917.21,720.08,1931.58,454.37Z"/></g><path class="cls-2" d="M1434.74,1040.41l-3.82,0c-139-1-269.2-56-366.75-155s-150.72-230-149.72-368.91,56-269.2,155-366.75S1299.5-1,1438.35,0s269.19,56,366.74,155,150.73,230,149.73,368.92-56,269.19-155,366.74C1701.79,987.31,1572.26,1040.41,1434.74,1040.41Zm-.2-1002.54C1307,37.87,1186.93,87.09,1096,176.71c-91.75,90.45-142.79,211.21-143.71,340s48.39,250.32,138.83,342.07,211.21,142.78,340,143.71c129,.75,250.32-48.39,342.07-138.84S1916,652.49,1917,523.65s-48.39-250.31-138.83-342.06S1566.92,38.8,1438.08,37.88Z"/><path class="cls-2" d="M1934.19,536.65c.78,98.09-30.33,189.41-84.19,265.18-40.37,56.82-207.41,157-414.63,160.52-192.13,3.26-367.77-97.8-409-154-55-74.91-87.62-165.73-88.4-263.81C935.86,285,1158,175.63,1433.14,173.44S1932.13,277.08,1934.19,536.65Z"/><path class="cls-2" d="M1426.08,973.73c-194.62,0-366.39-100.87-408.86-158.65-58.49-79.6-89.82-173.1-90.59-270.41-1-126.72,49-224.81,148.67-291.56,87.09-58.34,210.8-89.8,357.75-91s271.14,28.32,359.15,85.26c100.71,65.16,152.28,162.45,153.29,289.16h0c.77,97.32-29.06,191.31-86.28,271.82-39.65,55.8-204.63,161.55-423.65,165.27C1432.4,973.7,1429.23,973.73,1426.08,973.73Zm14.55-789-7.4,0c-146.38,1.17-486.57,38.56-484,359.76C950,637,979.76,726,1035.42,801.7c38.93,53,206.31,149.42,390.85,149.43,3,0,5.93,0,8.91-.07,208.37-3.53,369.43-104.86,405.62-155.77,54.44-76.61,82.84-166,82.1-258.55h0C1920.39,220.85,1590.77,184.71,1440.63,184.71Z"/><g class="cls-159"><ellipse class="cls-3" cx="1772.02" cy="502.68" rx="88.71" ry="64.28" transform="translate(974.63 2163.07) rotate(-80.19)"/></g><g class="cls-159"><ellipse class="cls-3" cx="1694.67" cy="679.02" rx="40.72" ry="34.94" transform="translate(531.16 2085.87) rotate(-72.24)"/></g><g class="cls-4"><path class="cls-160" d="M1835.38,295.27c61.36,57.62,98,137.11,98.81,241.37.78,98.1-30.36,189.42-84.17,265.2-40.39,56.81-207.44,157-414.66,160.53-73.16,1.26-143.91-12.63-205.8-33.44,254.62-9.77,458.09-132.73,508.16-203.19,68.36-96.18,107.85-212.09,106.84-336.56A507,507,0,0,0,1835.38,295.27Z"/></g><path class="cls-2" d="M988.63,334.57,958.9,311.11l14,11.18L958,312.35c88-131.76,260-208.3,471.77-210C1640.26,100.77,1813,172,1904.56,297.85a18.93,18.93,0,0,1-27.34,25.89,19.67,19.67,0,0,1-3.07-3.31c-84.2-116.09-246.1-181.87-444.07-180.2-199.08,1.59-359.66,72-440.59,193.15C989.22,333.79,988.93,334.19,988.63,334.57Zm-14.94-11.63h0Z"/><g class="cls-159"><path class="cls-3" d="M1051,698.1s-82.43-255.42,54.76-358.56S1441.52,235.23,1437,248c0,0-219.38,55-304,229.41C1067.72,611.94,1051,698.1,1051,698.1Z"/></g><path class="cls-3" d="M1750.93,1254.85l13.56,104.67,10.57,81.42a42.5,42.5,0,0,1-33.7,47.13c-14.09,2.88-31.58,6.25-51.71,9.72-71.65,12.37-177.07,26.19-283,24.56a42.52,42.52,0,0,1-41.77-41.47l-5.47-216.12a42.53,42.53,0,0,1,43.59-43.61c73.61,1.9,220.29,4.32,302-3.2A42.45,42.45,0,0,1,1750.93,1254.85Z"/><path class="cls-3" d="M1399.72,1221.2l-85.92,9.17a36.22,36.22,0,0,0-32.36,37.12L1288,1481.9a36.21,36.21,0,0,0,33.94,35l79.39,5"/><g class="cls-153"><path class="cls-2" d="M1399.72,1221.2l-85.92,9.17a36.22,36.22,0,0,0-32.36,37.12L1288,1481.9a36.21,36.21,0,0,0,33.94,35l79.39,5"/></g><path class="cls-2" d="M1424.06,1539.22q-8.85,0-17.71-.14a59.06,59.06,0,0,1-58.21-57.77l-5.46-216.13a59.25,59.25,0,0,1,60.73-60.74c77.76,2,220.14,4.21,300-3.14a59,59,0,0,1,64.06,51.4l24.13,186.07a59.45,59.45,0,0,1-46.92,65.68C1679.69,1517.69,1554,1539.22,1424.06,1539.22Zm-22.18-301.37a25.83,25.83,0,0,0-25.79,26.48l5.47,216.13a25.72,25.72,0,0,0,25.31,25.2c132.84,2,264.53-20.4,331.17-34a25.91,25.91,0,0,0,20.44-28.63L1734.36,1257a25.67,25.67,0,0,0-27.85-22.41c-81.6,7.52-225.46,5.28-304,3.28h-.68Z"/><path class="cls-2" d="M1401.32,1538.63l-1.06,0-79.38-5a52.71,52.71,0,0,1-49.61-51.22L1264.73,1268a53.17,53.17,0,0,1,47.3-54.25l85.92-9.16a16.71,16.71,0,1,1,3.54,33.23l-85.92,9.17a19.59,19.59,0,0,0-17.43,20l6.55,214.41a19.41,19.41,0,0,0,18.28,18.87l79.38,5a16.71,16.71,0,0,1-1,33.39Z"/><path class="cls-2" d="M1582.52,1531.29a16.71,16.71,0,0,1-16.67-15.74l-6.39-109.5L1504,1368.64a16.73,16.73,0,0,1-7.33-12.7l-9.07-131.89a16.71,16.71,0,0,1,33.35-2.3l8.51,123.75L1585,1383a16.73,16.73,0,0,1,7.34,12.88l6.87,117.76a16.71,16.71,0,0,1-15.71,17.66Z"/><path class="cls-161" d="M1738.44,1354.82c.69,6.63-3.07,61.13-3.07,61.13l-37.78,3.93c-26,2.71-49.91-22-53.37-55.26s14.83-62.37,40.85-65.07l37.78-3.93S1737.31,1344,1738.44,1354.82Z"/><path class="cls-3" d="M1738.43,1354.82c.7,6.62-3,61.14-3,61.14l-1.25.12c1-15.74,2-34.41,1.57-38.12-1.1-10.8-15.56-59.19-15.56-59.19l-37.78,3.93c-18.18,1.87-32.61,16.71-38.49,36.79-1.22-31.06,16.51-57.38,41.2-59.93l37.78-3.93S1737.32,1344,1738.43,1354.82Z"/><path class="cls-2" d="M1693.75,1434.28c-31.64,0-59.62-29.39-63.65-68.2-4.27-41,19.74-77.14,53.5-80.65l26.38-2.75a27.91,27.91,0,0,1,29.75,20c11.8,40.73,12.57,48.19,12.83,50.64h0c.2,2,.68,6.57-2.25,51.94a27.88,27.88,0,0,1-25,26l-26.24,2.73A52.75,52.75,0,0,1,1693.75,1434.28ZM1712.56,1311l-26,2.7c-17.88,1.86-30.79,24.52-28.2,49.48s19.92,44.4,37.78,42.61l25.87-2.69c2-30.26,2.47-44.13,2.31-46.88C1723.88,1352.49,1720.59,1338.71,1712.56,1311Z"/><ellipse class="cls-161" cx="1729.11" cy="1355.79" rx="47.36" ry="60.49" transform="translate(-130.98 186.15) rotate(-5.94)"/><path class="cls-3" d="M1776.21,1350.89a74.71,74.71,0,0,1,.3,11.83c-7.18-27.1-28.33-45.86-51.18-43.5s-39.79,25.18-41.17,53.24a76.25,76.25,0,0,1-2.16-11.79c-3.46-33.22,14.85-62.36,40.86-65S1772.75,1317.67,1776.21,1350.89Z"/><path class="cls-2" d="M1731.38,1430.36c-15.09,0-29.61-6.52-41.37-18.7-12.27-12.71-20.13-30.29-22.13-49.51s2.07-38,11.47-53c10.09-16.07,25-25.9,42-27.67s33.64,4.78,46.82,18.42c12.28,12.72,20.13,30.3,22.13,49.51h0c2,19.21-2.07,38-11.47,53-10.08,16.06-25,25.89-42,27.66A52.83,52.83,0,0,1,1731.38,1430.36Zm-4.66-120.74q-1.2,0-2.4.12c-8.14.85-15.57,6-20.92,14.52-6,9.61-8.62,22-7.27,35s6.43,24.55,14.31,32.72c7,7.23,15.33,10.77,23.46,9.9s15.58-6,20.92-14.51c6-9.62,8.62-22,7.27-35h0c-1.34-12.92-6.42-24.54-14.31-32.71C1741.48,1313.12,1734.08,1309.62,1726.72,1309.62Z"/><path class="cls-3" d="M933.35,1296.73s113,51.16,381.85,41.92c0,0,49.25,47.2,0,86.19s-326.43,61.43-400.48-18.47C867.84,1355.79,933.35,1296.73,933.35,1296.73Z"/><g class="cls-153"><path class="cls-2" d="M1315.2,1424.86c-49.23,39-326.42,61.4-400.5-18.5-22.29-24-19.17-50-9.7-70.63a68.15,68.15,0,0,0,9.7,13.21c74.08,79.9,351.27,57.46,400.5,18.51a68.28,68.28,0,0,0,12.49-12.64C1338,1372,1346.48,1400.06,1315.2,1424.86Z"/></g><path class="cls-2" d="M1120.05,1476.92c-62.78,0-170.19-8-217.59-59.19-15-16.23-22.2-34.82-21.28-55.28,1.91-42.44,39.38-76.7,41-78.14l8.12-7.32,9.93,4.5c1.71.75,114.63,49.4,374.42,40.46l7-.24,5.1,4.88c2.92,2.8,28.54,28.34,27,61.45-.62,13.09-6,32.37-28.16,49.91-33,26.15-127.46,38.53-201.22,39ZM937.64,1316.35c-8.6,9.79-22.24,28.25-23.07,47.71-.48,11.3,3.58,21.42,12.41,31,67.82,73.19,336.28,49.64,377.85,16.73,10-7.93,15.09-16.2,15.52-25.27.56-11.77-6.82-23.85-12.37-30.86C1087.15,1362.35,972.13,1328.77,937.64,1316.35Z"/><g class="cls-153"><path class="cls-2" d="M1901.1,1693.67c-40.47,48.9-170.26,96.09-240.13,52.31-58.36-36.54-60.21-88.89-101.58-119-2.41-1.75-9.7-4.92-20.83-9.8,131-41.32,250.92-62,358.8-69C1943.84,1605.44,1934.61,1653.16,1901.1,1693.67Z"/></g><path class="cls-3" d="M1337.09,1075c146.39,182.63,387.9,294.61,532.19,424.78,79.08,71.35,66.63,105.69,27.19,153.4-40.44,48.92-135.44,96.11-205.3,52.33-58.36-36.57-62-71.31-103.36-101.44-16.31-11.88-278.76-81.53-424.46-308.61"/><g class="cls-153"><path class="cls-2" d="M1896.46,1653.16c-40.43,48.89-135.43,96.08-205.29,52.3-58.36-36.54-62-71.28-103.38-101.44-16.28-11.88-278.75-81.5-424.44-308.61l3-3.79c162.5,170.83,331.88,181.05,444.38,267.64,40.54,31.2,44.06,41.55,102.42,78.09,69.87,43.78,164.87-3.41,205.29-52.31q3.9-4.68,7.39-9.23C1932.48,1603.41,1918.8,1626.13,1896.46,1653.16Z"/></g><path class="cls-2" d="M1342,1071c31.08,21.93,56.72,46.86,84.14,70.76,26.93,24.19,54.6,47.78,82.52,71.24,28.43,23,57.86,44.72,88,65.75,30,21.2,60.58,41.82,91.12,62.62s61.32,41.54,91.57,63.41q11.43,8,22.63,16.51c7.48,5.62,15,11.12,22.46,16.85,14.7,11.72,29.6,23.12,43.76,35.73a431.57,431.57,0,0,1,41.91,39.85c3.25,3.83,6.54,7.57,9.72,11.5,3,4.2,6.17,8.21,9.07,12.61l4.14,6.89,2.05,3.45c.64,1.21,1.21,2.52,1.8,3.78l3.48,7.65c1,2.67,1.83,5.55,2.71,8.32,3.2,11.21,4.46,24.2,1.82,36.13a100.78,100.78,0,0,1-12.54,31.66,219.82,219.82,0,0,1-17.56,24.78c-2.89,3.77-6.36,7.65-9.88,11.51s-7.21,7.3-10.87,10.89a231.54,231.54,0,0,1-49.34,34.55,216.48,216.48,0,0,1-57,20.59c-20.09,4.09-41.45,5-62.51.78l-7.85-1.82a44.79,44.79,0,0,1-7.74-2.26c-5-2-10.25-3.51-15.06-6s-9.64-5.06-14.18-7.71c-4.14-2.79-8.36-5.39-12.41-8.36a223.64,223.64,0,0,1-23.4-19.22,245.24,245.24,0,0,1-20.44-22c-12.47-15.23-22.42-29.82-34.11-40.81-1.4-1.48-3-2.72-4.47-4.08a59.16,59.16,0,0,0-4.63-3.86l-2.39-1.86-1.19-.93-.59-.46c-.28-.23,0,0,0,0a.74.74,0,0,0,.34.22l-1-.45c-.8-.35-1.4-.67-2.47-1.09-7.77-3.19-16.7-6.52-25.31-9.86-17.4-6.73-34.84-13.79-52.06-21.34-68.89-30.17-135.1-67.73-194.77-114.51-15-11.58-29.37-24-43.5-36.63-13.89-12.93-28.2-25.49-41.36-39.29a246.86,246.86,0,0,1-18.91-21.44c-3-3.69-6-7.4-8.67-11.38s-5.5-7.8-8.11-11.8a199.66,199.66,0,0,1-13.72-25.26,154,154,0,0,1-9.2-27.81,6.74,6.74,0,0,1,10.31-7l.32.21c8.27,5.55,15,11.89,21.89,18.1s13.07,12.76,19.43,19.18c3.14,3.23,6.16,6.55,9.15,9.89s6.14,6.54,9.13,9.87,6,6.6,9,10,6.06,6.59,9,10a519.57,519.57,0,0,0,37.32,38.81c13.35,12,27,23.77,41.28,34.79,56.74,44.51,120.16,80.56,186.62,109.66,16.63,7.29,33.46,14.11,50.53,20.71,8.62,3.35,17,6.45,26.35,10.28,1.08.42,2.56,1.12,3.87,1.71.73.35,1.2.53,2.15,1,1.13.61,2.25,1.26,3.34,1.94.47.3,1.27.79,1.44.95l.77.59,1.55,1.2,3.09,2.4c4.12,3.17,8,6.72,11.77,10.27,15.21,14.52,26.1,30.79,37.11,44a186.84,186.84,0,0,0,36.64,34.54c3.39,2.5,7.07,4.73,10.57,7.13l10.18,5.5c3.39,1.79,7.16,2.74,10.69,4.23a26.3,26.3,0,0,0,5.54,1.61l5.66,1.31c15.22,3,31.49,2.51,47.55-.76,32.11-6.64,63.61-23.41,88.14-45.84,2.92-2.9,6.15-5.61,8.71-8.72s5.42-5.95,8.17-9.52a181.45,181.45,0,0,0,14.52-20.38,63.54,63.54,0,0,0,8-19.52c1.45-6.2.68-12.19-1-18.65-3.73-12.91-13.31-26.71-24.78-39.33a397.13,397.13,0,0,0-38.44-36.44c-13.45-12-27.92-23.06-42.12-34.39-7.2-5.56-14.6-10.94-21.89-16.42s-14.65-10.9-22.17-16.17c-29.65-21.44-60.27-42-90.74-62.84s-61.29-41.5-91.67-63c-30.51-21.23-60.32-43.71-90.39-66-29.61-22.92-59.21-46.23-85.42-73.48-26.95-26.26-50.56-56.66-66.91-91.39a6.49,6.49,0,0,1,9.6-8.07Z"/><path class="cls-2" d="M1348.46,1500.33a17,17,0,0,1-4-.48,16.72,16.72,0,0,1-12.28-20.2c2.28-9.32,57.21-227.24,209-227.24h2.47a16.72,16.72,0,0,1-.52,33.43l-1.85,0c-126,0-176.11,199.72-176.61,201.74A16.72,16.72,0,0,1,1348.46,1500.33Z"/></g></g></svg>