<svg xmlns="http://www.w3.org/2000/svg" viewBox="0 0 3035.67 2430.91"><defs><style>.cls-1{fill:#fff;}.cls-2{opacity:0.35;}.cls-3{fill:#371a45;}.cls-4{fill:#22a7f0;}.cls-5{fill:#220f2d;}.cls-6{opacity:0.7;}.cls-7{fill:#ffe266;}.cls-8{fill:#3e8dff;}.cls-9{opacity:0.3;}.cls-10{fill:#6b184e;}.cls-11{fill:#db2c2c;}</style></defs><g id="Capa_2" data-name="Capa 2"><g id="Layer_1" data-name="Layer 1"><path class="cls-1" d="M1939.9,959.87s263.95-20.23,341.58,33.51c139.91,96.86,179.13,621,70.48,806.8-79.75,136.37-568.52,66-568.52,66"/><g class="cls-2"><path class="cls-3" d="M2352,1800.19c-79.75,136.36-568.54,66-568.54,66L1826.26,1618c106.32,12.57,471.51,46.52,539.48-69.7,21.2-36.22,36.77-85.34,47-141.62C2420.38,1559.81,2401.6,1715.32,2352,1800.19Z"/></g><path class="cls-3" d="M2044.19,1899.59h-6.46c-131.7-.55-255.24-18.13-256.47-18.3a15.27,15.27,0,0,1,4.35-30.22c133.13,19.15,492,46,553.18-58.58,106.65-182.36,63.47-696.92-66-786.55-60-41.53-259.8-36.35-331.72-30.84a15.26,15.26,0,0,1-2.34-30.44c11-.84,270.28-20,351.44,36.18,68.76,47.6,119.22,190.16,135,381.35,12,145.39,2.51,338.82-60,445.71C2329.55,1868.75,2221.57,1899.59,2044.19,1899.59Z"/><path class="cls-1" d="M2400.08,1425l-135.55,10.49a26.62,26.62,0,0,0-24.19,21.84c-7.81,43.75-20.61,145.74,22,179.32,35.37,27.87,92.69,24.46,126.22-4,37.51-31.89,40.95-131.9,40.23-181.41A26.66,26.66,0,0,0,2400.08,1425Z"/><g class="cls-2"><path class="cls-3" d="M2240.35,1457.31c-7.83,43.73-20.62,145.73,22,179.29,35.37,27.88,92.68,24.47,126.23-4,23-19.63,33.24-65,37.49-108.55-6.06,21.76-15.61,39.44-27.51,51.06-68.18,66.54-119.37-11.62-119.37-11.62s-8.81,19-15.86,20.12c-29.49,4.57-23.6-87.8-19.44-135.52A25.93,25.93,0,0,0,2240.35,1457.31Z"/></g><path class="cls-3" d="M2321.87,1671.1c-25.07,0-49.86-7.44-69-22.5-47.46-37.39-37.65-137.59-27.58-194a41.89,41.89,0,0,1,38-34.38l135.54-10.49a41.92,41.92,0,0,1,45.17,41.19c1,69.61-6.09,159.65-45.61,193.26C2377.44,1662.05,2349.49,1671.1,2321.87,1671.1Zm79.39-230.92-135.55,10.49a11.36,11.36,0,0,0-10.34,9.3c-14.87,83.28-8.73,144.83,16.42,164.65,28.86,22.73,77.81,21,106.89-3.69,23.08-19.63,36.12-83,34.86-169.55a11.39,11.39,0,0,0-12.28-11.2Z"/><path class="cls-3" d="M2323.65,1667.59a52,52,0,0,1-6.49-4.36c-1.83-1.42-3.61-2.87-5.25-4.39a96.17,96.17,0,0,1-9.22-9.53,114,114,0,0,1-14.42-21.36,144.53,144.53,0,0,1-15.23-47.3,202.5,202.5,0,0,1-2-24.22c-.42-8.11,0-15.85.28-23.79s1-15.79,2.07-23.68,2.3-15.53,5.24-23.85a4,4,0,0,1,7.7,2.26l-.13.52c-1.57,6.53-2.14,14.53-2.42,21.95s-.09,15.18.33,22.79c.85,15.32,2.49,30.29,6,44.56a124.62,124.62,0,0,0,17.19,39.42,90.88,90.88,0,0,0,13.25,15.9,71,71,0,0,0,7.66,6.44c1.31,1,2.64,1.86,4,2.69a29.67,29.67,0,0,0,3.35,1.81,13.62,13.62,0,1,1-8,26,13.36,13.36,0,0,1-2.68-1.15Z"/><path class="cls-3" d="M2098.93,1054.77a15.27,15.27,0,0,1-6.36-29.15c123.75-56.68,199.58-39.75,202.75-39a15.26,15.26,0,0,1-7,29.72c-.95-.21-70-14.75-183.09,37A15.26,15.26,0,0,1,2098.93,1054.77Z"/><path class="cls-1" d="M1400.07,1056.31s-121.22,363.92-453.89,481.39v223.24h453.89Z"/><path class="cls-1" d="M1400.08,1056.29v704.64H946.2V1537.69C1278.84,1420.23,1400.08,1056.29,1400.08,1056.29Z"/><g class="cls-2"><path class="cls-3" d="M1400.08,1198.63v562.3H999.51C1291.89,1615.73,1400.08,1198.63,1400.08,1198.63Z"/></g><path class="cls-3" d="M1415.33,1776.21H930.92v-249.3l10.18-3.6c321.52-113.53,443.3-468.26,444.49-471.83l29.74-89Zm-453.88-30.53h423.36v-613.5a987.42,987.42,0,0,1-74.31,129.36c-65.58,96.39-179,223.45-349,286.86Z"/><path class="cls-1" d="M2250.72,1760.93H1261.59s54.46-273.77,103.92-569.28c7.67-45.79,15.22-92.12,22.43-138,60.14-383.24,633.35-133.33,633.35-133.33s22.4,30.64,53.2,91.09C2138.26,1136.35,2238.12,1388.82,2250.72,1760.93Z"/><path class="cls-3" d="M2266.5,1776.21H1243l3.63-18.24c.73-3.65,73.2-368.86,126.23-706.72,13.83-88.1,55-151.51,122.32-188.47,189.25-103.87,518.33,37.44,532.24,43.51l3.79,1.65,2.44,3.34c2.2,3,54.48,75.4,109.58,216.79,50.62,129.91,113,345.07,122.74,632.36Zm-986.35-30.53h954.71C2214.41,1246.55,2034,966,2011.31,932.63c-37.6-15.59-335.87-134-501.49-43.07-58.59,32.18-94.53,88.17-106.82,166.42C1356.65,1351.33,1295.48,1667.47,1280.15,1745.68Z"/><g class="cls-2"><path class="cls-3" d="M1730.05,1802.38c-1.56,8.28-3,16.4-4.35,24.42C1727,1818.78,1728.45,1810.66,1730.05,1802.38Z"/></g><g class="cls-2"><path class="cls-3" d="M1352.91,1438.48c-9.27,83.38-14.65,155.65-15.76,216C1335.63,1598.26,1341.08,1525.79,1352.91,1438.48Z"/></g><circle class="cls-1" cx="1307.47" cy="1560.94" r="70.96" transform="translate(-720.8 1381.71) rotate(-45)"/><g class="cls-2"><path class="cls-3" d="M1236.55,1562.78a71,71,0,1,0,141.88-3.7,70,70,0,0,0-7.61-30.14,71,71,0,0,1-128.24,3.34A70.14,70.14,0,0,0,1236.55,1562.78Z"/></g><path class="cls-3" d="M1307.44,1644.41a83.56,83.56,0,0,1-83.4-81.3h0a83.46,83.46,0,1,1,85.61,81.27C1308.91,1644.4,1308.18,1644.41,1307.44,1644.41Zm.07-141.93-1.56,0a58.47,58.47,0,0,0-56.92,60c.84,32.22,27.86,57.61,60,56.92a58.47,58.47,0,0,0-1.49-116.91Z"/><g class="cls-2"><path class="cls-3" d="M1341.86,1630.09a1088.77,1088.77,0,0,0,11.06-219.28,1104.06,1104.06,0,0,1-11.56,119.31c-7.37,48.66-9.64,99.46-5.12,149.34C1337.5,1662.87,1339.41,1646.36,1341.86,1630.09Z"/></g><path class="cls-1" d="M1410.17,1767.51l370.57,19a80.14,80.14,0,0,0,83.9-75.7l10.12-197.2a80.18,80.18,0,0,0-59.84-81.45,77.05,77.05,0,0,0-15.86-2.44l-370.52-19a80.06,80.06,0,0,0-83.89,75.69l-8.06,156.19-2.12,41C1332.2,1727.53,1366.31,1765.24,1410.17,1767.51Z"/><g class="cls-2"><path class="cls-3" d="M1410.17,1767.51l370.57,19a80.14,80.14,0,0,0,83.9-75.7l10.12-197.2a80.18,80.18,0,0,0-59.84-81.45c-21.76,12.89-35.58,21.15-35.58,21.15-26.18,157.36-75.31,234-272,227.09-84.92-3-137.81-18.69-170.71-37.84l-2.12,41C1332.2,1727.53,1366.31,1765.24,1410.17,1767.51Z"/></g><path class="cls-3" d="M1784.89,1801.94q-2.46,0-5-.12h0l-370.55-19.06a95.38,95.38,0,0,1-90.15-99.92l10.14-197.23a95.33,95.33,0,0,1,99.92-90.15l370.56,19a95.27,95.27,0,0,1,90.15,99.92l-10.15,197.23a95.41,95.41,0,0,1-95,90.28Zm-3.38-30.61a64.72,64.72,0,0,0,67.87-61.24l10.14-197.22a64.72,64.72,0,0,0-61.24-67.88l-370.54-19a64.89,64.89,0,0,0-67.87,61.23l-10.14,197.24a64.85,64.85,0,0,0,61.23,67.86l370.55,19.06Z"/><path class="cls-1" d="M1395.37,1765.29a71.61,71.61,0,0,0,14.8,2.22l370.57,19a80,80,0,0,0,75-43.16,78.48,78.48,0,0,0,8.83-32.53l4.54-87.61,1.49-28.91,4.15-80.69c2.27-43.91-31.84-81.62-75.7-83.89l-80.07-4.1a80.14,80.14,0,0,1,61,81.67l-5.45,106.53-4.67,90.73c-2.27,43.86-40,78-83.9,75.7Z"/><g class="cls-2"><path class="cls-3" d="M1395.37,1765.29a71.61,71.61,0,0,0,14.8,2.22l370.57,19a80,80,0,0,0,83.84-75.69l6-116.52c-10.38,20.11-28.42,44.52-55.35,45.8-14.77.73-28.7-10.59-40.71-26.28l-4.67,90.73c-2.27,43.86-40,78-83.9,75.7Z"/></g><path class="cls-3" d="M1785,1801.94c-1.66,0-3.33,0-5-.13l-370.57-19.06a88.82,88.82,0,0,1-17.8-2.65l4.56-30,290.64,15a64.83,64.83,0,0,0,67.83-61.22l10.14-197.24a64.69,64.69,0,0,0-49.34-66.1l4.39-30.08,80,4.1a95.43,95.43,0,0,1,90.15,100l-10.14,197.22a95.39,95.39,0,0,1-94.9,90.28Zm-30-32,26.56,1.36a64.83,64.83,0,0,0,67.83-61.22h0l10.14-197.22a64.89,64.89,0,0,0-61.24-67.89l-23.85-1.22a95,95,0,0,1,20.83,64.38l-10.14,197.22A94.41,94.41,0,0,1,1755,1770Z"/><path class="cls-4" d="M1628.74,1600.05c-.34,7.3,7.23,66.65,7.23,66.65l41.56,1.9c28.62,1.31,53.17-27.26,54.84-63.81s-20.18-67.25-48.8-68.55l-41.56-1.9S1629.28,1588.17,1628.74,1600.05Z"/><g class="cls-2"><path class="cls-3" d="M1628.74,1600.05c-.34,7.3,7.23,66.65,7.23,66.65l41.56,1.9c28.62,1.31,53.17-27.26,54.84-63.81s-20.18-67.25-48.8-68.55l-41.56-1.9S1629.28,1588.17,1628.74,1600.05Z"/></g><path class="cls-3" d="M1679.39,1680.09c-.79,0-1.58,0-2.38,0l-28.87-1.32a26.44,26.44,0,0,1-25.11-23.23c-6-49.1-5.82-54.08-5.73-56,.32-7,3.92-25.63,10.71-55.45a26.52,26.52,0,0,1,27.07-20.6l29,1.32c17.43.8,33.26,10,44.56,25.86,10.69,15,16.07,34.42,15.15,54.65C1741.9,1647.13,1713.24,1680.09,1679.39,1680.09Zm-39.22-79.54c0,1,.18,8.21,5.59,52.14a3.59,3.59,0,0,0,3.43,3.16l28.86,1.31c22.41,1,41.5-22.71,42.88-52.9.69-15.13-3.18-29.45-10.92-40.33-7.14-10-16.71-15.79-27-16.26l-29-1.32a3.62,3.62,0,0,0-3.7,2.81C1641.31,1588.83,1640.27,1598.5,1640.17,1600.55Zm-11.43-.5h0Z"/><ellipse class="cls-4" cx="1638.99" cy="1600.52" rx="66.25" ry="51.87" transform="translate(-34.61 3164.82) rotate(-87.39)"/><path class="cls-1" d="M1690.82,1602.88a81.84,81.84,0,0,1-3.85,21.52c.72-35.57-20.8-65-48.85-66.32-22.67-1-42.78,16.71-51,42.32a21.31,21.31,0,0,1,0-2.26c1.68-36.55,26.21-65.1,54.83-63.8S1692.46,1566.32,1690.82,1602.88Z"/><g class="cls-2"><path class="cls-3" d="M1690.82,1602.88c-1.68,36.55-26.22,65.14-54.84,63.84s-50.48-32-48.8-68.58a82.09,82.09,0,0,1,3.47-20.22c7.14,23.16,24.42,39.8,45.33,40.75,23,1,43.47-17.28,51.37-43.57A80.38,80.38,0,0,1,1690.82,1602.88Z"/></g><path class="cls-3" d="M1637.9,1678.2c-.81,0-1.63,0-2.45-.06-34.87-1.59-61.66-37.71-59.71-80.5h0c2-42.79,31.77-76.38,66.8-74.73,17.43.8,33.25,10,44.56,25.86,10.69,15,16.07,34.43,15.14,54.65s-8,39.06-20.06,53S1654.44,1678.2,1637.9,1678.2Zm-39.29-79.52c-1.37,30.18,15.62,55.57,37.89,56.59,10.18.46,20.3-4.42,28.31-13.74,8.7-10.12,13.87-24,14.56-39.16s-3.19-29.46-10.93-40.33c-7.13-10-16.7-15.8-27-16.26-22.43-1-41.5,22.72-42.88,52.9Z"/><path class="cls-3" d="M1525.45,1783.45h-.33a11.45,11.45,0,0,1-11.12-11.76l3.62-130.79-61.53-43.25,8.86-184.91a11.6,11.6,0,0,1,12-10.89,11.45,11.45,0,0,1,10.88,12l-8.25,172.32,61.29,43.08-4,143.08A11.46,11.46,0,0,1,1525.45,1783.45Z"/><path class="cls-1" d="M2196.48,1510.3s34.29,27.29,35.8,69.4c1.75,48.68-28.71,68.42-28.71,68.42s-133.28,68.24-347.1,22.9c0,0-62.94-79.55,7.16-124.44C1863.63,1546.58,2089.32,1577.57,2196.48,1510.3Z"/><g class="cls-2"><path class="cls-3" d="M2232.27,1579.73c1.74,48.62-28.69,68.36-28.69,68.36s-133.26,68.26-347.13,22.91c0,0-20.7-26.23-25.1-57,1,1.52,1.67,2.31,1.67,2.31,156.3,33.16,269.55,5.6,319.16-11.62,34.47-12,57.51-43.26,56.7-78.2,0-.48,0-1,0-1.45a14.7,14.7,0,0,0-.19-2.41C2218.66,1534.59,2231.39,1554.5,2232.27,1579.73Z"/></g><path class="cls-3" d="M2001.32,1702c-43.6,0-93.18-4.37-148-16l-5.39-1.14-3.42-4.32c-1.46-1.85-35.75-45.83-28.15-91.26,3.8-22.67,16.94-41.34,39.06-55.51l4.73-3,5.57.76c2.2.3,221.48,29.44,322.67-34.08l9.16-5.75,8.46,6.74c1.62,1.29,39.81,32.22,41.55,80.79,2,56.68-34.13,80.78-35.67,81.78l-1.34.78C2206.32,1663.86,2130,1702,2001.32,1702Zm-135.9-44.66c193.34,39.38,318.84-16.89,330.36-22.35,3.46-2.64,22.54-18.83,21.25-54.7-.83-23.2-14.2-41.48-22.84-50.94-104.49,56.65-290.51,37.55-326.74,33.15-12,8.83-18.89,19.29-21,31.82C1842.23,1619.5,1858.46,1647,1865.42,1657.29Z"/><g class="cls-2"><path class="cls-3" d="M2074.49,1011.38C1983.71,1135,1847.55,1216,1699,1239.39q-16.38,2.52-32.86,4.2a575,575,0,0,1-91.66,1.6,568,568,0,0,1-76.63-10,576.1,576.1,0,0,1-88.34-25c-9.65-3.63-19.19-7.44-28.5-11.49-5.23-2.25-10.42-4.58-15.53-7,7.67-45.79,15.22-92.12,22.43-138,60.14-383.24,633.35-133.33,633.35-133.33S2043.69,950.93,2074.49,1011.38Z"/></g><path class="cls-1" d="M1099,890.79A573,573,0,0,0,1307.12,1093a578.88,578.88,0,0,0,55.49,27.59c9.31,4.06,18.84,7.86,28.52,11.51a579.83,579.83,0,0,0,165,35.06,571.22,571.22,0,0,0,91.63-1.6q16.53-1.68,32.86-4.21c199.29-31.33,376.26-166.46,451.42-369,110.77-298.42-41.38-630.11-339.75-740.88a574.79,574.79,0,0,0-174.38-35.53c-6.79-.37-13.62-.54-20.44-.57q-27.37-.3-54.41,2a579.65,579.65,0,0,0-235.45,73q-17.11,9.69-33.6,20.55a575.85,575.85,0,0,0-222.6,280.33C987.65,562.84,1010.94,745.48,1099,890.79Z"/><path class="cls-3" d="M1591.79,1169.79q-18,0-35.79-1.13a574.62,574.62,0,0,1-76.83-10.05,580.63,580.63,0,0,1-88.57-25.1c-10.61-4-20-7.78-28.61-11.54a587.34,587.34,0,0,1-55.63-27.66,576.56,576.56,0,0,1-208.7-202.73c-92.09-152-109.48-334.58-47.72-500.93a577.42,577.42,0,0,1,223.19-281.08c10.77-7.12,22.11-14,33.69-20.61A581.09,581.09,0,0,1,1542.9,15.77c18-1.53,36.35-2.22,54.55-2,7.31,0,14,.21,20.52.56A576.46,576.46,0,0,1,1792.79,50c298.73,110.9,451.54,444.15,340.66,742.85-72.63,195.78-246.06,337.57-452.62,370-10.86,1.68-21.95,3.1-32.95,4.21C1629.23,1168.88,1610.46,1169.79,1591.79,1169.79ZM1100.28,890a573.51,573.51,0,0,0,207.59,201.64,580.26,580.26,0,0,0,55.35,27.52c8.59,3.74,17.9,7.5,28.45,11.48a578.21,578.21,0,0,0,88.1,25,570.63,570.63,0,0,0,167.8,8.41c11-1.11,22-2.52,32.79-4.2,205.46-32.3,378-173.33,450.21-368.06,110.29-297.12-41.71-628.59-338.84-738.91a573.51,573.51,0,0,0-173.92-35.44c-6.45-.35-13.11-.53-20.38-.56-18.12-.18-36.38.48-54.27,2a577.8,577.8,0,0,0-234.82,72.81c-11.53,6.52-22.81,13.42-33.51,20.49a574.48,574.48,0,0,0-222,279.59C991.39,557.18,1008.69,738.79,1100.28,890Z"/><g class="cls-2"><path class="cls-3" d="M2132,792.26c-75.14,202.61-252.14,337.75-451.43,369q-16.33,2.55-32.84,4.21a577.28,577.28,0,0,1-256.62-33.44c-9.66-3.68-19.19-7.46-28.52-11.5a588.42,588.42,0,0,1-55.48-27.62A572.81,572.81,0,0,1,1099,890.77a580,580,0,0,1-62.78-145.26A575.11,575.11,0,0,0,1292.79,964c9.29,4.05,18.83,7.83,28.52,11.5a579,579,0,0,0,165,35.06,573.48,573.48,0,0,0,91.63-1.61q16.56-1.68,32.88-4.23c199.29-31.3,376.25-166.42,451.43-369a573.54,573.54,0,0,0,15.11-354.4C2171.17,428.38,2197.4,616.12,2132,792.26Z"/></g><path class="cls-3" d="M1591.78,1180.08q-18.3,0-36.43-1.14A591.72,591.72,0,0,1,1387,1143.16c-10.82-4.08-20.33-7.92-29.13-11.75a596.67,596.67,0,0,1-56.58-28.14,586.89,586.89,0,0,1-212.45-206.35c-93.72-154.71-111.42-340.54-48.57-509.86A587.79,587.79,0,0,1,1267.45,101c11-7.25,22.51-14.3,34.3-21A591.56,591.56,0,0,1,1542,5.51c18.32-1.56,37-2.27,55.55-2,7.41,0,14.29.22,21,.58a586.81,586.81,0,0,1,177.85,36.25C2100.42,153.18,2256,492.36,2143.1,796.39,2069.19,995.64,1892.66,1140,1682.43,1173c-11.07,1.72-22.33,3.16-33.51,4.29C1629.9,1179.16,1610.79,1180.08,1591.78,1180.08ZM1109.09,884.66a563.1,563.1,0,0,0,203.85,198,571.34,571.34,0,0,0,54.36,27c8.47,3.69,17.61,7.38,28,11.3a567.42,567.42,0,0,0,86.48,24.49,560.53,560.53,0,0,0,164.79,8.26c10.73-1.08,21.58-2.47,32.21-4.12,201.76-31.72,371.19-170.23,442.13-361.48,108.32-291.79-41-617.33-332.76-725.67a563.42,563.42,0,0,0-170.79-34.8c-6.38-.35-12.88-.53-20-.56-17.83-.16-35.79.47-53.36,2a567.48,567.48,0,0,0-230.62,71.51c-11.32,6.41-22.39,13.18-32.91,20.12a564.25,564.25,0,0,0-218,274.58C1002.14,557.8,1019.13,736.16,1109.09,884.66Z"/><path class="cls-3" d="M1591.78,1183.52q-18.42,0-36.65-1.16a587.23,587.23,0,0,1-78.67-10.3,593.17,593.17,0,0,1-90.64-25.68c-10.9-4.11-20.46-8-29.31-11.83a599.74,599.74,0,0,1-56.9-28.29,590.34,590.34,0,0,1-213.7-207.56h0c-94.26-155.61-112.07-342.53-48.84-512.83A591,591,0,0,1,1265.56,98.12c11-7.29,22.64-14.39,34.5-21.1A594.74,594.74,0,0,1,1541.73,2.09C1560.16.52,1579-.15,1597.6,0c7.45,0,14.39.22,21.11.58a590.3,590.3,0,0,1,178.86,36.46c305.82,113.55,462.27,454.71,348.75,760.51C2072,998,1894.42,1143.16,1683,1176.4c-11.14,1.73-22.47,3.17-33.71,4.31C1630.13,1182.58,1610.9,1183.52,1591.78,1183.52ZM1112,882.88a559.65,559.65,0,0,0,202.6,196.8,566.83,566.83,0,0,0,54,26.87c8.42,3.67,17.52,7.34,27.86,11.23a562.73,562.73,0,0,0,85.93,24.35,557.69,557.69,0,0,0,163.79,8.2c10.66-1.07,21.45-2.45,32-4.09C1878.79,1114.71,2047.18,977,2117.7,787,2225.36,496.94,2077,173.38,1787,65.7A559.62,559.62,0,0,0,1617.2,31.11c-6.35-.35-12.78-.52-19.82-.55-17.83-.19-35.61.46-53.06,1.95a564.3,564.3,0,0,0-229.22,71.07c-11.26,6.38-22.26,13.1-32.71,20a560.44,560.44,0,0,0-216.7,272.9c-60,161.52-43.08,338.79,46.34,486.39Z"/><path class="cls-3" d="M1191.06,1006.25c348.65,219.37,799.31,29.17,803.86-378.79,3.09-277.55-266.27-494.87-533-480.77C1267.73,157,1082.67,251.9,1016.22,557.59c0,0-8.52,139.86,33.67,230.67s98.55,172,98.55,172Z"/><path class="cls-5" d="M1994.9,627.47c-4.54,407.94-455.21,598.14-803.84,378.8l-8.63-9.34c374.29,48.3,733.34-191.75,745.61-604.14C1970.89,461.9,1995.84,541.82,1994.9,627.47Z"/><path class="cls-3" d="M1503,1172.81q-12,0-24.14-.46l-2.39-.28a593.54,593.54,0,0,1-90.68-25.69c-10.9-4.11-20.46-8-29.31-11.83a599.74,599.74,0,0,1-56.9-28.29,590.34,590.34,0,0,1-213.7-207.56c-94.26-155.61-112.07-342.53-48.84-512.83A590.35,590.35,0,0,1,1216.6,134.2l1.23-1,1.4-.73c67.66-35.07,147.19-55.24,236.4-60,159-8.39,325.67,55.55,446.07,171,110.66,106.14,170.72,242.8,169.13,384.78-1.74,154.31-58.29,288.82-163.55,389C1802.73,1116.84,1656.52,1172.81,1503,1172.81Zm-21.76-30.92c153.55,5.58,301.14-47.86,405-146.67,99.15-94.37,152.43-221.35,154.07-367.23,1.49-133.46-55.23-262.17-159.73-362.41C1766.14,155.82,1607.89,95,1457.24,103c-84.22,4.45-159.08,23.24-222.55,55.85a559.88,559.88,0,0,0-169,237.64c-60,161.52-43.08,338.79,46.34,486.39a559.65,559.65,0,0,0,202.6,196.8,566.83,566.83,0,0,0,54,26.87c8.43,3.67,17.52,7.34,27.86,11.23A562.07,562.07,0,0,0,1481.27,1141.89Z"/><path class="cls-3" d="M1504.45,1113.76c-109.74,0-221.69-31.78-321.52-94.59l-1.7-1.07L1135.9,969c-2.34-3.36-57.6-83.32-99.85-174.27-43.32-93.24-35.42-232.16-35.06-238l.32-2.31c58.16-267.57,212.85-409.85,459.77-422.9C1602.93,124,1751.74,181,1859.19,284.07c98.78,94.76,152.41,216.77,151,343.56-2,183.07-92.63,336.8-248.53,421.77C1682.69,1092.44,1594.31,1113.76,1504.45,1113.76ZM1200.88,994.39c171.9,107.37,381,118.22,546.16,28.21C1893,943.07,1977.74,799,1979.65,627.29,1981,509,1930.69,395,1838.05,306.1c-101.46-97.33-241.75-151.22-375.36-144.16-231.11,12.21-376.21,146-431.29,397.69-.66,13.26-5.76,140.19,32.33,222.2,38.83,83.57,90.56,160,96.65,168.86Z"/><ellipse class="cls-1" cx="2100.7" cy="613.13" rx="149.77" ry="206.11" transform="translate(-31.55 120.79) rotate(-3.27)"/><g class="cls-2"><path class="cls-3" d="M2123.19,817.75c-76.4,12-148.07-57.81-167.42-159a110.52,110.52,0,0,0,47.09,2.82c81.9-12.9,177.73-109.82,165.33-222.82-.84-7.59-41.46-20.15-42.87-27.44C2187.64,428.71,2239,499,2249,589.78,2261.4,702.81,2205.08,804.85,2123.19,817.75Z"/></g><path class="cls-3" d="M2105.86,834.38c-29.12,0-57.66-10.17-83.52-29.94C1976,769,1945,708.39,1937.24,638.13c-13.28-120.81,48.89-230.59,138.6-244.71,35.83-5.64,71.54,4.18,103.23,28.4,46.36,35.44,77.37,96.05,85.09,166.31h0c13.28,120.81-48.89,230.59-138.6,244.7A126.12,126.12,0,0,1,2105.86,834.38Zm-10.52-412a95.43,95.43,0,0,0-14.76,1.16c-73.83,11.62-124.52,106.37-113,211.22,6.72,61.09,34.12,115.44,73.3,145.38,24.89,19,52.54,26.81,79.94,22.5,73.83-11.62,124.52-106.37,113-211.22h0c-6.72-61.09-34.12-115.44-73.29-145.38C2140.1,430.46,2117.82,422.42,2095.34,422.42Z"/><ellipse class="cls-1" cx="2150.56" cy="624.94" rx="122.03" ry="163.58" transform="translate(-13.69 49.19) rotate(-1.31)"/><path class="cls-3" d="M2152.37,790.19a95.87,95.87,0,0,1-35.22-6.85c-65.52-25.71-104-117.61-85.71-204.86,10.23-48.86,36.28-87.79,71.49-106.81,25.91-14,53.94-15.79,81.05-5.14,65.51,25.71,104,117.61,85.7,204.87-10.23,48.86-36.28,87.79-71.49,106.8A95.66,95.66,0,0,1,2152.37,790.19Zm-3.6-327.31a92.59,92.59,0,0,0-44.33,11.6c-34.37,18.57-59.84,56.71-69.87,104.65-18,85.8,19.61,176.08,83.74,201.24,26.21,10.28,53.3,8.57,78.37-5,34.37-18.57,59.84-56.72,69.87-104.66,18-85.8-19.61-176.07-83.73-201.24A92.91,92.91,0,0,0,2148.77,462.88Z"/><g class="cls-2"><path class="cls-3" d="M2043.55,706.4c-10.8-29-13.66-61.16-9.73-92,30.19,64.17,93.83,84.71,147.31,45.2,34.57-25.52,56.92-70.28,63-118.08,1.93,4,3.69,8.31,5.33,12.71,27.46,74,3.62,168.06-53.25,210.09S2071,780.35,2043.55,706.4Z"/></g><path class="cls-3" d="M2155.73,803.85c-21.53,0-42.75-7.58-62.12-22.32C2056.15,753,2030,700.39,2023.7,640.75c-10.77-101.62,36.17-190.38,106.85-202.08,26.67-4.41,53.39,2.87,77.29,21.06,37.46,28.51,63.6,81.14,69.92,140.78,10.76,101.62-36.18,190.38-106.86,202.08A92.51,92.51,0,0,1,2155.73,803.85ZM2145.53,468a61.24,61.24,0,0,0-10,.83c-52.92,8.76-90.24,86-81.47,168.74,5.45,51.44,27.15,96.19,58.05,119.71,17,13,35.64,18.25,53.81,15.23,52.92-8.76,90.24-86,81.47-168.74-5.45-51.44-27.14-96.19-58-119.71C2175.42,473.42,2160.45,468,2145.53,468Z"/><g class="cls-6"><path class="cls-1" d="M1604.28,240.71S1344.22,271.14,1208.63,429l-.43.5a246.59,246.59,0,0,0-55.3,116.68c-10.31,57-9.07,97.77-6.59,133.62,7.59,109,31.54,158.73,31.54,158.73-66-53.3-105.53-116.28-112.75-207.05q-1-13.42-1.16-27.71c0-2.2,0-4.37,0-6.56,0,0,0-.06,0-.13a610.56,610.56,0,0,1,8.87-72.82c15.64-85.28,55.61-197.88,157.17-255.9C1420,159.81,1612.47,228.69,1604.28,240.71Z"/></g><g class="cls-6"><ellipse class="cls-1" cx="1816.93" cy="495.71" rx="77.04" ry="89.77" transform="translate(-62.49 617.12) rotate(-18.96)"/></g><g class="cls-6"><ellipse class="cls-1" cx="1869.92" cy="649.97" rx="31.81" ry="37.07" transform="translate(-103.28 809.82) rotate(-23.8)"/></g><path class="cls-3" d="M2981.35,1700.22c-195.45,423.74-770.1,730.69-1448.61,730.69S279.57,2124,84.12,1700.22Z"/><path class="cls-7" d="M1987.58,2172.26l-18,2.78a8.38,8.38,0,0,0-7,7l-2.78,18-2.79-18a8.37,8.37,0,0,0-7-7l-18-2.78,18-2.79a8.36,8.36,0,0,0,7-7l2.79-18,2.78,18a8.37,8.37,0,0,0,7,7Z"/><path class="cls-7" d="M1522.58,2092.26l-18,2.78a8.38,8.38,0,0,0-7,7l-2.78,18-2.79-18a8.37,8.37,0,0,0-7-7l-18-2.78,18-2.79a8.36,8.36,0,0,0,7-7l2.79-18,2.78,18a8.37,8.37,0,0,0,7,7Z"/><path class="cls-7" d="M1695.46,2270.58l-18.14,2.8a8.45,8.45,0,0,0-7,7l-2.8,18.14-2.8-18.14a8.42,8.42,0,0,0-7.05-7l-18.14-2.8,18.14-2.81a8.42,8.42,0,0,0,7.05-7l2.8-18.15,2.8,18.15a8.45,8.45,0,0,0,7,7Z"/><path class="cls-7" d="M2517.34,2065.83l-24.46,3.77a11.37,11.37,0,0,0-9.5,9.51l-3.78,24.46-3.78-24.46a11.37,11.37,0,0,0-9.5-9.51l-24.46-3.77,24.46-3.78a11.36,11.36,0,0,0,9.5-9.5l3.78-24.47,3.78,24.47a11.36,11.36,0,0,0,9.5,9.5Z"/><path class="cls-7" d="M316.86,1775.83l-21.22,3.27a9.87,9.87,0,0,0-8.24,8.25l-3.28,21.22-3.28-21.22a9.87,9.87,0,0,0-8.24-8.25l-21.22-3.27,21.22-3.28a9.86,9.86,0,0,0,8.24-8.24l3.28-21.23,3.28,21.23a9.86,9.86,0,0,0,8.24,8.24Z"/><path class="cls-7" d="M1232.83,2023.1l-23,3.55a10.67,10.67,0,0,0-8.93,8.93l-3.55,23-3.55-23a10.68,10.68,0,0,0-8.93-8.93l-23-3.55,23-3.55a10.68,10.68,0,0,0,8.93-8.93l3.55-23,3.55,23a10.67,10.67,0,0,0,8.93,8.93Z"/><path class="cls-7" d="M2246.34,2178.24l-21.88,3.38a10.19,10.19,0,0,0-8.5,8.5l-3.38,21.88-3.38-21.88a10.16,10.16,0,0,0-8.5-8.5l-21.88-3.38,21.88-3.38a10.14,10.14,0,0,0,8.5-8.5l3.38-21.88,3.38,21.88a10.16,10.16,0,0,0,8.5,8.5Z"/><path class="cls-7" d="M912.44,2017.74l-18,2.78a8.39,8.39,0,0,0-7,7l-2.79,18-2.78-18a8.39,8.39,0,0,0-7-7l-18-2.78,18-2.78a8.38,8.38,0,0,0,7-7l2.78-18,2.79,18a8.38,8.38,0,0,0,7,7Z"/><path class="cls-7" d="M959.63,2240.77l-12-13.75a8.37,8.37,0,0,0-9.66-2.18l-16.72,7.28,13.75-12a8.4,8.4,0,0,0,2.18-9.66l-7.28-16.72,12,13.75a8.38,8.38,0,0,0,9.66,2.17l16.73-7.28-13.75,12a8.37,8.37,0,0,0-2.18,9.66Z"/><path class="cls-7" d="M1301.34,2262.88l-20.86,3.22a9.68,9.68,0,0,0-8.11,8.1l-3.22,20.87-3.22-20.87a9.7,9.7,0,0,0-8.11-8.1l-20.87-3.22,20.87-3.23a9.7,9.7,0,0,0,8.11-8.1l3.22-20.87,3.22,20.87a9.68,9.68,0,0,0,8.11,8.1Z"/><path class="cls-7" d="M643.05,2086.49l-18,2.78a8.39,8.39,0,0,0-7,7l-2.78,18-2.78-18a8.38,8.38,0,0,0-7-7l-18-2.78,18-2.79a8.37,8.37,0,0,0,7-7l2.78-18,2.78,18a8.38,8.38,0,0,0,7,7Z"/><path class="cls-7" d="M2785.17,1796l-21.34,3.29a9.92,9.92,0,0,0-8.28,8.29l-3.3,21.33-3.29-21.33a9.93,9.93,0,0,0-8.29-8.29l-21.33-3.29,21.33-3.3a9.92,9.92,0,0,0,8.29-8.28l3.29-21.34,3.3,21.34a9.91,9.91,0,0,0,8.28,8.28Z"/><polygon class="cls-1" points="2353 2067.08 1666.64 2067.08 1701.4 1980.57 1753.08 1852.08 2195.7 1856.74 2297.43 1992.78 2353 2067.08"/><path class="cls-3" d="M2383.48,2082.34H1644l98.78-245.63,460.59,4.86Zm-694.25-30.53h633.29L2188,1871.94l-424.64-4.48Z"/><path class="cls-3" d="M2259,2017.79c-21.18.06-42.34-.35-63.52-.51L2132,2016c-21.16-.31-42.36-1.23-63.44-1.74s-42.27-.63-63.42-.64c-42.3-.62-84.62-.5-126.94-.85l-63.49-.55c-21.17-.42-42.33-.55-63.51-1.11,21.15-1.14,42.32-1.74,63.47-2.57l63.5-1.54c42.33-.84,84.67-.9,127-.87q31.75.36,63.55,1.33c21.23.84,42.33,1.59,63.47,2.81l63.4,3.38C2216.72,2015,2237.86,2016.17,2259,2017.79Z"/><path class="cls-3" d="M2230.68,1971.12c-19.46.2-38.92-.08-58.38-.11l-58.39-.89c-38.93-.65-77.77-2.29-116.66-3.41l-116.6-4c-19.44-.64-38.82-1.21-58.26-.77-19.45-.06-38.89.13-58.38-.16,38.8-2.43,77.76-5.29,116.73-4.83,39,0,77.86,1,116.76,2.22s77.79,3.15,116.64,5.17l58.27,3C2191.83,1968.62,2211.26,1969.63,2230.68,1971.12Z"/><path class="cls-3" d="M2201.45,1930.86c-17.9-.1-35.74-.67-53.59-1l-53.49-1.78-107-3.25-107-3.77c-17.83-.67-35.64-1.22-53.48-1.42-17.89-.64-35.76-1-53.56-1.9,35.73-1.35,71.35-2.57,107.14-2.45s71.44,1,107.13,2c35.69,1.32,71.36,2.65,107,5l53.45,3.87C2165.88,1927.77,2183.69,1929.08,2201.45,1930.86Z"/><path class="cls-3" d="M2175.27,1892.2c-32.35,3.31-64.9,2-97.29,1.54-32.4-.64-64.78-1.74-97.16-2.72l-97.12-3.53c-16.18-.66-32.37-1.26-48.54-1.58-16.08-.56-32.63-.47-48.4-1.53l48.38-2.15c16.24-.42,32.46-.47,48.68-.51,32.43,0,64.84.83,97.25,1.81,32.39,1.16,64.79,2.46,97.15,4.47,16.17,1,32.33,2,48.5,2.73S2159.07,1892.61,2175.27,1892.2Z"/><polygon class="cls-1" points="2696.17 1959.58 2009.82 1959.58 2096.29 1744.59 2162.46 1745.27 2538.88 1749.28 2696.17 1959.58"/><path class="cls-1" d="M1607,1735.45,1360.2,1958.2s220-11.32,322-11c83.24.24,361.68,21.56,361.68,21.56l64.75-224.14Z"/><g class="cls-2"><path class="cls-3" d="M2297.43,1992.78h-247l-2.63,9.16s-248.81-19.08-346.34-21.37l51.66-128.49,442.63,4.66Z"/></g><polygon class="cls-1" points="2696.17 1959.58 2009.82 1959.58 2096.29 1744.59 2162.46 1745.27 2538.88 1749.28 2696.17 1959.58"/><path class="cls-3" d="M2726.66,1974.84H1987.22L2086,1729.22l460.6,4.86Zm-694.25-30.52H2665.7l-134.51-179.87L2106.54,1760Z"/><path class="cls-3" d="M2602.16,1910.3c-21.18.06-42.34-.35-63.52-.51l-63.49-1.3c-21.16-.31-42.36-1.23-63.44-1.74s-42.26-.63-63.42-.65c-42.29-.61-84.61-.49-126.94-.84l-63.49-.55c-21.16-.42-42.33-.55-63.5-1.11,21.15-1.14,42.31-1.74,63.47-2.57l63.49-1.54c42.33-.84,84.68-.91,127-.88q31.77.38,63.55,1.33c21.23.85,42.33,1.6,63.47,2.81l63.41,3.38C2559.9,1907.53,2581,1908.68,2602.16,1910.3Z"/><path class="cls-3" d="M2573.87,1863.63c-19.47.2-38.92-.08-58.39-.11l-58.38-.9c-38.93-.65-77.78-2.28-116.66-3.41l-116.6-4c-19.45-.64-38.83-1.21-58.27-.77-19.44-.07-38.89.13-58.38-.16,38.8-2.44,77.76-5.29,116.74-4.84,39,0,77.86,1,116.76,2.23s77.79,3.15,116.63,5.17l58.27,3C2535,1861.13,2554.44,1862.14,2573.87,1863.63Z"/><path class="cls-3" d="M2544.63,1828.37c-17.89-.1-35.73-.68-53.59-1l-53.48-1.79-107-3.24-107-3.77c-17.83-.67-35.64-1.22-53.47-1.43-17.89-.64-35.76-1-53.57-1.89,35.74-1.35,71.35-2.58,107.15-2.45s71.43,1,107.12,2c35.69,1.32,71.37,2.65,107,5l53.46,3.87C2509.06,1825.28,2526.87,1826.59,2544.63,1828.37Z"/><path class="cls-3" d="M2518.45,1794.71c-32.34,3.3-64.9,2-97.29,1.54-32.4-.65-64.77-1.75-97.16-2.72l-97.12-3.53c-16.18-.66-32.36-1.26-48.54-1.58-16.08-.57-32.63-.47-48.4-1.54l48.39-2.14c16.23-.42,32.45-.47,48.67-.51,32.44,0,64.85.82,97.25,1.81,32.4,1.16,64.79,2.45,97.15,4.47,16.18,1,32.33,2,48.51,2.73S2502.26,1795.12,2518.45,1794.71Z"/><path class="cls-3" d="M13.26,1686.71l94-1.71,94-1.28,188.07-2.53L765.55,1678c125.38-1.27,250.76-1.36,376.14-2l376.14-.62L1894,1676c125.38.67,250.76.73,376.14,2l376.14,3.15,188.08,2.54,94,1.29,94,1.71a13.5,13.5,0,0,1,0,27l-94,1.7-94,1.29-188.08,2.54-376.14,3.15c-125.38,1.28-250.76,1.34-376.14,2l-376.15.61-376.14-.62c-125.38-.66-250.76-.75-376.14-2l-376.15-3.15-188.07-2.53-94-1.28-94-1.7a13.5,13.5,0,0,1,0-27Z"/><path class="cls-8" d="M1284.82,1925.57l215.91-200.73a4.22,4.22,0,0,0,1.36-3.11v-36.06a4.25,4.25,0,0,0-4.5-4.23l-690.66,42.14-320.53,202Z"/><g class="cls-9"><path class="cls-10" d="M1502.09,1705v16.76a4.24,4.24,0,0,1-1.37,3.13l-215.91,200.72H486.41l58.43-36.82h725.39Z"/></g><path class="cls-3" d="M1290.82,1940.83H433.54l368.57-232.25,694.55-42.38a19.5,19.5,0,0,1,20.69,19.47v36.06a19.6,19.6,0,0,1-6.19,14.26ZM539.25,1910.3h739.57l208-193.37v-19.55l-675.06,41.2Z"/><polygon class="cls-8" points="1284.82 1840.72 1502.09 1681.16 806.93 1681.16 486.4 1840.72 1284.82 1840.72"/><polygon class="cls-1" points="1228.78 1820.57 1370.11 1716.77 917.9 1716.77 709.39 1820.57 1228.78 1820.57"/><path class="cls-3" d="M1288.1,1850.72H443.87l360.71-179.56h684.56a14.24,14.24,0,0,1,8.43,25.72Zm-759.17-20h752.61l190-139.56H809.29Z"/><path class="cls-8" d="M1264.24,1935H356a21.06,21.06,0,0,1-15.15-6.41,21.37,21.37,0,0,1-5.42-9.74L182.65,1298.91a42.42,42.42,0,0,1,41.18-52.59h847.93a63.62,63.62,0,0,1,60.67,44.57c.42,1.26.8,2.56,1.11,3.86l151.27,614A21.21,21.21,0,0,1,1264.24,1935Z"/><g class="cls-9"><path class="cls-10" d="M1264.24,1935H356a21.06,21.06,0,0,1-15.15-6.41c111.35,5.38,498.38,8.43,683.19-191,118.33-127.68,120.24-327.72,108.41-446.75.42,1.26.8,2.56,1.11,3.86l151.27,614A21.21,21.21,0,0,1,1264.24,1935Z"/></g><g class="cls-2"><path class="cls-1" d="M229.1,1317.53,381.24,1935H356a21.19,21.19,0,0,1-20.57-16.15L182.65,1298.91a42.42,42.42,0,0,1,41.18-52.59h847.93a63.62,63.62,0,0,1,61.21,46.33,63.9,63.9,0,0,0-8.09-.53H249A20.49,20.49,0,0,0,229.1,1317.53Z"/></g><path class="cls-3" d="M1264.23,1950.26H356a36.41,36.41,0,0,1-35.42-27.76l-152.75-620a57.68,57.68,0,0,1,56-71.48h847.93a78.74,78.74,0,0,1,76.6,60l151.28,614a36.49,36.49,0,0,1-35.41,45.21ZM223.83,1261.59a27.15,27.15,0,0,0-26.37,33.65l152.75,620a5.94,5.94,0,0,0,5.78,4.53h908.24a6,6,0,0,0,5.77-7.38l-151.28-614a48.27,48.27,0,0,0-47-36.79Z"/><g class="cls-2"><polygon class="cls-3" points="2162.46 1745.27 2100.56 1959.58 2009.82 1959.58 2096.29 1744.59 2162.46 1745.27"/></g><path class="cls-1" d="M1607,1735.45,1360.2,1958.2s220-11.32,322-11c83.24.24,361.68,21.56,361.68,21.56l64.75-224.14Z"/><path class="cls-3" d="M2055.13,1984.89l-12.38-.94c-2.78-.22-278.82-21.28-360.55-21.52-100.36-.21-319,10.9-321.22,11l-42.9,2.21,283.16-255.57,527.62,9.62Zm-376.75-53h3.91c73.78.21,294.88,16.49,350.41,20.66l55.78-193.08-475.73-8.67-210.58,190.06C1470.36,1937.67,1603.61,1931.9,1678.38,1931.9Z"/><path class="cls-3" d="M1739.59,1738.52c.1,33.92-6.53,67.26-19.22,96.67l-5.29,12.18c-6,14-21.19,14-27.22,0l-5.45-12.62c-12.56-29.1-19.19-62.14-19.19-95.75V1392.18c0-11.92,16.86-21.61,37.69-21.61s37.66,9.69,37.66,21.61a9.85,9.85,0,0,1-.13,1.71Z"/><path class="cls-3" d="M2003.67,1905.05c-20.94-.34-41.84-1.16-62.76-1.73l-62.67-2.5c-41.75-2-83.56-3.37-125.35-4.59-41.79-1.7-83.59-3-125.37-4.28-20.9-.8-41.72-.92-62.68-1.31-20.93-.62-41.85-1-62.76-1.84,41.86-1.37,83.61-2.65,125.54-2.62s83.69,1.45,125.52,2.57l62.71,2.65c20.9.87,41.8,2,62.67,3.68l62.61,4.6C1962,1901.48,1982.84,1903,2003.67,1905.05Z"/><path class="cls-3" d="M2025.83,1868.11q-39.57-.45-79-2.33c-13.16-.53-26.3-1.32-39.44-2s-26.28-1.68-39.41-2.21l-78.84-3.86c-26.29-1.15-52.56-2.66-78.92-3.39,26.3-2.19,52.72-2.63,79.08-2.46s52.72,1,79.06,2.22c26.36,1.43,52.59,3.62,78.85,5.87S1999.66,1864.92,2025.83,1868.11Z"/><path class="cls-1" d="M2092.92,1056.31s69.92,153.82,81.7,328.4c12,177.81-5.38,430.57-419.43,396.29-145.14-12-138.08-73.69-143.47-146.45-6.68-90.15,3.61-193.67,109-197.53,190.35-7,247.2-48.49,274.26-165.22"/><g class="cls-2"><path class="cls-3" d="M2176.19,1483.92c-8.05,158.94-80.06,325.28-421,297.08-145.16-12-138.1-73.69-143.48-146.46-3.67-49.34-2.22-102.69,17.09-141.5.19,10.72.73,21.45,1.53,32,5.38,72.73-1.68,134.44,143.45,146.42C2035.41,1693.12,2138.68,1600.16,2176.19,1483.92Z"/></g><path class="cls-3" d="M1949.18,1350.9c3.15-6.58,6.86-12.64,10.49-19s7.55-12.59,11.21-19.2c7.45-13.16,14.26-27.18,22.31-41.35a1.86,1.86,0,0,1,2.53-.71,1.89,1.89,0,0,1,1,1.52,165.52,165.52,0,0,1-4.79,48.73,121.14,121.14,0,0,1-8.23,23.66c-3.68,7.57-8.2,14.92-14.27,21a12.64,12.64,0,0,1-20.38-14.34Z"/><path class="cls-3" d="M1826.88,1799.36q-34.86,0-73-3.14c-148.08-12.27-152.33-80-156.44-145.53-.31-4.94-.62-10-1-15-6.23-84.18,5.84-142,36.9-176.66,20.92-23.38,50.1-35.91,86.72-37.26,121.11-4.44,185-23.1,220.43-64.39a15.27,15.27,0,0,1,23.16,19.9c-41.64,48.48-111.89,70.21-242.47,75-28.41,1-49.71,9.91-65.1,27.11-25.23,28.19-34.78,78.58-29.19,154,.38,5.17.7,10.29,1,15.34,4,64.4,6.71,106.94,128.49,117,152,12.57,262.1-13.6,327.3-77.82,79.83-78.62,82.36-202.82,75.64-302.23-11.46-169.85-79.68-321.6-80.37-323.11a15.26,15.26,0,1,1,27.79-12.64c2.9,6.39,71.21,158.36,83,333.7,7.15,105.91,4,238.69-84.68,326C2044.66,1769.32,1951.23,1799.36,1826.88,1799.36Z"/><path class="cls-3" d="M2117.86,1687.24l-.67,0a15.26,15.26,0,0,1-14.59-15.9c10.86-251-144-291.74-150.59-293.35a15.26,15.26,0,0,1,7.06-29.7c2,.46,48.37,11.81,93,58.25,40.4,42,87.25,122.35,81,266.11A15.26,15.26,0,0,1,2117.86,1687.24Z"/><path class="cls-3" d="M858.86,1460.61c-.38-10.52-.59-21.18-4.2-31.39-1.07-1-2.08-2-3.16-3a95.82,95.82,0,0,0-9.51-1.91,199.46,199.46,0,0,0-67.62,4.1c-29.06,7-54.71,20.13-75.13,42.35-7.39,8-13.92,16.8-20.65,25.37-1.81,2.33-3.3,3.41-6.46,2.5a61.06,61.06,0,0,0-22.81-1.63c-20.55,2.16-37.77,11.49-53.14,24.72-16.67,14.37-29.16,32.11-40.48,50.79-4.83,7.91-1.36,15.41,7.84,17l17.4,2.88c13.88,2.3,27.73,4.55,41.58,6.84a3.67,3.67,0,0,1,.07.84,4.07,4.07,0,0,1-.27.86c-4.45,7.92-2.12,14.27,4.61,19.55a27.37,27.37,0,0,1,2.05,2c3.65,3.54,7.36,7.11,11.21,10.79-3.88,4.06-7.77,7.61-11.07,11.67a15.8,15.8,0,0,0-3.33,7.5c-.63,4.27,2.12,8.12,6.07,9.72a9.88,9.88,0,0,0,11.35-2.09c4.07-3.92,7.89-8.09,12-12.32,5.24,5.1,10.21,9.93,15.17,14.68,5.69,5.42,9.13,6,16.21,2.82,1.29-.63,2.57-1.12,4.1-1.74.35,1.56.66,2.81.9,4,3.82,19,7.57,38,11.49,56.83,1.84,9,9.62,12.15,17.19,7,6.84-4.59,13.64-9.38,20.27-14.37,15.27-11.56,28.74-24.93,38.6-41.49,12.33-20.83,17.57-42.8,10-66.69a3.81,3.81,0,0,1,1-3.33c6.7-5.9,13.65-11.52,20.35-17.46a135.37,135.37,0,0,0,34.47-48.29C855.77,1514.48,859.87,1488,858.86,1460.61ZM630.72,1579.5,581,1571.21c14.13-20.41,29.58-38.71,52.56-48.92,9.93-4.4,21.94-6,29.44-4.16C652.31,1538.47,641.62,1558.81,630.72,1579.5Zm140.42,59.19c-2,13-7.92,24.2-15.69,34.58-9.69,12.77-21.66,23-34.82,32.7q-5.26-26.15-10.38-51.17l60.23-34.51C772.18,1626,772.11,1632.38,771.14,1638.69Zm62.07-129.59c-4.48,17.46-11.35,33.78-22.5,48.12-8.61,11-18.85,20.34-29.82,28.92-29.75,23.25-62.69,41.17-96.71,57.24-1.67.76-2.74.83-4.13-.59-3-3.16-6.32-6.14-9.48-9.23a5.33,5.33,0,0,1-.66-1.08c.8-.87,1.67-1.74,2.53-2.64q27-28,54.06-56c5.2-5.34,4.3-13-1.81-16.66-4.27-2.54-9.27-1.74-13.16,2.22q-16.24,16.77-32.42,33.57c-8.05,8.33-16,16.63-24.4,25.31-3.89-3.75-7.61-7.15-11-10.8-.59-.66-.39-2.57.13-3.58,8.41-17.8,16.7-35.68,25.59-53.28a306.7,306.7,0,0,1,31.21-49.44c11.18-14.61,23.67-27.91,39.82-37.14a133.58,133.58,0,0,1,32.77-13.57c1-.32,2.74.52,3.64,1.38,14.23,13.61,28.33,27.25,42.46,40.93,4.23,4.06,8.43,8.23,12.77,12.22A3.7,3.7,0,0,1,833.21,1509.1Zm3.82-22.6c-14.1-13.64-27.84-26.9-41.63-40.23,0-.35,0-.76,0-1.15,13.65-.41,27.32-.79,41.14-1.21A185.81,185.81,0,0,1,837,1486.5Z"/><path class="cls-1" d="M832.06,1505c-4.34-4-8.54-8.16-12.77-12.22-14.13-13.68-28.23-27.32-42.46-40.93-.9-.86-2.6-1.7-3.64-1.38A133.58,133.58,0,0,0,740.42,1464c-16.15,9.23-28.64,22.53-39.82,37.14a306.7,306.7,0,0,0-31.21,49.44c-8.89,17.6-17.18,35.48-25.59,53.28-.52,1-.72,2.92-.13,3.58,3.43,3.65,7.15,7,11,10.8,8.36-8.68,16.35-17,24.4-25.31q16.2-16.82,32.42-33.57c3.89-4,8.89-4.76,13.16-2.22,6.11,3.61,7,11.32,1.81,16.66q-27,28.07-54.06,56c-.86.9-1.73,1.77-2.53,2.64a5.33,5.33,0,0,0,.66,1.08c3.16,3.09,6.46,6.07,9.48,9.23,1.39,1.42,2.46,1.35,4.13.59,34-16.07,67-34,96.71-57.24,11-8.58,21.21-17.92,29.82-28.92,11.15-14.34,18-30.66,22.5-48.12A3.7,3.7,0,0,0,832.06,1505Zm-32.14,28.92a35.44,35.44,0,1,1-51-49.23c13.37-13.92,35.83-14.23,49.92-.69S813.32,1520.18,799.92,1533.89Z"/><path class="cls-11" d="M837,1486.49l-41.63-40.22c0-.37,0-.75,0-1.15,13.64-.4,27.32-.79,41.16-1.21A186.84,186.84,0,0,1,837,1486.49Z"/><path class="cls-11" d="M663,1518.13c-10.68,20.33-21.37,40.69-32.25,61.39-16.07-2.7-32.69-5.46-49.76-8.3,14.14-20.44,29.58-38.74,52.57-48.92C643.45,1517.87,655.46,1516.32,663,1518.13Z"/><path class="cls-11" d="M755.43,1673.27c-9.68,12.78-21.64,23-34.81,32.7q-5.26-26.13-10.37-51.17c20.34-11.66,40.23-23,60.25-34.52,1.69,5.74,1.6,12.09.65,18.43C769.14,1651.69,763.24,1662.9,755.43,1673.27Z"/><path class="cls-3" d="M798.84,1484c-14.09-13.54-36.55-13.23-49.92.69a35.44,35.44,0,1,0,51,49.23C813.32,1520.18,812.8,1497.44,798.84,1484Zm-11.35,38.57a18.65,18.65,0,1,1-.14-26.59A18.77,18.77,0,0,1,787.49,1522.54Z"/><path class="cls-4" d="M787.48,1522.54a18.64,18.64,0,1,1-.14-26.6A18.76,18.76,0,0,1,787.48,1522.54Z"/></g></g></svg>