<svg xmlns="http://www.w3.org/2000/svg" xmlns:xlink="http://www.w3.org/1999/xlink" viewBox="0 0 764.5 764.39"><defs><style>.cls-1{mask:url(#mask);filter:url(#luminosity-noclip-3);}.cls-2,.cls-4{mix-blend-mode:multiply;}.cls-2{fill:url(#linear-gradient);}.cls-3{mask:url(#mask-2);filter:url(#luminosity-noclip-4);}.cls-4{fill:url(#linear-gradient-2);}.cls-5{fill:#e81818;}.cls-6{opacity:0.25;}.cls-7{fill:#371a45;}.cls-8{fill:#22a7f0;}.cls-9{mask:url(#mask-3);}.cls-10,.cls-12{opacity:0.7;}.cls-10{fill:url(#linear-gradient-3);}.cls-11{mask:url(#mask-4);}.cls-12{fill:url(#linear-gradient-4);}.cls-13{filter:url(#luminosity-noclip-2);}.cls-14{filter:url(#luminosity-noclip);}</style><filter id="luminosity-noclip" x="160.02" y="-8149.46" width="263.82" height="32766" filterUnits="userSpaceOnUse" color-interpolation-filters="sRGB"><feFlood flood-color="#fff" result="bg"/><feBlend in="SourceGraphic" in2="bg"/></filter><mask id="mask" x="160.02" y="-8149.46" width="263.82" height="32766" maskUnits="userSpaceOnUse"><g class="cls-14"/></mask><linearGradient id="linear-gradient" x1="375.8" y1="154.92" x2="377.42" y2="552.75" gradientTransform="translate(-113.72 56.92) rotate(-5.81)" gradientUnits="userSpaceOnUse"><stop offset="0" stop-color="#fff"/><stop offset="1"/></linearGradient><filter id="luminosity-noclip-2" x="337.37" y="-8149.46" width="262.82" height="32766" filterUnits="userSpaceOnUse" color-interpolation-filters="sRGB"><feFlood flood-color="#fff" result="bg"/><feBlend in="SourceGraphic" in2="bg"/></filter><mask id="mask-2" x="337.37" y="-8149.46" width="262.82" height="32766" maskUnits="userSpaceOnUse"><g class="cls-13"/></mask><linearGradient id="linear-gradient-2" x1="540.53" y1="191" x2="542.15" y2="591.33" xlink:href="#linear-gradient"/><filter id="luminosity-noclip-3" x="160.02" y="114.14" width="263.82" height="510.04" filterUnits="userSpaceOnUse" color-interpolation-filters="sRGB"><feFlood flood-color="#fff" result="bg"/><feBlend in="SourceGraphic" in2="bg"/></filter><mask id="mask-3" x="160.02" y="114.14" width="263.82" height="510.04" maskUnits="userSpaceOnUse"><g class="cls-1"><path class="cls-2" d="M423.84,117.44,267.06,624.18a266.72,266.72,0,0,1-107-92.26l123.42-398.8A265.77,265.77,0,0,1,423.84,117.44Z"/></g></mask><linearGradient id="linear-gradient-3" x1="375.8" y1="154.92" x2="377.42" y2="552.75" gradientTransform="translate(-113.72 56.92) rotate(-5.81)" gradientUnits="userSpaceOnUse"><stop offset="0" stop-color="#fff"/><stop offset="1" stop-color="#fff"/></linearGradient><filter id="luminosity-noclip-4" x="337.37" y="137.66" width="262.82" height="512.61" filterUnits="userSpaceOnUse" color-interpolation-filters="sRGB"><feFlood flood-color="#fff" result="bg"/><feBlend in="SourceGraphic" in2="bg"/></filter><mask id="mask-4" x="337.37" y="137.66" width="262.82" height="512.61" maskUnits="userSpaceOnUse"><g class="cls-3"><path class="cls-4" d="M600.2,226.16,474,634.05a267.34,267.34,0,0,1-95.31,16.19l-41.28-12.79L492,137.66A267.14,267.14,0,0,1,600.2,226.16Z"/></g></mask><linearGradient id="linear-gradient-4" x1="540.53" y1="191" x2="542.15" y2="591.33" xlink:href="#linear-gradient-3"/></defs><g id="Capa_2" data-name="Capa 2"><g id="Layer_1" data-name="Layer 1"><path class="cls-5" d="M471.93,26.59a365.11,365.11,0,0,1,182.75,110c79,87.83,114.27,212.12,83.23,335.28a366.72,366.72,0,0,1-445.23,266C96.26,688.3-22.84,489,26.66,292.56S275.51-22.92,471.93,26.59Z"/><g class="cls-6"><path class="cls-7" d="M737.93,471.82a366.79,366.79,0,0,1-445.27,266C120.14,694.34,7.28,535.26,15.93,364.06c32.45,125.69,130.81,230.2,265.62,264.16a367,367,0,0,0,456-337.43A365.3,365.3,0,0,1,737.93,471.82Z"/></g><path class="cls-7" d="M382.27,764.39A382.21,382.21,0,0,1,11.74,288.8C63.24,84.47,271.36-39.87,475.7,11.63h0c204.33,51.5,328.66,259.63,277.16,464C709.24,648.69,553.18,764.39,382.27,764.39Zm-.58-733.68A351.76,351.76,0,0,0,41.62,296.33c-47.35,187.85,67,379.2,254.82,426.55s379.21-67,426.55-254.82S656,88.85,468.17,41.51A353.38,353.38,0,0,0,381.69,30.71Z"/><path class="cls-8" d="M642.16,447.69c-22.52,89.46-87.6,156.94-168.2,186.36a268,268,0,1,1-50.12-516.61c8,1.24,16,2.85,24,4.88A268,268,0,0,1,642.16,447.69Z"/><path class="cls-8" d="M650,395.5a269.13,269.13,0,0,1-7.87,52.19c-22.52,89.46-87.6,156.94-168.2,186.36A268,268,0,0,1,122.45,316.71c.34-1.39.72-2.78,1.1-4.17A268,268,0,0,0,482.93,577.73C562.29,548.74,626.61,482.91,650,395.5Z"/><g class="cls-9"><path class="cls-10" d="M423.84,117.44,267.06,624.18a266.72,266.72,0,0,1-107-92.26l123.42-398.8A265.77,265.77,0,0,1,423.84,117.44Z"/></g><g class="cls-11"><path class="cls-12" d="M600.2,226.16,474,634.05a267.34,267.34,0,0,1-95.31,16.19l-41.28-12.79L492,137.66A267.14,267.14,0,0,1,600.2,226.16Z"/></g><path class="cls-7" d="M382.28,665.63A282.83,282.83,0,0,1,313,657C161.51,618.81,69.31,464.46,107.5,312.93S300,69.2,451.56,107.39,695.3,299.92,657.11,451.45C624.76,579.83,509,665.63,382.28,665.63Zm.05-536.06c-113,0-216.12,76.47-245,190.89-34,135.06,48.15,272.63,183.2,306.67S593.2,579,627.24,443.93,579.09,171.3,444,137.26A252.24,252.24,0,0,0,382.33,129.57Z"/></g></g></svg>