<svg xmlns="http://www.w3.org/2000/svg" xmlns:xlink="http://www.w3.org/1999/xlink" viewBox="0 0 817.92 2418.5"><defs><style>.cls-1{fill:none;}.cls-2{clip-path:url(#clip-path);}.cls-3{fill:#ec1c24;}.cls-4{fill:#ec1d24;}.cls-5{fill:#ec1e24;}.cls-6{fill:#ec1f24;}.cls-7{fill:#ec2024;}.cls-8{fill:#ed2124;}.cls-9{fill:#ed2224;}.cls-10{fill:#ed2324;}.cls-11{fill:#ed2424;}.cls-12{fill:#ed2524;}.cls-13{fill:#ed2624;}.cls-14{fill:#ed2724;}.cls-15{fill:#ed2824;}.cls-16{fill:#ed2924;}.cls-17{fill:#ed2a24;}.cls-18{fill:#ee2a24;}.cls-19{fill:#ee2b24;}.cls-20{fill:#ee2c24;}.cls-21{fill:#ee2d24;}.cls-22{fill:#ee2e24;}.cls-23{fill:#ee2f24;}.cls-24{fill:#ee3024;}.cls-25{fill:#ee3124;}.cls-26{fill:#ee3224;}.cls-27{fill:#ee3225;}.cls-28{fill:#ef3325;}.cls-29{fill:#ef3425;}.cls-30{fill:#ef3525;}.cls-31{fill:#ef3625;}.cls-32{fill:#ef3725;}.cls-33{fill:#ef3825;}.cls-34{fill:#ef3925;}.cls-35{fill:#ef3a25;}.cls-36{fill:#ef3b25;}.cls-37{fill:#ef3c25;}.cls-38{fill:#f03d25;}.cls-39{fill:#f03e25;}.cls-40{fill:#f03f25;}.cls-41{fill:#f04025;}.cls-42{fill:#f04125;}.cls-43{fill:#f04225;}.cls-44{fill:#f04325;}.cls-45{fill:#f04425;}.cls-46{fill:#f04525;}.cls-47{fill:#f14625;}.cls-48{fill:#f14725;}.cls-49{fill:#f14825;}.cls-50{fill:#f14925;}.cls-51{fill:#f14a25;}.cls-52{fill:#f14b25;}.cls-53{fill:#f14c25;}.cls-54{fill:#f14d25;}.cls-55{fill:#f14e25;}.cls-56{fill:#f24f25;}.cls-57{fill:#f25025;}.cls-58{fill:#f25125;}.cls-59{fill:#f25225;}.cls-60{fill:#f25325;}.cls-61{fill:#f25425;}.cls-62{fill:#f25525;}.cls-63{fill:#f25625;}.cls-64{fill:#f25725;}.cls-65{fill:#f35825;}.cls-66{fill:#f35925;}.cls-67{fill:#f35a25;}.cls-68{fill:#f35c25;}.cls-69{fill:#f35d25;}.cls-70{fill:#f35e26;}.cls-71{fill:#f35f26;}.cls-72{fill:#f36026;}.cls-73{fill:#f46126;}.cls-74{fill:#f46226;}.cls-75{fill:#f46426;}.cls-76{fill:#f46526;}.cls-77{fill:#f46626;}.cls-78{fill:#f46726;}.cls-79{fill:#f46826;}.cls-80{fill:#f46a26;}.cls-81{fill:#f56b26;}.cls-82{fill:#f56c26;}.cls-83{fill:#f56d26;}.cls-84{fill:#f56f26;}.cls-85{fill:#f57026;}.cls-86{fill:#f57126;}.cls-87{fill:#f57226;}.cls-88{fill:#f67426;}.cls-89{fill:#f67526;}.cls-90{fill:#f67626;}.cls-91{fill:#f67726;}.cls-92{fill:#f67926;}.cls-93{fill:#f67a26;}.cls-94{fill:#f67b26;}.cls-95{fill:#f77d26;}.cls-96{fill:#f77e26;}.cls-97{fill:#f77f26;}.cls-98{fill:#f78126;}.cls-99{fill:#f78226;}.cls-100{fill:#f78426;}.cls-101{fill:#f78526;}.cls-102{fill:#f88626;}.cls-103{fill:#f88826;}.cls-104{fill:#f88927;}.cls-105{fill:#f88a27;}.cls-106{fill:#f88c27;}.cls-107{fill:#f88d27;}.cls-108{fill:#f98f27;}.cls-109{fill:#f99027;}.cls-110{fill:#f99227;}.cls-111{fill:#f99327;}.cls-112{fill:#f99427;}.cls-113{fill:#f99627;}.cls-114{fill:#f99727;}.cls-115{fill:#fa9927;}.cls-116{fill:#fa9a27;}.cls-117{fill:#fa9c27;}.cls-118{fill:#fa9d27;}.cls-119{fill:#fa9f27;}.cls-120{fill:#faa027;}.cls-121{fill:#fba227;}.cls-122{fill:#fba327;}.cls-123{fill:#fba527;}.cls-124{fill:#fba627;}.cls-125{fill:#fba827;}.cls-126{fill:#fbaa27;}.cls-127{fill:#fcab27;}.cls-128{fill:#fcad27;}.cls-129{fill:#fcae27;}.cls-130{fill:#fcb027;}.cls-131{fill:#fcb127;}.cls-132{fill:#fcb327;}.cls-133{fill:#fdb528;}.cls-134{fill:#fdb628;}.cls-135{fill:#fdb828;}.cls-136{fill:#fdb928;}.cls-137{fill:#fdbb28;}.cls-138{fill:#febd28;}.cls-139{fill:#febe28;}.cls-140{fill:#fec028;}.cls-141{fill:#fec228;}.cls-142{fill:#fec328;}.cls-143{fill:#fec528;}.cls-144{fill:#ffc728;}.cls-145{fill:#ffc828;}.cls-146{fill:#ffca28;}.cls-147{fill:#390075;}.cls-148{opacity:0.6;}.cls-149{fill:#fff;}.cls-150{fill:#ffd553;}.cls-151{fill:#371a45;}.cls-152{opacity:0.35;}.cls-153{fill:#00abfc;}.cls-154{fill:#ed1b24;}.cls-155{opacity:0.3;}.cls-156{fill:#293856;}.cls-157{fill:#6b184e;}.cls-158{fill:#00cde2;}</style><clipPath id="clip-path"><path class="cls-1" d="M401.53,2397.36c1-301.91-203.39-395.07-202.75-586.53s205.47-230.4,205.47-230.4,204.56,40.31,203.93,231.77S402.54,2095.45,401.53,2397.36Z"/></clipPath></defs><g id="Capa_2" data-name="Capa 2"><g id="Layer_1" data-name="Layer 1"><g id="flame"><g class="cls-2"><rect class="cls-3" x="-160" y="1871.69" width="808.88" height="188.51" transform="translate(-1736.23 1925.98) rotate(-81.76)"/><rect class="cls-3" x="-66.02" y="1978.85" width="808.88" height="1.42" transform="translate(-1669.2 2030.65) rotate(-81.76)"/><rect class="cls-3" x="-64.62" y="1979.05" width="808.88" height="1.42" transform="translate(-1668.2 2032.21) rotate(-81.76)"/><rect class="cls-3" x="-63.21" y="1979.25" width="808.88" height="1.42" transform="translate(-1667.2 2033.77) rotate(-81.76)"/><rect class="cls-3" x="-61.81" y="1979.46" width="808.88" height="1.42" transform="translate(-1666.21 2035.33) rotate(-81.76)"/><rect class="cls-3" x="-60.41" y="1979.66" width="808.88" height="1.42" transform="translate(-1665.21 2036.89) rotate(-81.76)"/><rect class="cls-3" x="-59.01" y="1979.86" width="808.88" height="1.42" transform="translate(-1664.21 2038.45) rotate(-81.76)"/><rect class="cls-4" x="-57.61" y="1980.07" width="808.88" height="1.42" transform="translate(-1663.21 2040.01) rotate(-81.76)"/><rect class="cls-4" x="-56.21" y="1980.27" width="808.88" height="1.42" transform="translate(-1662.21 2041.57) rotate(-81.76)"/><rect class="cls-4" x="-54.81" y="1980.47" width="808.88" height="1.42" transform="translate(-1661.21 2043.13) rotate(-81.76)"/><rect class="cls-4" x="-53.41" y="1980.67" width="808.88" height="1.42" transform="translate(-1660.21 2044.69) rotate(-81.76)"/><rect class="cls-4" x="-52.01" y="1980.88" width="808.88" height="1.42" transform="translate(-1659.21 2046.25) rotate(-81.76)"/><rect class="cls-5" x="-50.61" y="1981.08" width="808.88" height="1.42" transform="translate(-1658.21 2047.81) rotate(-81.76)"/><rect class="cls-5" x="-49.21" y="1981.28" width="808.88" height="1.42" transform="translate(-1657.21 2049.37) rotate(-81.76)"/><rect class="cls-5" x="-47.81" y="1981.49" width="808.88" height="1.42" transform="translate(-1656.21 2050.93) rotate(-81.76)"/><rect class="cls-6" x="-46.4" y="1981.69" width="808.88" height="1.42" transform="translate(-1655.22 2052.49) rotate(-81.76)"/><rect class="cls-6" x="-45" y="1981.89" width="808.88" height="1.42" transform="translate(-1654.22 2054.05) rotate(-81.76)"/><rect class="cls-6" x="-43.6" y="1982.1" width="808.88" height="1.42" transform="translate(-1653.22 2055.61) rotate(-81.76)"/><rect class="cls-7" x="-42.2" y="1982.3" width="808.88" height="1.42" transform="translate(-1652.22 2057.17) rotate(-81.76)"/><rect class="cls-7" x="-40.8" y="1982.5" width="808.88" height="1.42" transform="translate(-1651.22 2058.73) rotate(-81.76)"/><rect class="cls-7" x="-39.4" y="1982.7" width="808.88" height="1.42" transform="translate(-1650.22 2060.29) rotate(-81.76)"/><rect class="cls-8" x="-38" y="1982.91" width="808.88" height="1.42" transform="translate(-1649.22 2061.85) rotate(-81.76)"/><rect class="cls-8" x="-36.6" y="1983.11" width="808.88" height="1.42" transform="translate(-1648.22 2063.41) rotate(-81.76)"/><rect class="cls-8" x="-35.2" y="1983.31" width="808.88" height="1.42" transform="translate(-1647.22 2064.97) rotate(-81.76)"/><rect class="cls-9" x="-33.8" y="1983.52" width="808.88" height="1.42" transform="translate(-1646.22 2066.53) rotate(-81.76)"/><rect class="cls-9" x="-32.4" y="1983.72" width="808.88" height="1.42" transform="translate(-1645.22 2068.09) rotate(-81.76)"/><rect class="cls-10" x="-31" y="1983.92" width="808.88" height="1.42" transform="translate(-1644.22 2069.65) rotate(-81.76)"/><rect class="cls-10" x="-29.59" y="1984.12" width="808.88" height="1.42" transform="translate(-1643.23 2071.21) rotate(-81.76)"/><rect class="cls-11" x="-28.19" y="1984.33" width="808.88" height="1.42" transform="translate(-1642.23 2072.77) rotate(-81.76)"/><rect class="cls-11" x="-26.79" y="1984.53" width="808.88" height="1.42" transform="translate(-1641.23 2074.33) rotate(-81.76)"/><rect class="cls-12" x="-25.39" y="1984.73" width="808.88" height="1.42" transform="translate(-1640.23 2075.89) rotate(-81.76)"/><rect class="cls-12" x="-23.99" y="1984.94" width="808.88" height="1.42" transform="translate(-1639.23 2077.45) rotate(-81.76)"/><rect class="cls-13" x="-22.59" y="1985.14" width="808.88" height="1.42" transform="translate(-1638.23 2079.01) rotate(-81.76)"/><rect class="cls-13" x="-21.19" y="1985.34" width="808.88" height="1.42" transform="translate(-1637.23 2080.57) rotate(-81.76)"/><rect class="cls-14" x="-19.79" y="1985.55" width="808.88" height="1.42" transform="translate(-1636.23 2082.13) rotate(-81.76)"/><rect class="cls-14" x="-18.39" y="1985.75" width="808.88" height="1.42" transform="translate(-1635.23 2083.7) rotate(-81.76)"/><rect class="cls-15" x="-16.99" y="1985.95" width="808.88" height="1.42" transform="translate(-1634.23 2085.26) rotate(-81.76)"/><rect class="cls-15" x="-15.59" y="1986.15" width="808.88" height="1.42" transform="translate(-1633.23 2086.82) rotate(-81.76)"/><rect class="cls-16" x="-14.19" y="1986.36" width="808.88" height="1.42" transform="translate(-1632.24 2088.38) rotate(-81.76)"/><rect class="cls-17" x="-12.78" y="1986.56" width="808.88" height="1.42" transform="translate(-1631.24 2089.94) rotate(-81.76)"/><rect class="cls-18" x="-11.38" y="1986.76" width="808.88" height="1.42" transform="translate(-1630.24 2091.5) rotate(-81.76)"/><rect class="cls-19" x="-9.98" y="1986.97" width="808.88" height="1.42" transform="translate(-1629.24 2093.06) rotate(-81.76)"/><rect class="cls-19" x="-8.58" y="1987.17" width="808.88" height="1.42" transform="translate(-1628.24 2094.62) rotate(-81.76)"/><rect class="cls-20" x="-7.18" y="1987.37" width="808.88" height="1.42" transform="translate(-1627.24 2096.18) rotate(-81.76)"/><rect class="cls-21" x="-5.78" y="1987.57" width="808.88" height="1.42" transform="translate(-1626.24 2097.74) rotate(-81.76)"/><rect class="cls-21" x="-4.38" y="1987.78" width="808.88" height="1.42" transform="translate(-1625.24 2099.3) rotate(-81.76)"/><rect class="cls-22" x="-2.98" y="1987.98" width="808.88" height="1.42" transform="translate(-1624.24 2100.86) rotate(-81.76)"/><rect class="cls-23" x="-1.58" y="1988.18" width="808.88" height="1.42" transform="translate(-1623.24 2102.42) rotate(-81.76)"/><rect class="cls-23" x="-0.18" y="1988.39" width="808.88" height="1.42" transform="translate(-1622.24 2103.98) rotate(-81.76)"/><rect class="cls-24" x="1.22" y="1988.59" width="808.88" height="1.42" transform="translate(-1621.25 2105.54) rotate(-81.76)"/><rect class="cls-25" x="2.62" y="1988.79" width="808.88" height="1.42" transform="translate(-1620.25 2107.1) rotate(-81.76)"/><rect class="cls-26" x="4.03" y="1989" width="808.88" height="1.42" transform="translate(-1619.25 2108.66) rotate(-81.76)"/><rect class="cls-27" x="5.43" y="1989.2" width="808.88" height="1.42" transform="translate(-1618.25 2110.22) rotate(-81.76)"/><rect class="cls-28" x="6.83" y="1989.4" width="808.88" height="1.42" transform="translate(-1617.25 2111.78) rotate(-81.76)"/><rect class="cls-29" x="8.23" y="1989.6" width="808.88" height="1.42" transform="translate(-1616.25 2113.34) rotate(-81.76)"/><rect class="cls-30" x="9.63" y="1989.81" width="808.88" height="1.42" transform="translate(-1615.25 2114.9) rotate(-81.76)"/><rect class="cls-30" x="11.03" y="1990.01" width="808.88" height="1.42" transform="translate(-1614.25 2116.46) rotate(-81.76)"/><rect class="cls-31" x="12.43" y="1990.21" width="808.88" height="1.42" transform="translate(-1613.25 2118.02) rotate(-81.76)"/><rect class="cls-32" x="13.83" y="1990.42" width="808.88" height="1.42" transform="translate(-1612.25 2119.58) rotate(-81.76)"/><rect class="cls-33" x="15.23" y="1990.62" width="808.88" height="1.42" transform="translate(-1611.25 2121.14) rotate(-81.76)"/><rect class="cls-34" x="16.63" y="1990.82" width="808.88" height="1.42" transform="translate(-1610.25 2122.7) rotate(-81.76)"/><rect class="cls-34" x="18.03" y="1991.03" width="808.88" height="1.42" transform="translate(-1609.26 2124.26) rotate(-81.76)"/><rect class="cls-35" x="19.43" y="1991.23" width="808.88" height="1.42" transform="translate(-1608.26 2125.82) rotate(-81.76)"/><rect class="cls-36" x="20.84" y="1991.43" width="808.88" height="1.42" transform="translate(-1607.26 2127.38) rotate(-81.76)"/><rect class="cls-37" x="22.24" y="1991.63" width="808.88" height="1.42" transform="translate(-1606.26 2128.94) rotate(-81.76)"/><rect class="cls-38" x="23.64" y="1991.84" width="808.88" height="1.42" transform="translate(-1605.26 2130.5) rotate(-81.76)"/><rect class="cls-39" x="25.04" y="1992.04" width="808.88" height="1.42" transform="translate(-1604.26 2132.06) rotate(-81.76)"/><rect class="cls-39" x="26.44" y="1992.24" width="808.88" height="1.42" transform="translate(-1603.26 2133.62) rotate(-81.76)"/><rect class="cls-40" x="27.84" y="1992.45" width="808.88" height="1.42" transform="translate(-1602.26 2135.18) rotate(-81.76)"/><rect class="cls-41" x="29.24" y="1992.65" width="808.88" height="1.42" transform="translate(-1601.26 2136.74) rotate(-81.76)"/><rect class="cls-42" x="30.64" y="1992.85" width="808.88" height="1.42" transform="translate(-1600.26 2138.3) rotate(-81.76)"/><rect class="cls-43" x="32.04" y="1993.05" width="808.88" height="1.42" transform="translate(-1599.26 2139.86) rotate(-81.76)"/><rect class="cls-44" x="33.44" y="1993.26" width="808.88" height="1.42" transform="translate(-1598.27 2141.42) rotate(-81.76)"/><rect class="cls-45" x="34.84" y="1993.46" width="808.88" height="1.42" transform="translate(-1597.27 2142.98) rotate(-81.76)"/><rect class="cls-46" x="36.24" y="1993.66" width="808.88" height="1.42" transform="translate(-1596.27 2144.54) rotate(-81.76)"/><rect class="cls-47" x="37.65" y="1993.87" width="808.88" height="1.42" transform="translate(-1595.27 2146.1) rotate(-81.76)"/><rect class="cls-48" x="39.05" y="1994.07" width="808.88" height="1.42" transform="translate(-1594.27 2147.66) rotate(-81.76)"/><rect class="cls-49" x="40.45" y="1994.27" width="808.88" height="1.42" transform="translate(-1593.27 2149.22) rotate(-81.76)"/><rect class="cls-50" x="41.85" y="1994.48" width="808.88" height="1.42" transform="translate(-1592.27 2150.78) rotate(-81.76)"/><rect class="cls-51" x="43.25" y="1994.68" width="808.88" height="1.42" transform="translate(-1591.27 2152.34) rotate(-81.76)"/><rect class="cls-52" x="44.65" y="1994.88" width="808.88" height="1.42" transform="translate(-1590.27 2153.9) rotate(-81.76)"/><rect class="cls-53" x="46.05" y="1995.08" width="808.88" height="1.42" transform="translate(-1589.27 2155.46) rotate(-81.76)"/><rect class="cls-54" x="47.45" y="1995.29" width="808.88" height="1.42" transform="translate(-1588.27 2157.02) rotate(-81.76)"/><rect class="cls-55" x="48.85" y="1995.49" width="808.88" height="1.42" transform="translate(-1587.27 2158.59) rotate(-81.76)"/><rect class="cls-56" x="50.25" y="1995.69" width="808.88" height="1.42" transform="translate(-1586.28 2160.15) rotate(-81.76)"/><rect class="cls-57" x="51.65" y="1995.9" width="808.88" height="1.42" transform="translate(-1585.28 2161.71) rotate(-81.76)"/><rect class="cls-58" x="53.05" y="1996.1" width="808.88" height="1.42" transform="translate(-1584.28 2163.27) rotate(-81.76)"/><rect class="cls-59" x="54.46" y="1996.3" width="808.88" height="1.42" transform="translate(-1583.28 2164.83) rotate(-81.76)"/><rect class="cls-60" x="55.86" y="1996.5" width="808.88" height="1.42" transform="translate(-1582.28 2166.39) rotate(-81.76)"/><rect class="cls-61" x="57.26" y="1996.71" width="808.88" height="1.42" transform="translate(-1581.28 2167.95) rotate(-81.76)"/><rect class="cls-62" x="58.66" y="1996.91" width="808.88" height="1.42" transform="translate(-1580.28 2169.51) rotate(-81.76)"/><rect class="cls-63" x="60.06" y="1997.11" width="808.88" height="1.42" transform="translate(-1579.28 2171.07) rotate(-81.76)"/><rect class="cls-64" x="61.46" y="1997.32" width="808.88" height="1.42" transform="translate(-1578.28 2172.63) rotate(-81.76)"/><rect class="cls-65" x="62.86" y="1997.52" width="808.88" height="1.42" transform="translate(-1577.28 2174.19) rotate(-81.76)"/><rect class="cls-66" x="64.26" y="1997.72" width="808.88" height="1.42" transform="translate(-1576.28 2175.75) rotate(-81.76)"/><rect class="cls-67" x="65.66" y="1997.93" width="808.88" height="1.42" transform="translate(-1575.29 2177.31) rotate(-81.76)"/><rect class="cls-68" x="67.06" y="1998.13" width="808.88" height="1.42" transform="translate(-1574.29 2178.87) rotate(-81.76)"/><rect class="cls-69" x="68.46" y="1998.33" width="808.88" height="1.42" transform="translate(-1573.29 2180.43) rotate(-81.76)"/><rect class="cls-70" x="69.86" y="1998.53" width="808.88" height="1.42" transform="translate(-1572.29 2181.99) rotate(-81.76)"/><rect class="cls-71" x="71.27" y="1998.74" width="808.88" height="1.42" transform="translate(-1571.29 2183.55) rotate(-81.76)"/><rect class="cls-72" x="72.67" y="1998.94" width="808.88" height="1.42" transform="translate(-1570.29 2185.11) rotate(-81.76)"/><rect class="cls-73" x="74.07" y="1999.14" width="808.88" height="1.42" transform="translate(-1569.29 2186.67) rotate(-81.76)"/><rect class="cls-74" x="75.47" y="1999.35" width="808.88" height="1.42" transform="translate(-1568.29 2188.23) rotate(-81.76)"/><rect class="cls-75" x="76.87" y="1999.55" width="808.88" height="1.42" transform="translate(-1567.29 2189.79) rotate(-81.76)"/><rect class="cls-76" x="78.27" y="1999.75" width="808.88" height="1.42" transform="translate(-1566.29 2191.35) rotate(-81.76)"/><rect class="cls-77" x="79.67" y="1999.96" width="808.88" height="1.42" transform="translate(-1565.29 2192.91) rotate(-81.76)"/><rect class="cls-78" x="81.07" y="2000.16" width="808.88" height="1.42" transform="translate(-1564.3 2194.47) rotate(-81.76)"/><rect class="cls-79" x="82.47" y="2000.36" width="808.88" height="1.42" transform="translate(-1563.3 2196.03) rotate(-81.76)"/><rect class="cls-80" x="83.87" y="2000.56" width="808.88" height="1.42" transform="translate(-1562.3 2197.59) rotate(-81.76)"/><rect class="cls-81" x="85.27" y="2000.77" width="808.88" height="1.42" transform="translate(-1561.3 2199.15) rotate(-81.76)"/><rect class="cls-82" x="86.67" y="2000.97" width="808.88" height="1.42" transform="translate(-1560.3 2200.71) rotate(-81.76)"/><rect class="cls-83" x="88.08" y="2001.17" width="808.88" height="1.42" transform="translate(-1559.3 2202.27) rotate(-81.76)"/><rect class="cls-84" x="89.48" y="2001.38" width="808.88" height="1.42" transform="translate(-1558.3 2203.83) rotate(-81.76)"/><rect class="cls-85" x="90.88" y="2001.58" width="808.88" height="1.42" transform="translate(-1557.3 2205.39) rotate(-81.76)"/><rect class="cls-86" x="92.28" y="2001.78" width="808.88" height="1.42" transform="translate(-1556.3 2206.95) rotate(-81.76)"/><rect class="cls-87" x="93.68" y="2001.98" width="808.88" height="1.42" transform="translate(-1555.3 2208.51) rotate(-81.76)"/><rect class="cls-88" x="95.08" y="2002.19" width="808.88" height="1.42" transform="translate(-1554.3 2210.07) rotate(-81.76)"/><rect class="cls-89" x="96.48" y="2002.39" width="808.88" height="1.42" transform="translate(-1553.3 2211.63) rotate(-81.76)"/><rect class="cls-90" x="97.88" y="2002.59" width="808.88" height="1.42" transform="translate(-1552.31 2213.19) rotate(-81.76)"/><rect class="cls-91" x="99.28" y="2002.8" width="808.88" height="1.42" transform="translate(-1551.31 2214.75) rotate(-81.76)"/><rect class="cls-92" x="100.68" y="2003" width="808.88" height="1.42" transform="translate(-1550.31 2216.31) rotate(-81.76)"/><rect class="cls-93" x="102.08" y="2003.2" width="808.88" height="1.42" transform="translate(-1549.31 2217.87) rotate(-81.76)"/><rect class="cls-94" x="103.48" y="2003.41" width="808.88" height="1.42" transform="translate(-1548.31 2219.43) rotate(-81.76)"/><rect class="cls-95" x="104.89" y="2003.61" width="808.88" height="1.42" transform="translate(-1547.31 2220.99) rotate(-81.76)"/><rect class="cls-96" x="106.29" y="2003.81" width="808.88" height="1.42" transform="translate(-1546.31 2222.55) rotate(-81.76)"/><rect class="cls-97" x="107.69" y="2004.01" width="808.88" height="1.42" transform="translate(-1545.31 2224.11) rotate(-81.76)"/><rect class="cls-98" x="109.09" y="2004.22" width="808.88" height="1.42" transform="translate(-1544.31 2225.67) rotate(-81.76)"/><rect class="cls-99" x="110.49" y="2004.42" width="808.88" height="1.42" transform="translate(-1543.31 2227.23) rotate(-81.76)"/><rect class="cls-100" x="111.89" y="2004.62" width="808.88" height="1.42" transform="translate(-1542.31 2228.79) rotate(-81.76)"/><rect class="cls-101" x="113.29" y="2004.83" width="808.88" height="1.42" transform="translate(-1541.32 2230.35) rotate(-81.76)"/><rect class="cls-102" x="114.69" y="2005.03" width="808.88" height="1.42" transform="translate(-1540.32 2231.92) rotate(-81.76)"/><rect class="cls-103" x="116.09" y="2005.23" width="808.88" height="1.42" transform="translate(-1539.32 2233.48) rotate(-81.76)"/><rect class="cls-104" x="117.49" y="2005.43" width="808.88" height="1.42" transform="translate(-1538.32 2235.04) rotate(-81.76)"/><rect class="cls-105" x="118.89" y="2005.64" width="808.88" height="1.42" transform="translate(-1537.32 2236.6) rotate(-81.76)"/><rect class="cls-106" x="120.29" y="2005.84" width="808.88" height="1.42" transform="translate(-1536.32 2238.16) rotate(-81.76)"/><rect class="cls-107" x="121.7" y="2006.04" width="808.88" height="1.42" transform="translate(-1535.32 2239.72) rotate(-81.76)"/><rect class="cls-108" x="123.1" y="2006.25" width="808.88" height="1.42" transform="translate(-1534.32 2241.28) rotate(-81.76)"/><rect class="cls-109" x="124.5" y="2006.45" width="808.88" height="1.42" transform="translate(-1533.32 2242.84) rotate(-81.76)"/><rect class="cls-110" x="125.9" y="2006.65" width="808.88" height="1.42" transform="translate(-1532.32 2244.4) rotate(-81.76)"/><rect class="cls-111" x="127.3" y="2006.86" width="808.88" height="1.42" transform="translate(-1531.32 2245.96) rotate(-81.76)"/><rect class="cls-112" x="128.7" y="2007.06" width="808.88" height="1.42" transform="translate(-1530.32 2247.52) rotate(-81.76)"/><rect class="cls-113" x="130.1" y="2007.26" width="808.88" height="1.42" transform="translate(-1529.33 2249.08) rotate(-81.76)"/><rect class="cls-114" x="131.5" y="2007.46" width="808.88" height="1.42" transform="translate(-1528.33 2250.64) rotate(-81.76)"/><rect class="cls-115" x="132.9" y="2007.67" width="808.88" height="1.42" transform="translate(-1527.33 2252.2) rotate(-81.76)"/><rect class="cls-116" x="134.3" y="2007.87" width="808.88" height="1.42" transform="translate(-1526.33 2253.76) rotate(-81.76)"/><rect class="cls-117" x="135.7" y="2008.07" width="808.88" height="1.42" transform="translate(-1525.33 2255.32) rotate(-81.76)"/><rect class="cls-118" x="137.1" y="2008.28" width="808.88" height="1.42" transform="translate(-1524.33 2256.88) rotate(-81.76)"/><rect class="cls-119" x="138.51" y="2008.48" width="808.88" height="1.42" transform="translate(-1523.33 2258.44) rotate(-81.76)"/><rect class="cls-120" x="139.91" y="2008.68" width="808.88" height="1.42" transform="translate(-1522.33 2260) rotate(-81.76)"/><rect class="cls-121" x="141.31" y="2008.88" width="808.88" height="1.42" transform="translate(-1521.33 2261.56) rotate(-81.76)"/><rect class="cls-122" x="142.71" y="2009.09" width="808.88" height="1.42" transform="translate(-1520.33 2263.12) rotate(-81.76)"/><rect class="cls-123" x="144.11" y="2009.29" width="808.88" height="1.42" transform="translate(-1519.33 2264.68) rotate(-81.76)"/><rect class="cls-124" x="145.51" y="2009.49" width="808.88" height="1.42" transform="translate(-1518.34 2266.24) rotate(-81.76)"/><rect class="cls-125" x="146.91" y="2009.7" width="808.88" height="1.42" transform="translate(-1517.34 2267.8) rotate(-81.76)"/><rect class="cls-126" x="148.31" y="2009.9" width="808.88" height="1.42" transform="translate(-1516.34 2269.36) rotate(-81.76)"/><rect class="cls-127" x="149.71" y="2010.1" width="808.88" height="1.42" transform="translate(-1515.34 2270.92) rotate(-81.76)"/><rect class="cls-128" x="151.11" y="2010.31" width="808.88" height="1.42" transform="translate(-1514.34 2272.48) rotate(-81.76)"/><rect class="cls-129" x="152.51" y="2010.51" width="808.88" height="1.42" transform="translate(-1513.34 2274.04) rotate(-81.76)"/><rect class="cls-130" x="153.91" y="2010.71" width="808.88" height="1.42" transform="translate(-1512.34 2275.6) rotate(-81.76)"/><rect class="cls-131" x="155.32" y="2010.91" width="808.88" height="1.42" transform="translate(-1511.34 2277.16) rotate(-81.76)"/><rect class="cls-132" x="156.72" y="2011.12" width="808.88" height="1.42" transform="translate(-1510.34 2278.72) rotate(-81.76)"/><rect class="cls-133" x="158.12" y="2011.32" width="808.88" height="1.42" transform="translate(-1509.34 2280.28) rotate(-81.76)"/><rect class="cls-134" x="159.52" y="2011.52" width="808.88" height="1.42" transform="translate(-1508.34 2281.84) rotate(-81.76)"/><rect class="cls-135" x="160.92" y="2011.73" width="808.88" height="1.42" transform="translate(-1507.35 2283.4) rotate(-81.76)"/><rect class="cls-136" x="162.32" y="2011.93" width="808.88" height="1.42" transform="translate(-1506.35 2284.96) rotate(-81.76)"/><rect class="cls-137" x="163.72" y="2012.13" width="808.88" height="1.42" transform="translate(-1505.35 2286.52) rotate(-81.76)"/><rect class="cls-138" x="165.12" y="2012.34" width="808.88" height="1.42" transform="translate(-1504.35 2288.08) rotate(-81.76)"/><rect class="cls-139" x="166.52" y="2012.54" width="808.88" height="1.42" transform="translate(-1503.35 2289.64) rotate(-81.76)"/><rect class="cls-140" x="167.92" y="2012.74" width="808.88" height="1.42" transform="translate(-1502.35 2291.2) rotate(-81.76)"/><rect class="cls-141" x="169.32" y="2012.94" width="808.88" height="1.42" transform="translate(-1501.35 2292.76) rotate(-81.76)"/><rect class="cls-142" x="170.72" y="2013.15" width="808.88" height="1.42" transform="translate(-1500.35 2294.32) rotate(-81.76)"/><rect class="cls-143" x="172.12" y="2013.35" width="808.88" height="1.42" transform="translate(-1499.35 2295.88) rotate(-81.76)"/><rect class="cls-144" x="173.53" y="2013.55" width="808.88" height="1.42" transform="translate(-1498.35 2297.44) rotate(-81.76)"/><rect class="cls-145" x="174.93" y="2013.76" width="808.88" height="1.42" transform="translate(-1497.35 2299) rotate(-81.76)"/><rect class="cls-146" x="176.33" y="2013.96" width="808.88" height="1.42" transform="translate(-1496.35 2300.56) rotate(-81.76)"/><rect class="cls-146" x="189.01" y="2004.4" width="808.88" height="24.21" transform="translate(-1487.31 2314.69) rotate(-81.76)"/></g><path class="cls-147" d="M401.13,2400.09a2.76,2.76,0,0,1-2.35-2.74c.56-167.29-62.47-270.55-118.07-361.66-45.59-74.7-85-139.21-84.68-224.86.63-191.51,205.63-232.71,207.7-233.1a2.65,2.65,0,0,1,1,0c2.07.4,206.79,43,206.15,234.48-.28,85.65-40.08,149.9-86.17,224.29-56.21,90.74-119.92,193.58-120.48,360.87a1.7,1.7,0,0,1,0,.39,2.78,2.78,0,0,1-2.74,2.36Zm3.11-816.85c-11.49,2.41-202.1,45.39-202.71,227.6-.28,84.1,38.72,148,83.87,222,49.12,80.47,104,170.36,116.33,305.19,13.25-134.75,68.71-224.27,118.35-304.41,45.65-73.68,85.07-137.32,85.35-221.41C606,1630,415.7,1585.73,404.24,1583.24Z"/><g class="cls-148"><path class="cls-149" d="M613.69,1813c.64-191.45-203.93-231.76-203.93-231.76l-.58.11c58.94,21.93,167.19,81.17,166.73,220.55C575.39,1959,437.31,2049,387.19,2243c12.4,45.31,20.05,96.25,19.85,155.17C408.05,2096.25,613.05,2004.45,613.69,1813Z"/></g><path class="cls-150" d="M403.59,2093.52c.58-175.76-145.22-230.09-144.85-341.55s146.43-134,146.43-134,145.9,23.56,145.53,135S404.17,1917.76,403.59,2093.52Z"/><path class="cls-151" d="M399.23,2413.12a15.92,15.92,0,0,1-13.62-15.81c.54-163.56-61.45-265.14-116.15-354.76-44.69-73.23-86.9-142.39-86.6-231.77.67-202.25,216.23-245.58,218.41-246a15.4,15.4,0,0,1,6.05,0c2.18.43,217.46,45.2,216.78,247.45-.29,89.38-43,158.26-88.14,231.19-55.29,89.25-118,190.41-118.5,354a16.81,16.81,0,0,1-.17,2.26,15.94,15.94,0,0,1-15.81,13.62A16.66,16.66,0,0,1,399.23,2413.12Zm5-816.41c-25.35,5.65-188.94,48.52-189.49,214.18-.26,80.36,37.84,142.79,81.95,215.07,39.61,64.9,82.89,135.81,105.35,231.15,23.09-95.18,66.84-165.81,106.88-230.45,44.59-72,83.11-134.15,83.38-214.52C592.8,1646.51,429.57,1602.54,404.19,1596.71Z"/><g class="cls-152"><path class="cls-151" d="M268.93,1790.29c.6-46.33,38.74-82.87,85.07-83.41,117.34-1.39,182.35-46.81,182.35-46.81l-41.21-6-172-6.73c.22-.24.42-.49.64-.73l-40.62-9.42,23.87,5.54c-42.78,35-80.14,88.8-80.41,170.38-.53,160.71,143.39,252.19,189,456a551.28,551.28,0,0,1,25-80.87c-56.91-163.16-172.22-251.54-171.74-395.42C268.92,1792,268.92,1791.15,268.93,1790.29Z"/></g></g><path class="cls-153" d="M194.85,1507.22l15,67.36a84.86,84.86,0,0,0,59.76,63.26h0a509.46,509.46,0,0,0,273.75.91h0a84.86,84.86,0,0,0,60.19-62.86l15.41-67.26Z"/><g class="cls-152"><path class="cls-151" d="M239,1513.61l15,67.36a84.86,84.86,0,0,0,59.77,63.26c14.48,4.09,29.12,7.46,43.84,10.24q-21.22-2.12-42.27-6a509.34,509.34,0,0,0,228.08-9.69h0a84.86,84.86,0,0,0,60.19-62.86l14-61Z"/></g><path class="cls-153" d="M314.75,1648.8a509.28,509.28,0,0,0,129.18-11.4q13.19-2.89,26.21-6.47a84.7,84.7,0,0,0,60.2-62.84l14.21-62,57.86.19L587,1573.48a84.77,84.77,0,0,1-60.15,62.86q-13,3.6-26.17,6.47A509.88,509.88,0,0,1,314.75,1648.8Z"/><g class="cls-148"><path class="cls-149" d="M416.08,1642.64a509,509,0,0,1-101.33,6.16q11.79,1.79,23.64,3A507.64,507.64,0,0,0,416.08,1642.64Z"/><path class="cls-149" d="M544.55,1506.05l-.73,3.17,41.25.13-15.44,67.24a84.8,84.8,0,0,1-60.15,62.87q-13,3.6-26.18,6.46c-3.76.83-7.55,1.48-11.33,2.22,9.59-1.53,19.16-3.25,28.67-5.33q13.13-2.88,26.17-6.47A84.81,84.81,0,0,0,587,1573.48l15.45-67.24Z"/></g><path class="cls-154" d="M738.33,1659.53c-18.28-29.84-103.05-170.76-192.38-167.67l66-149.93a127.16,127.16,0,0,1,13.59,2.11h0c67.08,14.17,161.69,88.15,120.17,309.37-.3,1.64-.62,3.29-.94,5A3.54,3.54,0,0,1,738.33,1659.53Z"/><g class="cls-155"><path class="cls-156" d="M738.33,1659.53c-18.28-29.84-103.05-170.76-192.38-167.67l66-149.93a127.16,127.16,0,0,1,13.59,2.11l-6.29-1.86c5.11,10.86,10.65,28.33,9,45-5.94,61.48-4.52,93.72,27.46,123.43,40.09,37.25,82.72,107.49,90,142.74-.3,1.64-.62,3.29-.94,5A3.54,3.54,0,0,1,738.33,1659.53Z"/></g><g class="cls-148"><path class="cls-149" d="M732.06,1649.34c4.8,7.39,2.64,4.28,6.27,10.2a3.54,3.54,0,0,0,6.49-1.18c46.94-240.73-65.59-309.75-132.85-316.43l-7.14,16.24C667.05,1376.47,756.63,1465.11,732.06,1649.34Z"/></g><path class="cls-151" d="M738.37,1677.73a20.11,20.11,0,0,1-14.28-9.46l-.88-1.43c-85.65-140.06-147.49-159.3-176.68-158.29a16.71,16.71,0,1,1-1.16-33.39c59.55-2.05,122.94,47.2,188.7,146.49,12.77-90.85,1.41-162.88-33.34-209.59-32.29-43.4-74-51.87-90.4-53.5a16.71,16.71,0,1,1,3.3-33.26c20.91,2.09,73.68,12.74,113.91,66.81,45.33,60.93,56.66,151.59,33.69,269.45a20.14,20.14,0,0,1-16.29,16A20.45,20.45,0,0,1,738.37,1677.73Z"/><path class="cls-154" d="M189.48,1340.52c-67.3,6.24-184,74.5-138.72,315.54a3.54,3.54,0,0,0,6.48,1.22c18.48-29.73,108.2-170.06,197.5-166.39"/><g class="cls-152"><path class="cls-151" d="M132.09,1558.76c35.17-36.91,78.46-69.16,121.69-67.89.18-.29.39-.59.57-.88l-64.86-149.46c-18.89,1.75-41.68,8.39-63.68,22.38C109.26,1411.1,106.61,1475.38,132.09,1558.76Z"/></g><path class="cls-151" d="M51.37,1675.44l-.86-.14a20.12,20.12,0,0,1-16.18-16.17c-21.91-116.53-9.74-206.48,36.17-267.35,41.73-55.32,96-65.91,117.44-67.89a16.71,16.71,0,1,1,3.08,33.27c-13.25,1.23-59.19,8.8-93.84,54.74C62,1458.58,49.91,1530,61.83,1619.78,103.06,1560,177.74,1471,255.43,1474.2a16.7,16.7,0,0,1-1.38,33.38c-76.12-3.12-159,120.54-182.62,158.52A20.09,20.09,0,0,1,51.37,1675.44ZM67.17,1653h0Z"/><path class="cls-149" d="M539.57,1531.77a610.22,610.22,0,0,1-344.71-24.56S-11.55,1262.44,23.43,777.88C64.49,209,411.9,6.1,411.9,6.1S706.25,180.73,781.22,654.36c6.34,39.88,11.08,81.9,14,126.09,9.71,148.5-3.05,274.34-25.45,377.46-50.73,233.59-150.8,350.72-150.8,350.72A611.84,611.84,0,0,1,539.57,1531.77Z"/><g class="cls-152"><path class="cls-151" d="M451.61,1423.35l-1.67-.14c-104.91-9-196.74-74.8-240.24-170.69C155.57,1133.18,101.09,928,133.07,652,141.8,576.73,215.26,487.41,302.7,456c185.15-66.58,374.24-18.71,375-53.32,1.19-53.42-494.47-77.51-478.65-117.06-67.75,119.25-127,282-142.54,497.07C21.51,1267.22,227.92,1512,227.92,1512a609.11,609.11,0,0,0,110.18,29.74,609.44,609.44,0,0,0,280.84-33.13s32-37.47,69-112.25A610.46,610.46,0,0,1,451.61,1423.35Z"/></g><path class="cls-154" d="M102.89,413.74a1472.46,1472.46,0,0,1,615.29,2.05C605,120.63,411.87,6.1,411.87,6.1S218.05,119.34,102.89,413.74Z"/><g class="cls-148"><path class="cls-149" d="M411.87,6.1s-37.11,21.68-88.51,70.74c33.89-28.62,56.16-41.67,56.16-41.67S555.6,139.77,670.05,406.28c16.08,2.93,32.13,6,48.13,9.51C605,120.63,411.87,6.1,411.87,6.1Z"/></g><g class="cls-152"><path class="cls-151" d="M711.87,399.78C569.34,353.78,462.92,324,334,322.27c-53.2-.7-86.5-58.15-59.86-104.21C310.11,155.92,348.78,102.73,385,60.59c-64.32,55-167.88,164.48-242.5,345.42a1471.52,1471.52,0,0,1,575.68,9.8C716.12,410.41,714,405.05,711.87,399.78Z"/></g><path class="cls-151" d="M100.1,433a19.49,19.49,0,0,1-15.36-26.39C169.47,190,295.38,69.42,362.9,16.8a79.09,79.09,0,0,1,97.87.32C528,70.19,653.09,191.65,736.38,408.81a19.5,19.5,0,0,1-22.34,26,1443.09,1443.09,0,0,0-607.14-2A19.47,19.47,0,0,1,100.1,433ZM417.4,39.42a40.18,40.18,0,0,0-30.54,8.13C326,95,215.34,200.51,134.71,387.58a1480.41,1480.41,0,0,1,551.82,1.84C607.15,201.82,497.15,95.54,436.61,47.71A40.31,40.31,0,0,0,417.4,39.42Z"/><path class="cls-151" d="M318.38,1559A629,629,0,0,1,188,1525.49a19.49,19.49,0,0,1-8.07-5.69c-2.19-2.6-54.25-65.11-102.11-188.49C34,1218.35-14.35,1030.39,4,776.5,13.6,643.37,40.76,518.93,84.7,406.64a19.49,19.49,0,0,1,14.67-12.07c206.8-43.4,416.4-42.69,622.94,2.17a19.47,19.47,0,0,1,14.06,12.07C779.57,521.38,805.9,646,814.63,779.19c16.64,254-33,441.64-77.54,554.31C688.42,1456.56,636,1518.72,633.75,1521.3a19.42,19.42,0,0,1-8.11,5.64,630.32,630.32,0,0,1-307.26,32Zm-111.63-68.11a590.66,590.66,0,0,0,400.41,1.33c11.66-15,54.7-73.82,94.45-174.94,42.7-108.66,90.22-289.77,74.12-535.49-8.22-125.39-32.45-242.79-72-349.11a1442.44,1442.44,0,0,0-586.5-1.94C76.92,536.75,51.91,654,42.86,779.31c-17.73,245.6,28.6,427,70.59,536C152.51,1416.62,195.16,1475.78,206.75,1490.84Z"/><path class="cls-151" d="M332.25,1671.06a531.07,531.07,0,0,1-68-14.46,104.22,104.22,0,0,1-73.49-77.79l-15-67.37a19.49,19.49,0,0,1,38-8.45l15,67.36a65.28,65.28,0,0,0,46,48.73,490,490,0,0,0,263.28.88,65.31,65.31,0,0,0,46.36-48.43l15.41-67.26a19.49,19.49,0,0,1,38,8.71l-15.41,67.26a104.23,104.23,0,0,1-74,77.3A528.89,528.89,0,0,1,332.25,1671.06Z"/><path class="cls-154" d="M333.29,1490c-.26,84.13,66.06,167.19,66.06,167.19s.26-.32.7-.9c7.17-9.14,66.19-86.82,66.49-165.82.27-75.81-54.35-136.91-64.52-147.61-1-1.1-1.63-1.66-1.63-1.66S333.53,1406.47,333.29,1490Z"/><g class="cls-148"><path class="cls-149" d="M388.32,1655.6s-2.82-3.53-7.27-9.86c22.64-36.83,52.17-96.3,52.4-156.42.21-59.46-28.65-111.09-51-142.23,4.29-4.85,7-7.47,7-7.47s.57.56,1.61,1.65c10.18,10.71,64.81,71.81,64.53,147.62-.32,79-59.33,156.69-66.49,165.83C388.58,1655.29,388.32,1655.6,388.32,1655.6Z"/></g><g class="cls-155"><path class="cls-157" d="M333.29,1490c-.26,84.13,66.06,167.19,66.06,167.19s.26-.32.7-.9l2-313.43c-1-1.1-1.63-1.66-1.63-1.66S333.53,1406.47,333.29,1490Z"/></g><path class="cls-151" d="M397,1673.75a16.7,16.7,0,0,1-10.66-6.11c-2.85-3.58-70-88.68-69.72-177.65.27-89.56,69.23-157.86,72.16-160.73a16.72,16.72,0,0,1,23.42.08c2.91,2.89,71.41,71.64,71.08,161.2-.31,89-68,173.63-70.89,177.19a16.72,16.72,0,0,1-13,6.19A16.53,16.53,0,0,1,397,1673.75Zm3.39-307.33c-17.95,22-50.19,69.07-50.35,123.67-.17,54.78,31.11,110.45,49.46,138.36,18.52-27.79,50.17-83.25,50.37-138S418.16,1388.46,400.34,1366.42Z"/><g class="cls-152"><circle class="cls-151" cx="386.16" cy="709.24" r="218.95" transform="translate(-388.41 480.79) rotate(-45)"/></g><circle class="cls-153" cx="409.59" cy="694.88" r="196.9"/><g class="cls-148"><path class="cls-149" d="M606.49,695.53C606.85,586.79,519,498.34,410.25,498A196.12,196.12,0,0,0,279.61,547,196,196,0,0,1,385,516.83c108.74.36,196.6,88.81,196.24,197.55a196.38,196.38,0,0,1-66.91,147.18A196.72,196.72,0,0,0,606.49,695.53Z"/></g><g class="cls-152"><path class="cls-151" d="M206.4,699c-.35,108.71,87.47,197.19,196.22,197.55a196,196,0,0,0,94.46-23.79A198.49,198.49,0,0,1,453,877.54C344.2,877.18,256.34,788.74,256.7,680A196.78,196.78,0,0,1,359.86,507.52,197,197,0,0,0,206.4,699Z"/></g><path class="cls-151" d="M378.92,903.49A210.9,210.9,0,0,1,198.78,694.17h0A210.82,210.82,0,1,1,408.89,905.69,212.84,212.84,0,0,1,378.92,903.49Zm57.3-389.68a187.07,187.07,0,0,0-26-1.9A183,183,0,0,0,226.62,694.27C226.31,786.41,294.54,863.1,383.24,876A185.13,185.13,0,0,0,409,877.85c100.89.33,183.24-81.48,183.58-182.37A183.07,183.07,0,0,0,436.22,513.81Z"/><circle class="cls-158" cx="411.94" cy="692.54" r="125.26" transform="translate(-369.04 494.13) rotate(-45)"/><g class="cls-155"><path class="cls-149" d="M286.67,692.13A125.26,125.26,0,0,0,411.53,817.8a123.93,123.93,0,0,0,42.7-7.34c-1.39.06-2.78.07-4.21.07a125.27,125.27,0,0,1-41.89-243.19A125.27,125.27,0,0,0,286.67,692.13Z"/></g><g class="cls-152"><path class="cls-151" d="M359.79,577c2.15-.08,4.3-.15,6.48-.14a125.26,125.26,0,0,1,47.49,241,125.26,125.26,0,1,0-54-240.87Z"/></g><path class="cls-151" d="M391.9,830.29c-67.48-9.78-119.37-68.11-119.14-138.21h0A139.16,139.16,0,0,1,412.41,553.36c76.69.26,139,62.9,138.72,139.64A139.18,139.18,0,0,1,411.48,831.73,141.87,141.87,0,0,1,391.9,830.29ZM428,582.35a112.44,112.44,0,0,0-15.67-1.15,111.36,111.36,0,0,0-111.71,111h0A111.34,111.34,0,1,0,428,582.35Z"/></g></g></svg>