<svg xmlns="http://www.w3.org/2000/svg" viewBox="0 0 1709.1 1821.39">
  <defs>
    <style>.cls-1{fill:#fff;}.cls-2{opacity:0.35;}.cls-3{fill:#371a45;}.cls-4{opacity:0.3;}.cls-5{fill:#22a7f0;}.cls-6{fill:#afafb2;}.cls-7{opacity:0.7;}.cls-8{opacity:0.5;}.cls-9{fill:#111a28;}</style>
  </defs>
  <g id="Capa_2" data-name="Capa 2">
    <g id="Layer_1" data-name="Layer 1">
      <rect class="cls-1" x="499.21" y="864.01" width="882.07" height="739.84" rx="174.47" />
      <path class="cls-1" d="M1381.29,1079.55v308.73c0,119.06-90.23,215.57-201.53,215.57h-479c-111.28,0-201.49-96.5-201.49-215.54V1079.55c0-119,90.21-215.54,201.49-215.54h479.08C1291.07,864,1381.29,960.51,1381.29,1079.55Z" />
      <g class="cls-2">
        <path class="cls-3" d="M1381.29,1142.24v246c0,119.06-90.23,215.57-201.53,215.57h-479c-111.28,0-201.49-96.5-201.49-215.54V1142.24c0-119,90.21-215.53,201.49-215.53h479.08C1291.07,926.71,1381.29,1023.21,1381.29,1142.24Z" />
      </g>
      <path class="cls-3" d="M1206.82,864a174.47,174.47,0,0,1,174.47,174.47v390.89a174.47,174.47,0,0,1-174.47,174.47H673.68a174.47,174.47,0,0,1-174.47-174.47V1038.48A174.47,174.47,0,0,1,673.68,864h533.14m0-32.24H673.68c-114,0-206.71,92.73-206.71,206.71v390.89c0,114,92.73,206.71,206.71,206.71h533.14c114,0,206.71-92.73,206.71-206.71V1038.48c0-114-92.73-206.71-206.71-206.71Z" />
      <g id="leftArm">
        <path class="cls-1" d="M696.14,905.51l-13.59,152.62-9.9,111-97.18,19.53-39,7.82s-161,37.22-317.19-63.46C95.51,1053.22,53.62,922,38.17,858.19,8.31,735,8.11,704.78,42.69,671.26,69.18,645.56,96,649.38,96,649.38s8.48-25.43,31.71-26.65c69.63-3.61,118.36,97.14,118.36,97.14s32.57-75.33,66.64-41.77C336.15,701.25,310.22,787,310.22,787s18.94,63.35,76.59,93.13c33.12,17.13,86.68,24.84,140,27.82,39.45,2.24,78.75,1.89,109.56.83C671.9,907.59,696.14,905.51,696.14,905.51Z" />
        <g class="cls-2">
          <path class="cls-3" d="M38.15,858.19c15.46,63.8,57.34,195,181.11,274.82,77.53,50,156.25,66,215.87,69.39,60.51,3.49,101.35-6,101.35-6l62.3-14.47,30.48-152s-56.83,14.62-83.74,30.87c-40.84,24.68-85.66,47.77-150.54,41.37-180.36-17.77-280.29-152.13-308.67-205.1C47,823.67,43.92,785.86,40.72,769.49c-6.62-33.86-11.59-60.38-11.64-82.42C8.89,716.47,13,754.22,38.15,858.19Z" />
        </g>
        <path class="cls-3" d="M461.39,1219.51c-63.6,0-157.66-12.89-250.85-73-92.34-59.5-157.36-157.9-188-284.56C-7.86,736.74-10,699.86,31.47,659.67c20.3-19.68,41.31-25,54.23-26.25,7.22-12.25,20.65-25.72,41.15-26.78,55.54-2.89,97.82,48.13,118.89,80.53,9.78-14.4,23.93-29.69,41.4-33.09,9.2-1.79,23.06-1.06,36.88,12.56,26.32,25.94,10.79,93,3.12,119.89,5.19,13.65,24.55,57.25,67.06,79.24,80.79,41.78,298.39,23.86,300.57,23.67a16.13,16.13,0,0,1,17.43,17.5l-23.48,263.6a16.11,16.11,0,0,1-12.89,14.37l-136.17,27.34C537,1212.87,507,1219.51,461.39,1219.51ZM91.87,665.27c-5.29,0-21.36,1.45-37.95,17.55-26.91,26.1-30.43,46.36-.1,171.58C82.53,972.86,142.76,1064.52,228,1119.46c148.26,95.54,303.33,61.62,304.88,61.27l124.79-25L678.4,922.93c-56.92,3.56-224.17,10.18-299-28.53-63-32.56-83.76-100-84.62-102.82a16.2,16.2,0,0,1,0-9.28c10.91-36.17,16.31-83.14,6.61-92.7-4.61-4.54-7-4.07-8.09-3.87-10.63,2.07-25.67,24.88-32.45,40.55A16.11,16.11,0,0,1,246.4,736a16.29,16.29,0,0,1-14.86-9.1c-.44-.89-44.93-90.92-103-88.06-11.72.6-17.21,15.5-17.26,15.65a16.14,16.14,0,0,1-17.57,10.85C93.59,665.33,93,665.27,91.87,665.27Z" />
        <path class="cls-3" d="M260,725.31c-2.49,8.13-6.88,12.79-10.44,16.59a100.62,100.62,0,0,1-10.27,9c-6.42,5.08-12.34,9.18-17.72,14.28a94.12,94.12,0,0,0-14.44,17.6c-4.6,6.61-7.92,14.27-11.95,22.29l-.07.15a2.23,2.23,0,0,1-3,1,2.29,2.29,0,0,1-1.2-1.6A81.12,81.12,0,0,1,200,749a95.58,95.58,0,0,1,18-22.71c3.21-3,6.52-5.87,9.09-8s4.2-3.89,5-3.8L254.59,717a6.47,6.47,0,0,1,5.69,7.15A8.51,8.51,0,0,1,260,725.31Z" />
        <path class="cls-3" d="M219.25,1145.5a12.5,12.5,0,0,1-1.12-24.94c78.07-7.14,149.19-174.51,170-238.4a12.5,12.5,0,0,1,23.77,7.74c-3.26,10-81.13,245.47-191.5,255.55A11.25,11.25,0,0,1,219.25,1145.5Z" />
      </g>
      <path class="cls-1" d="M1193.11,782.82c185.29,488.77,228.78,879.79,228.78,879.79H460.11s43.48-391,228.78-879.79" />
      <path class="cls-3" d="M1198.13,780.92c37.4,67.15,63,139.17,86.32,211.68,5.69,18.19,11.51,36.33,16.8,54.64l15.72,54.94c5.46,18.26,10.3,36.68,15.28,55.07s10.36,36.66,15,55.14c19.52,73.65,36.73,147.91,52.2,222.54,15.28,74.78,28.9,149.48,38.49,225.89a15.91,15.91,0,0,1-13.81,17.78,17.49,17.49,0,0,1-1.89.13H459.92a16,16,0,0,1-15.95-16,15.71,15.71,0,0,1,.12-2c6.68-54.3,15.7-107.3,25.59-160.53s21.07-106,33.14-158.61l9.33-39.41q4.62-19.73,9.66-39.34,9.54-39.36,19.39-78.65c13.63-52.23,29.33-104.08,56.27-152.14a5.5,5.5,0,0,1,10.28,3v.16c-1.73,27.59-7.32,53.88-13.11,80.11-6,26.18-13.13,52-20.28,77.8-15.48,51.34-27.85,103.52-40.11,155.68q-18,78.35-32.87,157.31c-9.78,52.55-18.78,105.67-25.24,158.17l-16-17.9h961.78l-16,17.9c-9.32-74.24-22.9-149-38-223-15.34-74-32.43-147.72-51.8-220.83-19.2-73.15-41-145.63-64.72-217.4-11.19-36.11-23.23-71.94-34.12-108.19s-22-72.44-29.12-110.27l0-.16a5.43,5.43,0,0,1,10.08-3.65Z" />
      <path class="cls-1" d="M729.33,1388.92c-52.08,21.89-132.68,17.31-187.62,10.41-33-4.14-56.09-35.73-51.24-69.83h0c4.43-31.12,30.81-53.75,61.07-52.28,51.39,2.5,128.48,3.67,177.3-7.57" />
      <g class="cls-2">
        <path class="cls-3" d="M729.34,1388.91c-52.07,21.89-132.71,17.34-187.64,10.41-32.94-4.12-56.08-35.71-51.24-69.84a61.86,61.86,0,0,1,6.48-20.19c8.77,16.87,25,29.18,44.76,31.67,54.86,6.89,135.34,11.49,187.41-10.33Z" />
      </g>
      <path class="cls-3" d="M625.74,1421.14a700.27,700.27,0,0,1-86-5.82,74,74,0,0,1-49.89-28.93,79.59,79.59,0,0,1-15.3-59.16c5.64-39.58,39.12-68,77.81-66.11,75.45,3.67,136.86,1.12,172.9-7.18,7.71-1.79,26.88-2.13,38.21,33,12.53,38.82,9.82,101-27.86,116.88h0C704.66,1416.78,665,1421.14,625.74,1421.14Zm-77-127.87c-21.14,0-39.14,16.21-42.31,38.5a46.47,46.47,0,0,0,9,35,42,42,0,0,0,28.27,16.51c78.1,9.82,141.8,6.53,179.37-9.27h0c6.52-2.74,11.5-12.33,13.65-26.31,3.87-25.12-2.84-53-8.49-61.47-49.82,10.5-123.62,9.66-177.49,7C550.08,1293.29,549.4,1293.27,548.74,1293.27Z" />
      <path class="cls-1" d="M1127.66,1388.92c52.08,21.89,132.68,17.31,187.62,10.41,33-4.14,56.09-35.73,51.24-69.83h0c-4.43-31.12-30.81-53.75-61.07-52.28-51.39,2.5-128.48,3.67-177.3-7.57" />
      <g class="cls-2">
        <path class="cls-3" d="M1315.3,1399.32c-55,6.93-135.57,11.48-187.65-10.41l.23-58.16c52.08,21.81,132.52,17.22,187.42,10.33,19.75-2.49,36-14.88,44.79-31.75a63,63,0,0,1,6.45,20.15C1371.38,1363.61,1348.24,1395.2,1315.3,1399.32Z" />
      </g>
      <path class="cls-3" d="M1231.25,1421.14c-39.29,0-78.91-4.36-109.84-17.36h0c-37.67-15.84-40.38-78.06-27.85-116.88,11.32-35.09,30.5-34.75,38.21-33,36,8.3,97.45,10.86,172.9,7.18,38.75-1.82,72.18,26.54,77.81,66.11a79.55,79.55,0,0,1-15.31,59.16,74,74,0,0,1-49.88,28.93A700.27,700.27,0,0,1,1231.25,1421.14Zm-102.5-134.86c-5.65,8.44-12.36,36.35-8.49,61.47,2.15,14,7.13,23.57,13.65,26.31h0c37.57,15.79,101.28,19.08,179.37,9.27a42,42,0,0,0,28.27-16.5,46.5,46.5,0,0,0,9-35.06c-3.27-23-22.38-39.56-44.32-38.45C1252.37,1295.94,1178.57,1296.78,1128.75,1286.28Z" />
      <path class="cls-1" d="M1147.78,1230.22v191.16c0,35.47-27.94,64.49-62.06,64.49h-339c-34.15,0-62.06-29-62.06-64.49V1230.22c0-35.43,27.91-64.45,62.06-64.45h339c27.26,0,50.59,18.53,58.86,44.06A66.63,66.63,0,0,1,1147.78,1230.22Z" />
      <g class="cls-4">
        <path class="cls-3" d="M1147.78,1230.22v191.16c0,35.47-27.94,64.49-62.06,64.49h-339c-34.15,0-62.06-29-62.06-64.49V1357c58.48,33.61,174.34,84.09,290.61,42.44,56.81-20.36,121.93-90.15,121.93-90.15s2.51,73.22,13,72.07c29.09-3.21,28.87-151.36,34.37-171.57A66.63,66.63,0,0,1,1147.78,1230.22Z" />
      </g>
      <path class="cls-3" d="M1084.53,1502H747.93a79.47,79.47,0,0,1-79.37-79.37V1229a79.47,79.47,0,0,1,79.37-79.37h336.6A79.47,79.47,0,0,1,1163.9,1229V1422.6A79.47,79.47,0,0,1,1084.53,1502Zm-336.6-320.08A47.18,47.18,0,0,0,700.8,1229V1422.6a47.18,47.18,0,0,0,47.13,47.13h336.6a47.19,47.19,0,0,0,47.13-47.13V1229a47.19,47.19,0,0,0-47.13-47.13Z" />
      <ellipse class="cls-5" cx="1036.31" cy="1325.81" rx="53.53" ry="55.59" />
      <path class="cls-1" d="M1089.85,1325.83a57.22,57.22,0,0,1-1,11c-5-25.45-26.58-44.61-52.5-44.61s-47.55,19.16-52.46,44.61a57.22,57.22,0,0,1-1.05-11c0-30.7,24-55.61,53.51-55.61S1089.85,1295.13,1089.85,1325.83Z" />
      <g class="cls-2">
        <path class="cls-3" d="M1089.84,1325.8c0,30.72-24,55.59-53.53,55.59s-53.52-24.87-53.52-55.59a57.77,57.77,0,0,1,1.94-14.89c6.29,23.44,27,40.66,51.58,40.66s45.29-17.22,51.58-40.66A57.77,57.77,0,0,1,1089.84,1325.8Z" />
      </g>
      <path class="cls-3" d="M1036.31,1393.49c-36.18,0-65.62-30.36-65.62-67.68s29.44-67.68,65.62-67.68,65.62,30.36,65.62,67.68S1072.49,1393.49,1036.31,1393.49Zm0-111.18c-22.85,0-41.44,19.52-41.44,43.5s18.59,43.5,41.44,43.5,41.44-19.52,41.44-43.5S1059.16,1282.31,1036.31,1282.31Z" />
      <path class="cls-3" d="M884.63,1502a16.12,16.12,0,0,1-16.13-16.12V1388c0-19.16-8.74-37.44-23.39-48.89l-8.61-6.74c-22.41-17.51-35.78-45.29-35.78-74.29v-92.32a16.12,16.12,0,0,1,32.24,0v92.32c0,19.16,8.74,37.44,23.39,48.89l8.61,6.74c22.41,17.51,35.79,45.29,35.79,74.29v97.84A16.12,16.12,0,0,1,884.63,1502Z" />
      <path class="cls-1" d="M1181.18,856.74s185.25,180.44,266.37,377.23c69.44,168.47,33.78,274.65,33.78,274.65H1336.72s-19.28-260.11-96.56-399" />
      <path class="cls-3" d="M1184.93,852.89c29,15.43,51.31,37.76,72.65,60.79s40.1,48.33,59.3,73.16c38.06,49.94,73.92,101.81,104.62,157.08l5.82,10.32,5.4,10.57L1443.5,1186c3.68,7,6.6,14.44,9.94,21.64s6.55,14.47,9.62,21.79a676.6,676.6,0,0,1,29.55,90.92,501.12,501.12,0,0,1,13.64,95.23c.37,16.14.56,32.32-1,48.57-.69,8.13-1.61,16.25-3,24.4-.57,4.06-1.5,8.17-2.29,12.26-1,4.25-1.8,8-3.38,13a15.67,15.67,0,0,1-14.93,11h-145a16.13,16.13,0,0,1-16.06-14.73v-.2c-2.78-33.56-7-67.69-12-101.35-5.1-33.71-10.82-67.35-18.17-100.54-1.64-8.35-3.76-16.57-5.68-24.84s-3.84-16.55-6.16-24.69l-6.66-24.51q-3.72-12.11-7.85-24.08c-2.57-8-6.14-15.66-9-23.56l-8.37-23.65c-1.36-3.95-2.69-7.92-3.81-12s-2.06-8.24-3.29-12.25a120.6,120.6,0,0,1-4.25-26.16v-.46a5.82,5.82,0,0,1,9.41-4.77c7.41,5.86,13.36,12.77,19,19.92a82.93,82.93,0,0,1,7.35,11.26c2.22,3.86,4.25,7.82,6.22,11.8s4,8,5.67,12.06,3.11,8.26,4.56,12.43c2.78,8.36,5.71,16.73,7.87,25.22,10.3,33.61,19,67.39,26.48,101.44s13.36,68.3,18.55,102.64,9.33,68.65,12.23,103.7l-16.08-14.93h144.61l-15.28,11c.75-2.4,1.69-6.27,2.44-9.59.67-3.54,1.48-7,2-10.64,1.21-7.17,2-14.5,2.67-21.85,1.41-14.71,1.22-29.66.89-44.56a467.75,467.75,0,0,0-12.78-89,644.49,644.49,0,0,0-28-86.2c-2.93-7-6.15-13.89-9.21-20.83s-6-14-9.5-20.72l-10.38-20.36-5.19-10.18-5.63-10c-7.56-13.28-14.91-26.66-23.21-39.55L1358,1100.49l-12.78-19.12q-25.57-38.22-54.15-74.5c-19.09-24.11-39.73-46.91-59.24-70.68-19.69-23.64-39.34-47.21-54.39-75.6l-.07-.14a5.6,5.6,0,0,1,7.57-7.56Z" />
      <path class="cls-1" d="M693.77,1556.37C638,1353.79,512.8,1360.32,466,1386c-27.27,15-58.94,37.3-80.79,90.81-36.68-133-215-118.34-221.59,62.53-3.88,106.44,34.35,182.73,62.12,216.53,27.44,33.39,47.9,44.54,77.13,48.25,27,3.44,84.33-1.11,110-12.09,42.69-18.3,94.38-66.4,203.19-71.28,0,0,147.77,1.73,312.73.66,165,1.07,312.73-.66,312.73-.66,108.81,4.88,160.5,53,203.19,71.28,25.63,11,82.91,15.53,110,12.09,29.23-3.71,49.69-14.86,77.13-48.25,27.77-33.8,66-110.09,62.12-216.53-6.61-180.87-184.91-195.5-221.59-62.53-21.85-53.51-53.52-75.8-80.79-90.81-46.76-25.71-172-32.24-227.73,170.34h0a22.72,22.72,0,0,1-22.72,22.71H717.27a23.5,23.5,0,0,1-23.5-22.71Z" />
      <g class="cls-2">
        <path class="cls-3" d="M362.76,1434c-1.78-3.74-2.95-6.41-3.5-7.7C359.87,1427.57,361.07,1430.2,362.76,1434Z" />
      </g>
      <g class="cls-2">
        <path class="cls-3" d="M1493.49,1434c1.68-3.78,2.88-6.41,3.5-7.7C1496.43,1427.57,1495.27,1430.24,1493.49,1434Z" />
      </g>
      <g class="cls-2">
        <path class="cls-3" d="M1631.8,1755.91c-27.43,33.38-47.9,44.52-77.12,48.24-27.07,3.43-84.33-1.11-110-12.09-42.72-18.29-94.4-66.41-203.19-71.29,0,0-147.8,1.75-312.75.67-164.95,1.08-312.72-.67-312.72-.67-108.82,4.88-160.5,53-203.19,71.29-25.62,11-82.92,15.52-110,12.09-29.24-3.72-49.68-14.86-77.12-48.24-27.77-33.79-66-110.09-62.11-216.55a255.31,255.31,0,0,1,2.39-26.94c8.78,74.73,37.57,128.74,59.72,155.68,27.44,33.39,47.88,44.53,77.12,48.25l.83.09c84,11,139.15-54.11,106.92-132.42-23.87-57.91-32.59-101.43-25.41-107.17,13.38-10.77,74.7,152.62,171.61,148.5,127.85-5.43,122.58-112.93,122.58-112.93a183.27,183.27,0,0,1,14.85,23.38c32.8,60.28,95.41,98.3,164,98.12,22.86,0,46.46-.16,70.46-.31,27.2.18,53.94.28,79.62.33,63.28.12,121.75-35,150.11-91.59a193.33,193.33,0,0,1,18.3-29.93s-5.31,107.5,122.57,112.93c96.92,4.12,115.21-130.81,184-177-14.87,10-18,68.44-36.29,129.5-20.25,67.64,28.78,137,99.38,138.76a58.44,58.44,0,0,0,8.22-.3c29.22-3.72,49.69-14.86,77.12-48.25,22.16-26.94,50.94-80.95,59.72-155.68a252.62,252.62,0,0,1,2.4,26.94C1697.81,1645.82,1659.57,1722.12,1631.8,1755.91Z" />
      </g>
      <path class="cls-3" d="M401.44,1578.78a398.35,398.35,0,0,0-11.69-50.39c-2.42-8.19-5.13-16.27-8.09-24.16s-6.25-15.61-9.67-23.13l-.07-.15a15.17,15.17,0,0,1,27.62-12.55,16,16,0,0,1,1.22,4.18c1.26,9.05,2.36,18,2.91,27s.93,17.84.93,26.7A407,407,0,0,1,401.44,1578.78Z" />
      <path class="cls-3" d="M350.7,1820.33a16.26,16.26,0,1,1,4-.52A16.12,16.12,0,0,1,350.7,1820.33Z" />
      <path class="cls-3" d="M1456.14,1578.78a407,407,0,0,1-3.16-52.53q0-13.29.93-26.7c.55-9,1.65-17.92,2.91-27a15.17,15.17,0,1,1,28.87,8.31l-.1.21c-3.42,7.52-6.79,15.2-9.67,23.13s-5.67,16-8.09,24.16A398.35,398.35,0,0,0,1456.14,1578.78Z" />
      <path class="cls-3" d="M1159,1555c6.35-37.65,18-75.12,38.18-109.31,2.53-4.25,5.33-8.38,8-12.58,2.9-4.06,5.79-8.16,8.87-12.13a203.91,203.91,0,0,1,20.73-22.23A154.58,154.58,0,0,1,1259.3,1380a150.49,150.49,0,0,1,28.08-13.85,144.18,144.18,0,0,1,62.29-8.59A137,137,0,0,1,1381,1364a114,114,0,0,1,15.2,6.33c2.62,1.3,4.77,2.53,6.9,3.74s4.32,2.54,6.48,3.8c17.32,10.38,33.78,24,46.72,40.22s22.83,34.31,30.35,52.89l-29.18,1.73a163.41,163.41,0,0,1,18.49-41.8,127.67,127.67,0,0,1,31.58-34.34c25.23-19,58.93-27.16,90.18-20.79a118.71,118.71,0,0,1,43.35,18.3,135.88,135.88,0,0,1,33.19,32.34c9.1,12.4,15.86,26.11,21.1,40.12a206,206,0,0,1,10.83,43.07l1.44,10.91c.36,3.63.54,7.27.8,10.91.66,7.33.55,14.41.68,21.57a426.62,426.62,0,0,1-2,42.88,384.88,384.88,0,0,1-18.22,84.06c-9.58,27.19-21.84,53.56-39.35,77.58-2.25,3-4.58,6-6.9,8.84s-4.64,5.55-7.13,8.27a183.5,183.5,0,0,1-15.81,15.88c-11.27,10.15-25.45,19.15-40.91,23.8a130.19,130.19,0,0,1-22.89,4.78,189,189,0,0,1-22.44,1.14,369.45,369.45,0,0,1-43.08-2.62c-14.34-1.84-28.49-4-43.41-8.79a141.85,141.85,0,0,1-21.09-9.23c-6.54-3.31-12.64-6.82-18.68-10.23-12.06-6.87-23.75-13.52-35.64-19.54a345.33,345.33,0,0,0-36.29-15.79,310.3,310.3,0,0,0-76.82-17c-6.52-.37-12.76-1.09-19.51-1.23l-20.68,0-41.34.08-82.7.18-165.38.35-165.38-.35-82.7-.18-41.34-.08-20.68,0c-6.75.14-13,.86-19.51,1.23a310.3,310.3,0,0,0-76.82,17,345.33,345.33,0,0,0-36.29,15.79c-11.89,6-23.58,12.67-35.64,19.54-6,3.41-12.14,6.92-18.68,10.23a141.85,141.85,0,0,1-21.09,9.23c-14.92,4.78-29.07,7-43.41,8.79a369.45,369.45,0,0,1-43.08,2.62,189,189,0,0,1-22.44-1.14,130.19,130.19,0,0,1-22.89-4.78c-15.46-4.65-29.64-13.65-40.91-23.8a183.5,183.5,0,0,1-15.81-15.88c-2.49-2.72-4.79-5.5-7.13-8.27s-4.65-5.88-6.9-8.84c-17.51-24-29.77-50.39-39.35-77.58a384.88,384.88,0,0,1-18.22-84.06,423.69,423.69,0,0,1-2-42.88c.13-7.16,0-14.24.68-21.57.26-3.64.44-7.28.8-10.91l1.44-10.91c2.19-14.51,5.45-29,10.83-43.07s12-27.72,21.1-40.12a135.88,135.88,0,0,1,33.19-32.34,118.71,118.71,0,0,1,43.35-18.3c31.23-6.37,65,1.77,90.12,20.88a127.65,127.65,0,0,1,31.42,34.38,161.51,161.51,0,0,1,18.29,41.79l-28.35-1.68c7.63-18.5,17.53-36.52,30.6-52.53a178.33,178.33,0,0,1,46.61-39.84c2.15-1.25,4.29-2.62,6.44-3.81s4.26-2.45,6.85-3.75a113,113,0,0,1,15-6.33,137.68,137.68,0,0,1,31.08-6.53,147.19,147.19,0,0,1,90.75,20.9,155.17,155.17,0,0,1,24.89,18.58,201.08,201.08,0,0,1,38.2,47c20.47,34.29,32,72.15,36.77,110.22a5.05,5.05,0,0,1-9.59,2.77l0-.11c-8-17.17-15.5-34.13-23.88-50.46a395.77,395.77,0,0,0-27.73-46.52c-20.33-29-46.46-53.25-77.78-64.76a114.38,114.38,0,0,0-48.88-7,108.11,108.11,0,0,0-24.17,4.73,84.22,84.22,0,0,0-11.05,4.49c-1.64.78-3.61,1.86-5.59,3s-3.83,2.21-5.75,3.33a148.05,148.05,0,0,0-38.95,33.19c-10.8,13.23-19.3,28.55-26,44.86a15,15,0,0,1-28.34-1.68c-6.77-24-19.68-46-38.76-60.13a83.65,83.65,0,0,0-66.34-15.47c-23.09,4.54-43.75,19.09-58.09,38.86-7.26,9.87-12.83,21.14-17.24,32.91s-7.35,24.3-9.27,37l-1.28,9.6c-.32,3.22-.46,6.48-.7,9.72-.61,6.41-.5,13.14-.62,19.77a396.25,396.25,0,0,0,1.87,39.74,356,356,0,0,0,16.75,77.36c8.7,24.78,20.07,48.94,35.15,69.55,1.93,2.52,3.79,5,5.83,7.47s4.2,5,6.38,7.39a154.12,154.12,0,0,0,13.35,13.44c9.23,8.23,18.94,14.26,30,17.63a101.6,101.6,0,0,0,17.57,3.63,163,163,0,0,0,18.87.92,338,338,0,0,0,39.47-2.41c13-1.63,26.24-3.81,37.6-7.5a115.36,115.36,0,0,0,16.74-7.4c5.77-2.92,11.63-6.29,17.6-9.66,11.91-6.78,24.2-13.79,36.93-20.22a374.28,374.28,0,0,1,39.55-17.2,339.83,339.83,0,0,1,84.32-18.72c7.24-.45,14.75-1.21,21.77-1.35l20.71,0,41.41.09,82.82.17,165.65.35,165.65-.35,82.82-.17,41.41-.09,20.71,0c7,.14,14.53.9,21.77,1.35a339.83,339.83,0,0,1,84.32,18.72,374.28,374.28,0,0,1,39.55,17.2c12.73,6.43,25,13.44,36.93,20.22,6,3.37,11.83,6.74,17.6,9.66a115.36,115.36,0,0,0,16.74,7.4c11.36,3.69,24.61,5.87,37.6,7.5a338,338,0,0,0,39.47,2.41,163,163,0,0,0,18.87-.92,101.6,101.6,0,0,0,17.57-3.63c11-3.37,20.73-9.4,30-17.63a154.12,154.12,0,0,0,13.35-13.44c2.18-2.36,4.27-4.9,6.38-7.39s3.9-5,5.83-7.47c15.08-20.61,26.45-44.77,35.15-69.55a356,356,0,0,0,16.75-77.36,396.25,396.25,0,0,0,1.87-39.74c-.12-6.63,0-13.36-.62-19.77-.24-3.24-.38-6.5-.7-9.72l-1.28-9.6c-1.92-12.73-4.74-25.29-9.27-37s-10-23-17.24-32.91c-14.34-19.77-35-34.32-58.09-38.86a83.06,83.06,0,0,0-66.28,15.56c-19,14.21-31.8,36.18-38.39,60.15a15.43,15.43,0,0,1-29.07,2l-.11-.25c-6.86-16.23-15.45-31.42-26.28-44.49a151,151,0,0,0-38.85-32.82c-1.91-1.11-3.75-2.26-5.72-3.34s-3.92-2.21-5.52-3a80.15,80.15,0,0,0-10.89-4.49,107.82,107.82,0,0,0-24-4.84,115.69,115.69,0,0,0-48.93,5.9c-31.79,10.71-58.36,35.14-79.07,64.17a347.19,347.19,0,0,0-27.71,46.87c-8.14,16.5-15.36,33.63-22.49,51l0,.08a5,5,0,0,1-9.6-2.74Z" />
      <path class="cls-6" d="M1631.8,1755.91c-27.43,33.38-47.9,44.52-77.12,48.24-12,1.53-30,1.47-48.52,0a.09.09,0,0,1-.06,0c-45.94-12.22-22.13-77.89-9.42-152.43,11.66-68.47-7.8-120.8,31.18-191.9,47.29-86.3,108.91-49.81,112.6-47.54a.46.46,0,0,1,.18.12c29.28,23.91,51,66,53.28,127C1697.81,1645.82,1659.57,1722.12,1631.8,1755.91Z" />
      <path class="cls-6" d="M350.82,1804.18h0c-18.29,1.44-36,1.47-47.88,0-29.24-3.72-49.68-14.86-77.12-48.24-27.77-33.79-66-110.09-62.11-216.55,2.24-61.37,24.24-103.57,53.8-127.42l.09-.06c2.58-1.62,64.41-39.22,112.17,47.91,39,71.1,19.51,123.43,31.18,191.9C373.59,1726.2,396.7,1791.9,350.82,1804.18Z" />
      <g class="cls-7">
        <path class="cls-1" d="M329.74,1459.79c23.84,43.52,25.81,80,26.45,117.48-2.58-25.75-8.87-52.27-25.16-82-48.8-89-112-50.6-114.63-48.94,0,0-.06,0-.09.06-26,21-46.28,55.88-52.88,105.29,0-4.05.1-8.16.25-12.31,2.24-61.37,24.24-103.57,53.8-127.42l.09-.06C220.15,1410.26,282,1372.66,329.74,1459.79Z" />
      </g>
      <path class="cls-6" d="M358.25,1631.28c-1.81-18.78-1.78-36.52-2.06-54C358,1595.37,357.94,1613.08,358.25,1631.28Z" />
      <g class="cls-2">
        <path class="cls-3" d="M350.82,1804.18h0c-18.29,1.44-36,1.47-47.88,0-29.24-3.72-49.68-14.86-77.12-48.24-15.46-18.82-34.18-50.83-47-93.88,2.08,2.85,4.14,5.52,6.14,8,27.43,33.39,47.76,45.55,77.12,48.24,52.68,4.83,90.37-44.38,96.88-81,.52,4.73,1.2,9.55,2,14.43C373.59,1726.2,396.7,1791.9,350.82,1804.18Z" />
      </g>
      <path class="cls-3" d="M324.51,1821.39a194.12,194.12,0,0,1-23.62-1.25c-35.14-4.46-58.87-19.1-87.55-54-34.29-41.72-69.58-123.35-65.77-227.37,2.21-60.55,23.44-110,59.78-139.37h0a15.11,15.11,0,0,1,1.47-1.05l.14-.09c3-1.89,30.18-18.17,64.39-9.33,27.78,7.19,51.51,28.42,70.52,63.11,27.39,50,28,91.94,28.52,132.54.29,20.59.58,41.88,4.42,64.4,2.15,12.65,4.62,25.1,7,37.14,12.19,61.49,23.71,119.57-28.83,133.63a16.36,16.36,0,0,1-3.18.52C342.28,1821,333,1821.39,324.51,1821.39Zm26.31-17.21h0Zm-124.07-379c-28.45,23.49-45.12,64.19-47,114.77-4.49,122.65,47.91,192.88,58.46,205.72,26.23,31.93,43.68,39.56,66.7,42.49,10.23,1.29,26.2,1.31,43,.07,19.67-6.48,16.16-35.93,4.28-95.84-2.43-12.25-4.94-24.92-7.16-38-4.26-25-4.57-47.54-4.87-69.36-.55-40-1-74.57-24.56-117.49-14.53-26.51-31.41-42.45-50.18-47.36C246.25,1415.16,230,1423.37,226.75,1425.18Z" />
      <path class="cls-3" d="M324.49,1815.27a187.65,187.65,0,0,1-22.83-1.2c-33.38-4.24-56-18.28-83.59-51.82-33.58-40.85-68.13-121-64.38-223.25,2.14-58.76,22.57-106.64,57.51-134.84h0a10.62,10.62,0,0,1,.94-.67l.09-.06c2.76-1.74,27.86-16.78,59.59-8.57,26.08,6.74,48.51,27,66.68,60.12,26.66,48.63,27.23,89.84,27.78,129.69.28,20.82.58,42.35,4.5,65.34,2.16,12.73,4.64,25.22,7,37.3,11.62,58.6,22.6,114-24.41,126.53a9.16,9.16,0,0,1-2,.32C342,1814.9,332.83,1815.27,324.49,1815.27Zm26.33-11.09h0ZM223.28,1420.11c-30.08,24.56-47.69,67-49.61,119.62-4.57,124.85,49.05,196.69,59.85,209.83,27.53,33.5,46.07,41.55,70.65,44.67,10.78,1.36,27.51,1.38,44.91,0,26.61-7.86,21.1-42.66,9.11-103.08-2.42-12.21-4.92-24.84-7.13-37.84-4.18-24.51-4.48-46.83-4.78-68.41-.54-39.13-1-76.1-25.31-120.35-15.42-28.13-33.64-45.07-54.16-50.38C244.34,1408.4,226.18,1418.4,223.28,1420.11Z" />
      <path class="cls-3" d="M350.84,1820.32a16.13,16.13,0,0,1-1.07-32.23c24.19-1.92,45.39-6,56.74-10.85,9.66-4.13,20.09-10.09,32.18-17,38.26-21.84,90.68-51.74,176.65-55.6.31,0,.6,0,.91,0,1.48,0,149.53,1.74,312.43.67,163.11,1.07,311.18-.65,312.66-.67.3,0,.61,0,.91,0,85.93,3.86,138.34,33.75,176.61,55.58,12.1,6.9,22.55,12.86,32.21,17,11.34,4.86,32.39,8.9,56.31,10.81a16.12,16.12,0,0,1-2.56,32.14c-13.07-1-45.72-4.43-66.45-13.32-11.34-4.85-23.07-11.55-35.49-18.63-37.31-21.28-83.73-47.76-161.62-51.35-9.33.1-153.94,1.7-312.58.67-158.46,1-303-.56-312.34-.67C538.4,1740.48,492,1767,454.66,1788.26c-12.4,7.07-24.11,13.76-35.44,18.61-20.4,8.76-52.59,12.2-66.34,13.32A17.46,17.46,0,0,1,350.84,1820.32Z" />
      <path class="cls-3" d="M217.58,1428a16.13,16.13,0,0,1-9.16-29.4,16.36,16.36,0,0,1,9.3-2.94,16.12,16.12,0,0,1,8.06,30.08c-.25.16-.51.3-.77.44A16.14,16.14,0,0,1,217.58,1428Z" />
      <path class="cls-3" d="M1640.46,1428.37a16,16,0,0,1-11.4-4.72l11.21-11.52,7.44-14.3a17.6,17.6,0,0,1,4.14,3,16.12,16.12,0,0,1-11.39,27.52Z" />
      <path class="cls-3" d="M170.39,1500.57a10,10,0,0,1-.46-20l170.17-8a10,10,0,1,1,.94,20l-170.17,8Z" />
      <path class="cls-3" d="M163.55,1575.45a10,10,0,0,1-.5-20l192-9.76a10,10,0,0,1,1,20l-192,9.76Z" />
      <path class="cls-3" d="M174.44,1656.38a10,10,0,0,1-.5-20L358.35,1627a10,10,0,1,1,1,20L175,1656.36Z" />
      <path class="cls-3" d="M209.71,1743a10,10,0,0,1-.48-20l165-8a10,10,0,0,1,1,20l-165,8Z" />
      <g class="cls-7">
        <path class="cls-1" d="M1526.45,1459.79c-23.85,43.52-25.81,80-26.46,117.48,2.58-25.75,8.87-52.27,25.17-82,48.79-89,112-50.6,114.62-48.94,0,0,.06,0,.09.06,26,21,46.28,55.88,52.88,105.29q0-6.08-.25-12.31c-2.24-61.37-24.24-103.57-53.79-127.42,0,0-.07,0-.1-.06C1636,1410.26,1574.2,1372.66,1526.45,1459.79Z" />
      </g>
      <g class="cls-2">
        <path class="cls-3" d="M1505.36,1804.18h0c18.29,1.44,36,1.47,47.88,0,29.24-3.72,49.68-14.86,77.12-48.24,15.47-18.82,34.19-50.83,47-93.88-2.08,2.85-4.14,5.52-6.13,8-27.44,33.39-47.77,45.55-77.12,48.24-52.68,4.83-90.38-44.38-96.89-81-.52,4.73-1.2,9.55-2,14.43C1482.59,1726.2,1459.48,1791.9,1505.36,1804.18Z" />
      </g>
      <path class="cls-3" d="M1687.24,1503.13h-.6l-170.23-7.95a12.5,12.5,0,0,1,1.17-25l170.23,8a12.5,12.5,0,0,1-.57,25Z" />
      <path class="cls-3" d="M1694.05,1578h-.65l-192-9.77a12.5,12.5,0,0,1,1.27-25l192,9.76a12.5,12.5,0,0,1-.62,25Z" />
      <path class="cls-3" d="M1683.12,1659l-.64,0-184.38-9.36a12.5,12.5,0,1,1,1.27-25l184.38,9.36a12.5,12.5,0,0,1-.63,25Z" />
      <path class="cls-3" d="M1647.86,1745.54h-.61l-165.17-8a12.5,12.5,0,0,1,1.2-25l165.17,8a12.5,12.5,0,0,1-.59,25Z" />
      <path class="cls-3" d="M1533.06,1817.78c-8.62,0-18.11-.39-27.89-1.17h0a13.35,13.35,0,0,1-2.72-.53c-48.56-13.25-37.34-68.93-25.47-127.86,2.52-12.51,5.13-25.45,7.38-38.63,3.88-22.8,4.17-44.23,4.46-65,.55-40.16,1.13-81.68,28.08-130.85,18.32-33.44,41.09-54,67.68-61,32.07-8.48,57.64,5.86,62.44,8.82h0a13.52,13.52,0,0,1,1.53,1.07h0c35.14,28.7,55.69,77.08,57.86,136.22,3.77,103-31.08,183.72-65,224.93h0c-28,34.09-51.1,48.37-85.2,52.71A188.83,188.83,0,0,1,1533.06,1817.78Zm-24.65-26c17.46,1.33,34.09,1.32,44.69,0,24-3,42.05-10.93,69-43.78h0c10.7-13,63.82-84.2,59.28-208.15-1.89-51.48-18.94-93.07-48.05-117.24-3.3-1.89-21.17-11.23-42.4-5.62-19.7,5.21-37.25,21.64-52.15,48.84-24,43.71-24.47,80.37-25,119.18-.3,21.68-.61,44.1-4.82,68.81-2.31,13.55-5,26.68-7.51,39.37C1488.78,1756.23,1485.55,1785,1508.41,1791.78Z" />
      <path class="cls-3" d="M574.5,1737.53a12.5,12.5,0,0,1-10.06-19.9c.34-.47,36.74-52.24,25.54-150.77C583,1505,557.6,1457,518.6,1431.8c-25.58-16.55-54.21-21-80.61-12.59a12.5,12.5,0,0,1-7.61-23.81c33.18-10.6,70.28-5,101.8,15.41,45.4,29.36,74.75,83.78,82.64,153.23,12.39,109-28.49,166-30.24,168.4A12.48,12.48,0,0,1,574.5,1737.53Z" />
      <path class="cls-3" d="M1280.92,1737.52a12.46,12.46,0,0,1-10.05-5.08c-1.75-2.38-42.63-59.41-30.24-168.4,7.89-69.45,37.24-123.87,82.64-153.23,31.52-20.39,68.63-26,101.8-15.41a12.5,12.5,0,1,1-7.61,23.81c-26.39-8.43-55-4-80.61,12.59-39,25.22-64.35,73.19-71.38,135.06-11.2,98.53,25.21,150.3,25.57,150.81a12.52,12.52,0,0,1-10.12,19.85Z" />
      <path class="cls-1" d="M1401.93,703.5h0a10.13,10.13,0,0,1-9.36-10.83l21.24-290.75a10.11,10.11,0,0,1,10.83-9.35h0a106.17,106.17,0,0,1,98.16,113.62l-7.24,99.15A106.18,106.18,0,0,1,1401.93,703.5Z" />
      <path class="cls-3" d="M1409.74,706.68c-2.66,0-5.33-.09-8-.29h0a13,13,0,0,1-12-13.93l21.24-290.75a13,13,0,0,1,13.93-12A109.19,109.19,0,0,1,1525.69,506.4l-7.24,99.15A109.23,109.23,0,0,1,1409.74,706.68Zm-7.6-6.07a103.36,103.36,0,0,0,110.53-95.48l7.24-99.15a103.41,103.41,0,0,0-95.48-110.53,7.37,7.37,0,0,0-5.25,1.74,7.14,7.14,0,0,0-2.48,4.94l-21.24,290.75a7.22,7.22,0,0,0,6.68,7.73Z" />
      <g class="cls-2">
        <path class="cls-3" d="M1519,558.85l-3.38,46.5a106.23,106.23,0,0,1-113.65,98.17,10.15,10.15,0,0,1-9.36-10.85l5.62-77.3a10.14,10.14,0,0,0,8.75,6.66l6.9.49A106.1,106.1,0,0,0,1519,558.85Z" />
      </g>
      <path class="cls-3" d="M1409.75,719.91q-4.47,0-9-.33h0a26.24,26.24,0,0,1-24.26-28.09l21.23-290.74a26.24,26.24,0,0,1,28.08-24.26,122.43,122.43,0,0,1,113.07,130.88l-7.25,99.14A122.46,122.46,0,0,1,1409.75,719.91Zm-.65-32.25c46.84.16,86.91-36,90.38-83.5l7.24-99.14a90.17,90.17,0,0,0-77.29-95.74Zm-6-.24h0Z" />
      <path class="cls-1" d="M465,322.48h0a10.12,10.12,0,0,1,9.36,10.83L453.07,624.05a10.11,10.11,0,0,1-10.83,9.36h0a106.18,106.18,0,0,1-98.16-113.63l7.24-99.14A106.18,106.18,0,0,1,465,322.48Z" />
      <path class="cls-3" d="M443,636.33q-.48,0-1,0A109.07,109.07,0,0,1,341.2,519.57l7.23-99.14A109.07,109.07,0,0,1,465.16,319.59h0a13,13,0,0,1,12,13.93L456,624.26A13,13,0,0,1,443,636.33Zm14.06-311.24a103.27,103.27,0,0,0-102.84,95.76L347,520a103.28,103.28,0,0,0,95.48,110.53,7.27,7.27,0,0,0,7.74-6.68L471.42,333.1a7.22,7.22,0,0,0-6.68-7.73l.21-2.89-.21,2.89Q460.89,325.09,457.05,325.09Z" />
      <g class="cls-2">
        <path class="cls-3" d="M459,543.4l-5.9,80.66a10.14,10.14,0,0,1-10.86,9.35A106.15,106.15,0,0,1,344.09,519.8L347.14,478a106.22,106.22,0,0,0,91.93,69.25l10.61.77A10.26,10.26,0,0,0,459,543.4Z" />
      </g>
      <path class="cls-3" d="M443,649.56c-.64,0-1.28,0-1.93-.07A122.28,122.28,0,0,1,328,518.61l7.24-99.15A122.28,122.28,0,0,1,466.12,306.4h0a26.24,26.24,0,0,1,24.26,28.08L469.15,625.23A26.28,26.28,0,0,1,443,649.56Zm14.08-311.25a90.07,90.07,0,0,0-89.68,83.5L360.16,521a90.06,90.06,0,0,0,77.29,95.74l20.33-278.39Zm6.7.24h0L465,322.48Z" />
      <circle class="cls-1" cx="933.5" cy="512.99" r="496.78" />
      <path class="cls-3" d="M934.55,1012.76a507.06,507.06,0,0,1-72.7-5.26C729.76,988.36,613,918.93,533.17,812S419.85,573.43,439,441.34,527.56,192.53,634.5,112.66,873.05-.66,1005.15,18.49,1254,107.06,1333.84,214,1447.15,452.56,1428,584.64h0c-19.14,132.09-88.57,248.82-195.5,328.69C1145.25,978.5,1041.53,1012.76,934.55,1012.76ZM933.18,19.07c-241.24,0-452.87,177.49-488.45,423.1-18.92,130.56,14.14,260.67,93.08,366.36s194.31,174.32,324.87,193.24,260.67-14.14,366.36-93.08,174.32-194.32,193.24-324.88c39-269.51-148.45-520.54-418-559.59A495,495,0,0,0,933.18,19.07Zm492,565.16h0Z" />
      <g class="cls-2">
        <path class="cls-3" d="M1430.29,515.49a494.42,494.42,0,0,1-5.14,68.75c-39.38,271.51-291.37,459.73-562.89,420.41S402.53,713.28,441.84,441.76c1.13-7.81,2.44-15.6,3.93-23.24-1.53,244.13,177.12,458.14,425.56,494.15C1135,950.86,1380.29,774.42,1430.29,515.49Z" />
      </g>
      <path class="cls-3" d="M933.84,1025.93a514.68,514.68,0,0,1-73.89-5.34c-135.58-19.65-255.4-90.92-337.38-200.68S406.26,575,425.9,439.45,516.82,184,626.58,102.06,871.47-14.24,1007.05,5.4C1286.94,46,1481.65,306.65,1441.1,586.54h0C1404.14,841.59,1184.34,1025.93,933.84,1025.93ZM932.49,32.24c-102.91,0-202.67,33-286.61,95.66C543,204.72,476.22,317,457.81,444.07s13.76,253.69,90.59,356.55S737.52,970.27,864.58,988.68c262.32,38,506.61-144.47,544.61-406.76S1264.72,75.31,1002.43,37.31A487.27,487.27,0,0,0,932.49,32.24Zm492.65,552h0Z" />
      <path class="cls-3" d="M1421.74,596.63c-12.48,96.4-55.37,181.86-118.48,249-47.32,50.32-224.85,126.13-428.77,101.58-189.07-22.76-347.86-145.71-380.8-206.42-43.93-81-63.63-174.54-51.15-270.95,33-255.12,265.93-332.5,536.34-297.48S1454.78,341.51,1421.74,596.63Z" />
      <g class="cls-8">
        <ellipse class="cls-1" cx="1267.11" cy="541.36" rx="87.91" ry="63.7" transform="translate(367.05 1584.69) rotate(-72.35)" />
      </g>
      <g class="cls-8">
        <ellipse class="cls-1" cx="1167.35" cy="704.05" rx="40.35" ry="34.63" transform="translate(28.13 1452.76) rotate(-64.41)" />
      </g>
      <g class="cls-2">
        <path class="cls-9" d="M1357.34,346.29c52.45,64.87,77.65,147.86,64.4,250.32-12.49,96.43-55.39,181.87-118.47,249-47.33,50.32-224.87,126.12-428.79,101.59-72-8.64-139.59-31.84-197.53-60.63,251.3,24.81,467.68-68.43,526.35-130.84,80.11-85.19,134.53-193.66,150.36-316A503.94,503.94,0,0,0,1357.34,346.29Z" />
      </g>
      <path class="cls-3" d="M1397.58,377.63a16,16,0,0,1-2.26-3.17C1327.76,248,1176.69,161,980.84,135.59,783.9,110.09,615.54,158,518.89,266.94c-.2.23-.41.44-.62.65s-.35.35-.5.48a15,15,0,0,1-21.08-21.32c103.4-116.32,281.24-167.67,488-140.91,205.59,26.63,364.9,119.38,437.09,254.48l-13.17,7.13Z" />
      <g class="cls-8">
        <path class="cls-1" d="M532.84,635.83S486.42,373.92,635,291.19s343.72-57.05,337.54-45.13c0,0-222.81,24.33-329.46,184.17C560.88,553.49,532.84,635.83,532.84,635.83Z" />
      </g>
    </g>
  </g>
</svg>